<?xml version="1.0" encoding="utf-8"?>
<!-- Generator: Adobe Illustrator 14.0.0, SVG Export Plug-In . SVG Version: 6.00 Build 43363)  -->
<!DOCTYPE svg PUBLIC "-//W3C//DTD SVG 1.0//EN" "http://www.w3.org/TR/2001/REC-SVG-20010904/DTD/svg10.dtd">
<svg version="1.0" id="Capa_1" xmlns="http://www.w3.org/2000/svg" xmlns:xlink="http://www.w3.org/1999/xlink" x="0px" y="0px"
	 width="250px" height="250px" viewBox="0 0 250 250" enable-background="new 0 0 250 250" xml:space="preserve">
<g>
	
		<linearGradient id="SVGID_1_" gradientUnits="userSpaceOnUse" x1="-4413.3691" y1="39.4126" x2="-4393.1069" y2="36.6515" gradientTransform="matrix(7.5635 0 0 -7.5635 33436.0859 348.0672)">
		<stop  offset="0" style="stop-color:#4F5855"/>
		<stop  offset="1" style="stop-color:#F7F7FA"/>
	</linearGradient>
	<path fill="url(#SVGID_1_)" stroke="#3B4949" stroke-width="0.5" d="M126.5,23.65c-37.596,0-68.948,26.824-75.989,62.363
		l4.05-2.091c7.764-32.536,37.035-56.75,71.938-56.75c40.829,0,73.965,33.136,73.965,73.964c0,1.27-0.024,2.534-0.088,3.786
		l3.389,1.98c0.141-1.903,0.221-3.83,0.221-5.768C203.987,58.364,169.272,23.65,126.5,23.65z"/>
	
		<linearGradient id="SVGID_2_" gradientUnits="userSpaceOnUse" x1="-4415.2119" y1="37.9727" x2="-4392.5161" y2="37.9727" gradientTransform="matrix(7.5635 0 0 -7.5635 33436.0859 348.0672)">
		<stop  offset="0" style="stop-color:#D7DCDF"/>
		<stop  offset="0.2" style="stop-color:#D6DADE"/>
		<stop  offset="0.67" style="stop-color:#DEDFE1"/>
		<stop  offset="1" style="stop-color:#3A4A49"/>
	</linearGradient>
	<path fill="url(#SVGID_2_)" stroke="#3B4949" stroke-width="0.5" d="M126.5,14.493c-42.089,0-77.194,30.063-85.015,69.87
		l3.214,1.937c7.004-38.811,40.983-68.285,81.801-68.285c45.884,0,83.122,37.238,83.122,83.122c0,2.054-0.073,4.081-0.22,6.098
		l3.61-1.454c0.081-1.541,0.132-3.083,0.132-4.645C213.145,53.309,174.328,14.493,126.5,14.493z"/>
	
		<linearGradient id="SVGID_3_" gradientUnits="userSpaceOnUse" x1="-4412.3721" y1="26.7666" x2="-4394.8086" y2="31.7627" gradientTransform="matrix(7.5635 0 0 -7.5635 33436.0859 348.0672)">
		<stop  offset="0" style="stop-color:#4F5A57"/>
		<stop  offset="0.15" style="stop-color:#969E9D"/>
		<stop  offset="0.7" style="stop-color:#DEE2E3"/>
		<stop  offset="1" style="stop-color:#666B6F"/>
	</linearGradient>
	<path fill="url(#SVGID_3_)" stroke="#3B4949" stroke-width="0.5" d="M49.234,95.347c-0.145,1.926-0.218,3.858-0.22,5.79
		c0,42.773,34.713,77.486,77.486,77.486c37.604,0,68.957-26.836,75.99-62.385l-4.051,2.135
		c-7.771,32.525-37.044,56.728-71.939,56.728c-40.828,0-73.964-33.136-73.964-73.964c0-1.261,0.025-2.519,0.088-3.765L49.234,95.347
		z"/>
	
		<linearGradient id="SVGID_4_" gradientUnits="userSpaceOnUse" x1="-4412.6997" y1="36.5327" x2="-4398.9893" y2="24.4723" gradientTransform="matrix(7.5635 0 0 -7.5635 33436.0859 348.0672)">
		<stop  offset="0" style="stop-color:#667173"/>
		<stop  offset="0.15" style="stop-color:#E0E0E1"/>
		<stop  offset="0.3" style="stop-color:#E0E0E1"/>
		<stop  offset="1" style="stop-color:#3B4B4A"/>
	</linearGradient>
	<path fill="url(#SVGID_4_)" stroke="#3B4949" stroke-width="0.5" d="M43.599,95.039l-3.61,1.453
		c-0.085,1.547-0.13,3.095-0.132,4.645c0,47.827,38.816,86.644,86.643,86.644c42.081,0,77.186-30.051,85.016-69.847l-3.236-1.828
		c-7.057,38.746-41.006,68.152-81.779,68.152c-45.883,0-83.122-37.236-83.122-83.121C43.378,99.083,43.452,97.055,43.599,95.039z"/>
	<path fill="#B4BEC2" d="M15.906,94.797l5.636-2.818l2.817-3.522l-1.409-3.522L15.906,94.797z"/>
	
		<linearGradient id="SVGID_5_" gradientUnits="userSpaceOnUse" x1="-4417.6855" y1="34.8828" x2="-4397.6152" y2="34.8828" gradientTransform="matrix(7.5635 0 0 -7.5635 33436.0859 348.0672)">
		<stop  offset="0" style="stop-color:#B1BCC0"/>
		<stop  offset="1" style="stop-color:#848E91"/>
	</linearGradient>
	<path fill="url(#SVGID_5_)" d="M174.401,80.004l-11.975,4.931L24.359,88.457l-1.409-3.522l18.515-0.603l3.249,1.853l5.762-0.142
		l4.103-2.137L174.401,80.004z"/>
	<path fill="#3B4949" d="M117.343,97.614l-11.271,3.522l-53.44-3.757l-3.411-2.023l-5.615-0.313l-3.617,1.448l-24.083-1.695
		l5.636-2.818L117.343,97.614z"/>
	
		<linearGradient id="SVGID_6_" gradientUnits="userSpaceOnUse" x1="-4410.334" y1="29.8989" x2="-4405.2119" y2="33.1585" gradientTransform="matrix(7.5635 0 0 -7.5635 33436.0859 348.0672)">
		<stop  offset="0" style="stop-color:#C2CFD6"/>
		<stop  offset="1" style="stop-color:#DCE3E6"/>
	</linearGradient>
	<path fill="url(#SVGID_6_)" d="M117.343,97.614l-11.271,3.522L78.6,122.269l11.975-4.931L117.343,97.614z"/>
	<path fill="#3B4949" d="M237.095,107.477l-5.635,2.817l-2.818,3.522l1.409,3.521L237.095,107.477z"/>
	<path fill="#3B4949" d="M78.6,122.269l11.975-4.931l138.067-3.521l1.409,3.521l-18.533,0.604l-3.255-1.847l-5.756,0.14
		l-4.071,2.132L78.6,122.269z"/>
	
		<linearGradient id="SVGID_7_" gradientUnits="userSpaceOnUse" x1="-4402.7842" y1="32.0425" x2="-4389.3262" y2="32.0425" gradientTransform="matrix(7.5635 0 0 -7.5635 33436.0859 348.0672)">
		<stop  offset="0" style="stop-color:#A4ABB3"/>
		<stop  offset="1" style="stop-color:#969EA2"/>
	</linearGradient>
	<path fill="url(#SVGID_7_)" d="M135.658,104.659l11.271-3.522l53.427,3.756l3.41,2.006l5.615,0.34l3.648-1.453l24.065,1.691
		l-5.635,2.817L135.658,104.659z"/>
	<path fill="#3B4949" d="M135.658,104.659l11.271-3.522l27.473-21.133l-11.975,4.931L135.658,104.659z"/>
	
		<linearGradient id="SVGID_8_" gradientUnits="userSpaceOnUse" x1="-4417.4111" y1="35.7534" x2="-4390.7471" y2="29.5921" gradientTransform="matrix(7.5635 0 0 -7.5635 33436.0859 348.0672)">
		<stop  offset="0" style="stop-color:#EAEFF2"/>
		<stop  offset="0.18" style="stop-color:#D3DDDF"/>
		<stop  offset="0.56" style="stop-color:#FFFFFF"/>
		<stop  offset="0.83" style="stop-color:#D3DDDF"/>
		<stop  offset="1" style="stop-color:#EAEFF2"/>
	</linearGradient>
	<path fill="url(#SVGID_8_)" stroke="#FFFFFF" stroke-width="0.8" stroke-linejoin="round" d="M162.427,84.935l-26.769,19.724
		l95.802,5.635l-2.818,3.522l-138.067,3.521l26.769-19.724l-95.801-5.635l2.817-3.522L162.427,84.935z"/>
	<path fill="none" stroke="#FFFFFF" stroke-width="0.8" stroke-linecap="round" stroke-linejoin="round" d="M41.466,84.331
		l3.321,2.013l5.689-0.303 M15.906,94.797l5.636-2.818 M24.359,88.457l-1.409-3.522 M162.427,84.935l11.975-4.931 M231.46,110.294
		l5.635-2.817 M230.051,117.338l-1.409-3.521 M78.6,122.269l11.975-4.931 M200.355,104.893l3.41,2.006l5.615,0.34"/>
	<path fill="none" stroke="#3B4949" stroke-width="0.5" stroke-linecap="round" stroke-linejoin="round" d="M213.028,105.784
		l24.066,1.693l-7.044,9.861l-18.533,0.604l-3.255-1.847l-5.756,0.14l-4.071,2.132L78.6,122.269l27.473-21.132l-53.44-3.757
		l-3.411-2.023l-5.615-0.313l-3.617,1.448l-24.083-1.695l7.044-9.862l18.515-0.603 M54.58,83.903l119.822-3.899l-27.473,21.133
		l53.427,3.756"/>
	<path fill="#EBBD22" stroke="#EBBD22" stroke-width="1.5" stroke-linejoin="round" d="M220.188,242.248l4.227-5.988h-24.654
		v-30.995h-9.511c-1.41,0.01-2.465,1.058-2.465,2.467v34.517H220.188z M179.332,242.248l4.227-5.988h-27.473v-10.214h17.61
		l3.875-5.284l-21.485,0.004v-9.513h23.246l4.227-5.988h-39.447v36.983H179.332z M127.91,230.624
		c11.974,0,12.326-10.566,12.326-12.68s-0.353-12.68-12.326-12.68H96.915v36.983h9.509c1.409,0,2.466-1.057,2.466-2.466v-9.158
		H127.91z M123.683,211.253c4.932,0,5.284,5.635,5.284,6.691s-0.353,6.692-5.284,6.692l-14.793,0.003v-13.387H123.683z
		 M92.336,223.933c0-13.384-6.692-19.725-23.95-19.725c-17.258,0-24.303,4.932-24.303,19.725c0,12.679,5.636,18.667,19.02,18.667
		h9.861C86.349,242.6,92.336,236.611,92.336,223.933z M68.386,210.549c12.327,0,12.327,7.748,12.327,13.384
		c0,5.635,0,13.735-12.327,13.735s-12.68-8.101-12.68-13.735C55.706,218.297,56.059,210.549,68.386,210.549z"/>
	
		<linearGradient id="SVGID_9_" gradientUnits="userSpaceOnUse" x1="44.9741" y1="126.1299" x2="64.6336" y2="135.7135" gradientTransform="matrix(7.5635 0 0 -7.5635 -288.1179 1091.4187)">
		<stop  offset="0" style="stop-color:#D2D7DD"/>
		<stop  offset="0.304" style="stop-color:#FFFFFF"/>
		<stop  offset="0.577" style="stop-color:#FFFFFF"/>
		<stop  offset="1" style="stop-color:#ABB5B8"/>
	</linearGradient>
	<path fill="url(#SVGID_9_)" stroke="#FFFFFF" stroke-linejoin="round" d="M126.5,18.015c-45.883,0-83.122,37.238-83.122,83.122
		c0,45.885,37.239,83.121,83.122,83.121c45.884,0,83.122-37.236,83.122-83.121C209.622,55.253,172.383,18.015,126.5,18.015z
		 M126.5,177.215c-42.162,0-76.341-34.18-76.341-76.342c0-42.163,34.179-76.342,76.341-76.342c42.163,0,76.343,34.179,76.343,76.342
		C202.843,143.034,168.662,177.215,126.5,177.215z"/>
</g>
</svg>
