<?xml version="1.0" encoding="utf-8"?>
<!-- Generator: Adobe Illustrator 14.0.0, SVG Export Plug-In . SVG Version: 6.00 Build 43363)  -->
<!DOCTYPE svg PUBLIC "-//W3C//DTD SVG 1.0//EN" "http://www.w3.org/TR/2001/REC-SVG-20010904/DTD/svg10.dtd">
<svg version="1.0" id="Capa_1" xmlns="http://www.w3.org/2000/svg" xmlns:xlink="http://www.w3.org/1999/xlink" x="0px" y="0px"
	 width="253.741px" height="253.742px" viewBox="0 0 253.741 253.742" enable-background="new 0 0 253.741 253.742"
	 xml:space="preserve">
<g>
	<path fill="#575656" d="M24.262,29.31L24.262,29.31l-4.575,0.521L17.8,30.154c-3.072,0.829-5.096,3.848-4.707,7.033l0.843,4.832
		c1.489,8.227,3.141,16.503,4.898,24.602c1.727,7.92,3.656,16.08,5.73,24.249l3.87,14.619l5.827,20.207l6.311,20.12
		c2.378,7.279,9.791,28.514,11.172,32.004c6.102,15.467,12.577,27.66,24.327,36.941c11.972,9.457,24.91,12.639,51.277,12.639
		c26.349,0,39.275-3.182,51.244-12.639c11.752-9.281,18.223-21.475,24.33-36.941c1.369-3.473,8.779-24.71,11.17-32.004l6.315-20.12
		l5.821-20.207l3.867-14.619c2.066-8.11,3.987-16.267,5.733-24.249c1.769-8.134,3.421-16.414,4.898-24.602l0.846-4.84l0.046-0.776
		c0-2.879-1.935-5.49-4.75-6.249l-1.897-0.324l-4.562-0.521c-15.516-1.37-63.916-2.968-103.064-2.968
		C88.181,26.342,39.764,27.939,24.262,29.31 M77.846,212.513L77.846,212.513c-11.243-8.881-17.496-20.715-23.433-35.736
		c-1.331-3.369-8.809-24.805-11.108-31.844l-6.3-20.062l-5.804-20.145l-3.855-14.564c-2.069-8.14-3.987-16.264-5.711-24.15
		c-1.755-8.063-3.396-16.311-4.878-24.501l-0.823-4.697c-0.212-1.745,0.908-3.431,2.606-3.887l1.561-0.262l4.409-0.5
		c15.453-1.366,63.742-2.958,102.837-2.958c39.082,0,87.359,1.592,102.807,2.958l4.41,0.504l1.559,0.258
		c1.703,0.456,2.823,2.142,2.608,3.918l-0.823,4.666c-1.472,8.156-3.115,16.401-4.881,24.501c-1.732,7.948-3.652,16.075-5.711,24.15
		l-3.849,14.564l-5.803,20.145l-6.305,20.062c-2.306,7.063-9.776,28.485-11.108,31.844c-5.936,15.021-12.192,26.846-23.436,35.736
		c-10.104,7.977-20.521,12.035-49.467,12.035C98.538,224.548,87.726,220.31,77.846,212.513z M236.864,30.154L236.864,30.154
		l-0.06-0.015L236.864,30.154z M236.87,30.154h-0.006H236.87z"/>
	<g>
		<defs>
			<path id="SVGID_1_" d="M236.496,31.539L236.496,31.539c-0.363-0.098-1.129-0.208-1.727-0.293c-1.352-0.19-2.844-0.36-4.483-0.509
				c-15.088-1.335-62.934-2.962-102.939-2.962c-40.012,0-87.884,1.627-102.965,2.962c-1.646,0.148-3.13,0.318-4.49,0.509
				c-0.592,0.085-1.354,0.195-1.718,0.293c-2.504,0.673-3.943,3.105-3.658,5.479c0.015,0.135,0.629,3.608,0.835,4.744
				c1.483,8.214,3.112,16.401,4.89,24.554c1.764,8.098,3.676,16.161,5.719,24.197c1.237,4.875,2.529,9.74,3.855,14.596
				c0.983,3.575,4.001,14.149,5.819,20.175c2.026,6.719,4.124,13.418,6.308,20.092c2.381,7.265,9.797,28.528,11.143,31.918
				c6.097,15.438,12.562,27.398,23.876,36.348c10.96,8.654,22.593,12.334,50.392,12.334c27.797,0,39.396-3.68,50.35-12.334
				c11.315-8.949,17.785-20.91,23.885-36.348c1.34-3.391,8.765-24.654,11.14-31.918c2.181-6.674,4.287-13.373,6.311-20.092
				c1.815-6.026,4.836-16.601,5.816-20.175c1.335-4.856,2.621-9.721,3.861-14.596c2.035-8.036,3.949-16.099,5.71-24.197
				c1.783-8.153,3.409-16.34,4.893-24.554c0.209-1.136,0.817-4.609,0.838-4.744C240.44,34.645,238.999,32.212,236.496,31.539
				 M167.744,159.572c-3.144,7.377-6.448,14.381-11.644,19.1c-3.796,3.443-9.186,6.6-21.598,7.064
				c-2.381,0.086-5.459,0.098-7.156,0.098c-1.709,0-4.773-0.012-7.16-0.098c-12.403-0.465-17.802-3.621-21.589-7.064
				c-5.204-4.719-8.505-11.723-11.651-19.1c-1.435-3.336-9.783-23.762-11.155-27.917c17.011,0.846,35.913,1.454,51.556,1.454
				c15.639,0,34.538-0.608,51.544-1.454C177.524,135.81,169.167,156.235,167.744,159.572z"/>
		</defs>
		<clipPath id="SVGID_2_">
			<use xlink:href="#SVGID_1_"  overflow="visible"/>
		</clipPath>
		
			<linearGradient id="SVGID_3_" gradientUnits="userSpaceOnUse" x1="-1144.7842" y1="1379.2563" x2="-1143.7842" y2="1379.2563" gradientTransform="matrix(0 226.2144 -226.2098 0 312128.6563 258980.3281)">
			<stop  offset="0" style="stop-color:#FFFFFF"/>
			<stop  offset="0.54" style="stop-color:#C8CACB"/>
			<stop  offset="0.65" style="stop-color:#8D9091"/>
			<stop  offset="0.81" style="stop-color:#5E6162"/>
			<stop  offset="1" style="stop-color:#282B2B"/>
		</linearGradient>
		<rect x="14.23" y="27.775" clip-path="url(#SVGID_2_)" fill="url(#SVGID_3_)" width="226.209" height="198.201"/>
	</g>
	<g>
		<defs>
			<path id="SVGID_4_" d="M74.437,132.106L74.437,132.106c1.403,4.261,9.734,24.635,11.189,28.022
				c3.063,7.197,6.516,14.627,12.012,19.611c3.741,3.393,9.337,6.939,22.495,7.426l7.214,0.094l7.207-0.094
				c13.153-0.486,18.758-4.033,22.507-7.432c5.496-4.973,8.94-12.408,11.998-19.605c1.46-3.389,9.792-23.756,11.194-28.022
				l0.655-1.985l-2.087,0.109c-18.977,0.928-37.262,1.445-51.475,1.445s-32.498-0.517-51.484-1.445l-2.083-0.109L74.437,132.106z
				 M176.823,133.189L176.823,133.189c-2.446,6.519-9.146,22.898-10.395,25.818c-2.943,6.895-6.229,14.016-11.297,18.607
				c-3.541,3.205-8.488,6.227-20.678,6.695l-7.107,0.088l-7.103-0.088c-12.241-0.469-17.325-3.641-20.681-6.695
				c-5.066-4.592-8.359-11.713-11.294-18.607c-1.261-2.92-7.957-19.299-10.397-25.818c18.248,0.869,35.747,1.357,49.475,1.357
				C141.064,134.546,158.564,134.058,176.823,133.189z M169.059,160.128h0.006H169.059z"/>
		</defs>
		<clipPath id="SVGID_5_">
			<use xlink:href="#SVGID_4_"  overflow="visible"/>
		</clipPath>
		
			<linearGradient id="SVGID_6_" gradientUnits="userSpaceOnUse" x1="-1156.3301" y1="1369.229" x2="-1155.3301" y2="1369.229" gradientTransform="matrix(0 -98.5623 107.1292 0 -146557.1406 -113766.3359)">
			<stop  offset="0" style="stop-color:#575656"/>
			<stop  offset="0.9" style="stop-color:#575656"/>
			<stop  offset="0.94" style="stop-color:#3C3B3A"/>
			<stop  offset="1" style="stop-color:#1A1A18"/>
		</linearGradient>
		<rect x="73.779" y="130.121" clip-path="url(#SVGID_5_)" fill="url(#SVGID_6_)" width="107.129" height="57.139"/>
	</g>
	<g>
		<defs>
			<path id="SVGID_7_" d="M179.348,132.194l-0.183,0.138l-0.703,0.528c-0.221,0.615-0.432,1.214-0.512,1.426
				c-0.395,1.035-0.792,2.069-1.195,3.115c-0.826,2.161-1.678,4.316-2.523,6.477c-1.715,4.31-3.48,8.598-5.287,12.869
				c-1.789,4.227-3.562,8.502-5.784,12.54c-2.052,3.736-4.536,7.299-7.837,10.059c-3.338,2.787-7.362,4.49-11.606,5.391
				c-4.459,0.93-9.068,1.061-13.612,1.086c-0.924,0.012-1.835,0.012-2.758,0.023c-0.924-0.012-1.838-0.012-2.761-0.023
				c-4.545-0.025-9.151-0.156-13.61-1.086c-4.246-0.9-8.276-2.604-11.611-5.391c-3.296-2.76-5.779-6.322-7.834-10.059
				c-2.221-4.037-3.987-8.313-5.79-12.54c-1.807-4.271-3.564-8.56-5.273-12.869c-0.857-2.16-1.703-4.315-2.532-6.477
				c-0.4-1.046-0.8-2.081-1.188-3.115c-0.083-0.211-0.295-0.811-0.518-1.426l-0.7-0.528l-0.184-0.138
				c-4.221-3.405-21.617-23.923-32.215-48.454c-8.926-20.682-16.23-45.405-17.956-51.507c1.159,6.575,3.191,13.787,5.192,20.802
				c0.486,1.712,0.943,3.335,1.393,4.952c2.546,9.137,5.255,18.467,8.067,27.719c5.487,18.037,11.144,36.428,18.134,54.742
				c3.704,9.703,7.165,18.256,10.569,26.151c3.009,6.979,6.839,15.004,12.412,21.578c5.676,6.688,11.946,10.963,19.746,13.479
				c6.781,2.18,14.761,3.109,26.659,3.109c11.903,0,19.868-0.93,26.653-3.109c7.803-2.516,14.075-6.791,19.751-13.479
				c5.564-6.574,9.4-14.6,12.413-21.578c3.409-7.895,6.862-16.448,10.565-26.151c6.997-18.316,12.65-36.716,18.137-54.742
				c2.815-9.261,5.527-18.588,8.061-27.719c0.394-1.399,0.806-2.845,1.194-4.25c1.995-7.077,4.041-14.363,5.327-21.285
				c-1.883,6.579-9.406,31.715-18.252,52.198C200.608,109.186,183.569,128.789,179.348,132.194"/>
		</defs>
		<clipPath id="SVGID_8_">
			<use xlink:href="#SVGID_7_"  overflow="visible"/>
		</clipPath>
		
			<linearGradient id="SVGID_9_" gradientUnits="userSpaceOnUse" x1="-1152.083" y1="1372.4653" x2="-1151.163" y2="1372.4653" gradientTransform="matrix(0 -206.6961 204.2753 0 -280233.5313 -237900.3906)">
			<stop  offset="0" style="stop-color:#FFFFFF"/>
			<stop  offset="0.18" style="stop-color:#FFFFFF"/>
			<stop  offset="0.31" style="stop-color:#AEB0B2"/>
			<stop  offset="0.49" style="stop-color:#535556"/>
			<stop  offset="0.64" style="stop-color:#3F4242"/>
			<stop  offset="0.78" style="stop-color:#282B2B"/>
			<stop  offset="1" style="stop-color:#282B2B"/>
		</linearGradient>
		<rect x="25.174" y="32.234" clip-path="url(#SVGID_8_)" fill="url(#SVGID_9_)" width="204.274" height="172.531"/>
	</g>
	<g>
		<defs>
			<path id="SVGID_10_" d="M229.22,30.65c-33.922-2.061-67.889-2.873-101.873-2.875C93.368,27.778,59.395,28.59,25.476,30.65
				c0,0,4.882,22.343,12.87,43.83l0.018,0.026h-0.018c1.243,3.346,2.566,6.667,3.956,9.887
				c10.392,24.065,28.785,43.27,33.489,47.281c1.229,0.051,3.041,0.148,4.275,0.214c3.293,0.151,6.585,0.294,9.88,0.426
				c6.485,0.263,12.973,0.475,19.461,0.617c5.976,0.126,11.957,0.18,17.939,0.177c5.976,0.003,11.96-0.051,17.934-0.177
				c6.49-0.143,12.979-0.354,19.463-0.617c3.292-0.132,6.594-0.274,9.886-0.426c1.226-0.066,3.041-0.163,4.262-0.214
				c4.715-4.011,23.106-23.215,33.501-47.281c5.547-12.837,9.989-27.398,12.915-38.119l-0.034,0.015l0.034-0.041
				C227.825,37.029,229.22,30.65,229.22,30.65"/>
		</defs>
		<clipPath id="SVGID_11_">
			<use xlink:href="#SVGID_10_"  overflow="visible"/>
		</clipPath>
		
			<linearGradient id="SVGID_12_" gradientUnits="userSpaceOnUse" x1="-1152.1787" y1="1372.4556" x2="-1151.1787" y2="1372.4556" gradientTransform="matrix(0 -203.7438 203.7436 0 -279501.6875 -234566.9688)">
			<stop  offset="0" style="stop-color:#393C3D"/>
			<stop  offset="0.05" style="stop-color:#9FA4A6"/>
			<stop  offset="0.15" style="stop-color:#FFFFFF"/>
			<stop  offset="0.21" style="stop-color:#E5E7E7"/>
			<stop  offset="0.37" style="stop-color:#CBCECF"/>
			<stop  offset="0.91" style="stop-color:#B2B6B8"/>
			<stop  offset="1" style="stop-color:#979B9E"/>
		</linearGradient>
		<rect x="25.476" y="27.775" clip-path="url(#SVGID_11_)" fill="url(#SVGID_12_)" width="203.744" height="105.336"/>
	</g>
	<g>
		<defs>
			<path id="SVGID_13_" d="M229.22,30.647v0.003c0,0-1.295,5.913-3.633,14.577c-33.695,17.037-83.107,29.321-138.673,32.411
				c-16.278,0.91-32.114,0.975-47.268,0.275c-0.446-1.133-0.875-2.265-1.301-3.407h0.018l-0.018-0.026
				c-7.988-21.487-12.87-43.83-12.87-43.83v-0.008c16.183-1.315,62.771-2.868,101.871-2.868
				C166.466,27.775,213.058,29.33,229.22,30.647"/>
		</defs>
		<clipPath id="SVGID_14_">
			<use xlink:href="#SVGID_13_"  overflow="visible"/>
		</clipPath>
		<g clip-path="url(#SVGID_14_)">
			<g>
				<defs>
					<rect id="SVGID_15_" x="25.476" y="27.775" width="203.743" height="50.838"/>
				</defs>
				<clipPath id="SVGID_16_">
					<use xlink:href="#SVGID_15_"  overflow="visible"/>
				</clipPath>
				<g transform="matrix(1 0 0 1 -4.019766e-007 1.170083e-007)" clip-path="url(#SVGID_16_)">
				</g>
			</g>
		</g>
	</g>
	<path fill="#FFFFFF" d="M190.977,80.609l-0.509,0.821c0.197,0.416,2.109,4.356,2.109,4.356l0.514-0.826
		C192.895,84.545,190.977,80.609,190.977,80.609"/>
	<path fill="#FFFFFF" d="M175.141,80.609c0,0-1.863,3.932-2.066,4.352c-0.457,0-6.493,0-7.536,0l-1.267,0.828l0.635-0.002h8.686
		c0,0,1.877-3.935,2.071-4.356c0.495,0,14.308,0,14.802,0l0.509-0.821H175.141z"/>
	<path fill="#C5C5C6" d="M175.141,80.609c0,0-1.863,3.932-2.066,4.352c-0.457,0-6.493,0-7.536,0l-1.267,0.828l0.635-0.002h8.686
		c0,0,1.877-3.935,2.071-4.356c0.495,0,14.308,0,14.802,0l0.509-0.821H175.141z"/>
	<path fill="#FFFFFF" d="M198.399,78.216c-1.881-4.145-3.416-7.464-4.579-9.863c-2.235-4.655-2.898-5.565-3.204-5.85
		c-0.703-0.72-1.78-1.288-3.175-1.665c-1.353-0.366-2.823-0.555-4.382-0.56v0.82c1.484,0.003,2.885,0.185,4.164,0.533
		c1.25,0.341,2.204,0.833,2.824,1.466c0.231,0.219,0.92,1.212,3.035,5.616c1.157,2.394,2.687,5.703,4.559,9.841
		c0,0,2.441,5.432,2.872,6.407c-1.04,0-6.979,0-7.425,0l-0.515,0.826h9.214L198.399,78.216z"/>
	<polygon fill="#FFFFFF" points="184.049,66.354 184.037,66.298 184.029,66.281 	"/>
	<g>
		<defs>
			<polygon id="SVGID_17_" points="184.049,66.354 184.034,66.298 184.029,66.287 184.029,66.29 			"/>
		</defs>
		<clipPath id="SVGID_18_">
			<use xlink:href="#SVGID_17_"  overflow="visible"/>
		</clipPath>
		
			<linearGradient id="SVGID_19_" gradientUnits="userSpaceOnUse" x1="-1336.583" y1="-30762.7461" x2="-1335.583" y2="-30762.7461" gradientTransform="matrix(0 -4.2097 0.0227 0 881.7384 -5556.5093)">
			<stop  offset="0" style="stop-color:#3C3B3A"/>
			<stop  offset="0.05" style="stop-color:#A6A6A7"/>
			<stop  offset="0.15" style="stop-color:#FFFFFF"/>
			<stop  offset="0.21" style="stop-color:#E6E6E9"/>
			<stop  offset="0.37" style="stop-color:#CFCFD2"/>
			<stop  offset="0.91" style="stop-color:#AEACB1"/>
			<stop  offset="1" style="stop-color:#8C8A8F"/>
		</linearGradient>
		<rect x="184.029" y="66.287" clip-path="url(#SVGID_18_)" fill="url(#SVGID_19_)" width="0.02" height="0.067"/>
	</g>
	<path fill="#FFFFFF" d="M111.456,80.609l-0.518,0.821c0.2,0.416,2.109,4.356,2.109,4.356l0.518-0.826
		C113.362,84.545,111.456,80.609,111.456,80.609"/>
	<path fill="#FFFFFF" d="M95.611,80.609c0,0-1.86,3.932-2.069,4.352c-0.451,0-6.484,0-7.533,0l-1.264,0.828l0.629-0.002h8.686
		c0,0,1.881-3.935,2.072-4.356c0.494,0,14.313,0,14.807,0l0.518-0.821H95.611z"/>
	<path fill="#C5C5C6" d="M95.611,80.609c0,0-1.86,3.932-2.069,4.352c-0.451,0-6.484,0-7.533,0l-1.264,0.828l0.629-0.002h8.686
		c0,0,1.881-3.935,2.072-4.356c0.494,0,14.313,0,14.807,0l0.518-0.821H95.611z"/>
	<path fill="#FFFFFF" d="M118.87,78.216c-1.878-4.145-3.416-7.464-4.57-9.863c-2.244-4.655-2.904-5.565-3.204-5.85
		c-0.715-0.72-1.783-1.288-3.178-1.665c-1.358-0.366-2.827-0.555-4.382-0.56v0.82c1.48,0.003,2.879,0.185,4.161,0.533
		c1.255,0.341,2.204,0.833,2.824,1.466c0.231,0.219,0.921,1.212,3.032,5.616c1.154,2.394,2.687,5.703,4.559,9.841
		c0,0,2.438,5.432,2.872,6.407c-1.043,0-6.977,0-7.419,0l-0.518,0.826h9.217L118.87,78.216z"/>
	<path fill="#C5C5C6" d="M103.122,66.764l0.334-0.179v-0.819c-0.469,0.011-0.805,0.171-1,0.473L97.34,76.984l1.307-0.823
		C99.144,75.119,103.122,66.764,103.122,66.764"/>
	<polygon fill="#FFFFFF" points="104.52,66.354 104.505,66.298 104.491,66.281 	"/>
	<g>
		<defs>
			<polygon id="SVGID_20_" points="104.52,66.354 104.505,66.298 104.491,66.281 			"/>
		</defs>
		<clipPath id="SVGID_21_">
			<use xlink:href="#SVGID_20_"  overflow="visible"/>
		</clipPath>
		
			<linearGradient id="SVGID_22_" gradientUnits="userSpaceOnUse" x1="-1296.2363" y1="-23837.002" x2="-1295.2363" y2="-23837.002" gradientTransform="matrix(0 -5.3578 0.0289 0 793.6331 -6873.7368)">
			<stop  offset="0" style="stop-color:#3C3B3A"/>
			<stop  offset="0.05" style="stop-color:#A6A6A7"/>
			<stop  offset="0.15" style="stop-color:#FFFFFF"/>
			<stop  offset="0.21" style="stop-color:#E6E6E9"/>
			<stop  offset="0.37" style="stop-color:#CFCFD2"/>
			<stop  offset="0.91" style="stop-color:#AEACB1"/>
			<stop  offset="1" style="stop-color:#8C8A8F"/>
		</linearGradient>
		<rect x="104.491" y="66.281" clip-path="url(#SVGID_21_)" fill="url(#SVGID_22_)" width="0.028" height="0.073"/>
	</g>
	<g>
		<defs>
			<path id="SVGID_23_" d="M97.341,76.984L97.341,76.984l1.303-0.823c1.08,0,8.651,0,9.74,0c-0.521-1.044-4.559-9.408-4.559-9.408
				l-0.295-0.173l-0.077,0.006v-0.819l0.077-0.007c0.675,0,0.898,0.32,0.975,0.539l-0.014-0.017l0.028,0.073l-0.015-0.056
				l5.188,10.686v0H97.341z"/>
		</defs>
		<clipPath id="SVGID_24_">
			<use xlink:href="#SVGID_23_"  overflow="visible"/>
		</clipPath>
		
			<linearGradient id="SVGID_25_" gradientUnits="userSpaceOnUse" x1="-1159.8369" y1="1344.9409" x2="-1159.5573" y2="1344.9409" gradientTransform="matrix(-14.4816 -29.8867 28.9888 -14.0465 -55680.0547 -15698.7168)">
			<stop  offset="0" style="stop-color:#FFFFFF"/>
			<stop  offset="0.61" style="stop-color:#E2E2E3"/>
			<stop  offset="1" style="stop-color:#C6C7C7"/>
		</linearGradient>
		<polygon clip-path="url(#SVGID_24_)" fill="url(#SVGID_25_)" points="114.098,74.85 107.344,60.912 92.936,67.894 99.689,81.831 
					"/>
	</g>
	<path fill="#C5C5C6" d="M182.631,66.764l0.338-0.179v-0.819c-0.472,0.011-0.806,0.171-1,0.473l-5.113,10.745l1.304-0.823
		C178.659,75.119,182.631,66.764,182.631,66.764"/>
	<g>
		<defs>
			<path id="SVGID_26_" d="M189.207,76.983L189.207,76.983l-12.352,0l1.304-0.823c1.08,0,8.65,0,9.739,0
				c-0.503-1.044-4.556-9.408-4.556-9.408l-0.294-0.173l-0.077,0.006v-0.819l0.077-0.007c0.671,0,0.9,0.32,0.978,0.539l-0.009-0.017
				l0.022,0.073l-0.014-0.056L189.207,76.983z"/>
		</defs>
		<clipPath id="SVGID_27_">
			<use xlink:href="#SVGID_26_"  overflow="visible"/>
		</clipPath>
		
			<linearGradient id="SVGID_28_" gradientUnits="userSpaceOnUse" x1="-1160.0703" y1="1344.8628" x2="-1159.7703" y2="1344.8628" gradientTransform="matrix(-14.2521 -29.8782 28.932 -13.8008 -55259.0391 -16027.0449)">
			<stop  offset="0" style="stop-color:#FFFFFF"/>
			<stop  offset="0.61" style="stop-color:#E2E2E3"/>
			<stop  offset="1" style="stop-color:#C6C7C7"/>
		</linearGradient>
		<polygon clip-path="url(#SVGID_27_)" fill="url(#SVGID_28_)" points="193.569,74.903 186.917,60.959 172.493,67.84 
			179.145,81.784 		"/>
	</g>
	<path fill="#FFFFFF" d="M154.218,61.209c0.699,0,6.284,0,6.984,0l0.826-0.823h-8.629v25.401l0.818-0.826
		C154.218,84.36,154.218,62.178,154.218,61.209"/>
	<path fill="#C5C5C6" d="M162.022,60.383l-0.823,0.823c0,0.969,0,23.151,0,23.752c-0.7,0-6.284,0-6.984,0l-0.817,0.829h8.625V60.383
		z"/>
	<g>
		<defs>
			<path id="SVGID_29_" d="M53.948,85.787L53.948,85.787l-0.001-25.403l0.001,0h18.333c4.164,0,7.534,1.365,10.026,4.048
				c0.26,0.28,0.5,0.564,0.726,0.863l-0.586,0.581c-0.231-0.301-0.478-0.603-0.746-0.886c-2.323-2.511-5.49-3.781-9.42-3.781
				c0,0-16.722,0-17.508,0c0,0.782,0,22.971,0,23.751L53.948,85.787z"/>
		</defs>
		<clipPath id="SVGID_30_">
			<use xlink:href="#SVGID_29_"  overflow="visible"/>
		</clipPath>
		
			<linearGradient id="SVGID_31_" gradientUnits="userSpaceOnUse" x1="-1153.2549" y1="1391.0815" x2="-1152.9548" y2="1391.0815" gradientTransform="matrix(65.4796 26.6787 -25.3043 62.1061 110778.3047 -55556.2031)">
			<stop  offset="0" style="stop-color:#FFFFFF"/>
			<stop  offset="0.61" style="stop-color:#E2E2E3"/>
			<stop  offset="1" style="stop-color:#C6C7C7"/>
		</linearGradient>
		<polygon clip-path="url(#SVGID_30_)" fill="url(#SVGID_31_)" points="45.071,82.17 78.893,95.95 91.91,64 58.089,50.22 		"/>
	</g>
	<path fill="#C5C5C6" d="M62.579,66.395c0.74,0,8.416,0,8.416,0c1.626,0,2.904,0.542,3.887,1.628l0.583-0.578
		c-1.135-1.234-2.635-1.87-4.47-1.87h-9.242v14.873l0.826-0.822C62.579,78.876,62.579,67.152,62.579,66.395"/>
	<path fill="#C5C5C6" d="M82.379,81.885c2.187-2.3,3.301-5.191,3.301-8.589c0-3.061-0.895-5.748-2.646-8.004l-0.586,0.584
		c1.598,2.097,2.412,4.583,2.412,7.42c0,3.178-1.037,5.886-3.078,8.025c-2.289,2.414-5.493,3.637-9.5,3.637c0,0-16.722,0-17.508,0
		l-0.826,0.829h18.334C76.526,85.787,79.921,84.472,82.379,81.885"/>
	<g>
		<defs>
			<path id="SVGID_32_" d="M61.753,80.448L61.753,80.448l0.826-0.825c0.74,0,8.416,0,8.416,0c1.721,0,3.075-0.679,4.136-2.094
				c0.94-1.266,1.415-2.846,1.415-4.687c0-1.784-0.455-3.281-1.375-4.473l-0.286-0.347l0.58-0.578l0.369,0.427
				c1.015,1.329,1.538,3.005,1.538,4.97c0,2.019-0.535,3.76-1.592,5.179c-1.192,1.61-2.81,2.426-4.785,2.426H61.753z"/>
		</defs>
		<clipPath id="SVGID_33_">
			<use xlink:href="#SVGID_32_"  overflow="visible"/>
		</clipPath>
		
			<linearGradient id="SVGID_34_" gradientUnits="userSpaceOnUse" x1="-1157.2188" y1="1349.4028" x2="-1157.0189" y2="1349.4028" gradientTransform="matrix(-18.0214 -34.011 33.6844 -17.8483 -66237.8984 -15197.7266)">
			<stop  offset="0" style="stop-color:#FFFFFF"/>
			<stop  offset="0.61" style="stop-color:#E2E2E3"/>
			<stop  offset="1" style="stop-color:#C6C7C7"/>
		</linearGradient>
		<polygon clip-path="url(#SVGID_33_)" fill="url(#SVGID_34_)" points="82.751,77.598 73.948,60.983 56.373,70.296 65.177,86.91 		
			"/>
	</g>
	<g>
		<defs>
			<path id="SVGID_35_" d="M113.048,85.787h9.22l-3.397-7.571c-1.875-4.145-3.413-7.464-4.57-9.866
				c-2.244-4.655-2.904-5.563-3.204-5.85c-0.715-0.718-1.783-1.285-3.175-1.665c-1.357-0.366-2.83-0.556-4.385-0.56h-0.034
				c-1.58,0-3.078,0.194-4.424,0.56c-1.386,0.38-2.472,0.947-3.224,1.676c-0.274,0.302-0.892,1.215-3.144,5.854l-4.622,9.866
				l-3.341,7.553v0.004l1.261-0.826c0.432-0.964,2.829-6.391,2.829-6.391l4.615-9.84c2.035-4.194,2.747-5.381,2.99-5.644
				c0.637-0.619,1.6-1.114,2.849-1.455c1.284-0.354,2.698-0.533,4.21-0.533h0.034c1.48,0.003,2.881,0.185,4.161,0.533
				c1.258,0.341,2.204,0.83,2.827,1.466c0.229,0.219,0.918,1.212,3.029,5.613c1.154,2.394,2.687,5.703,4.562,9.842
				c0,0,2.438,5.431,2.869,6.409h-7.419L113.048,85.787z"/>
		</defs>
		<clipPath id="SVGID_36_">
			<use xlink:href="#SVGID_35_"  overflow="visible"/>
		</clipPath>
		
			<linearGradient id="SVGID_37_" gradientUnits="userSpaceOnUse" x1="-1155.9224" y1="1392.8335" x2="-1155.6624" y2="1392.8335" gradientTransform="matrix(59.4083 16.3058 -15.0826 54.9518 89775.1953 -57619.3672)">
			<stop  offset="0" style="stop-color:#FFFFFF"/>
			<stop  offset="0.61" style="stop-color:#E2E2E3"/>
			<stop  offset="1" style="stop-color:#C6C7C7"/>
		</linearGradient>
		<polygon clip-path="url(#SVGID_36_)" fill="url(#SVGID_37_)" points="78.236,84 119.639,95.364 128.779,62.063 87.376,50.698 		
			"/>
	</g>
	<g>
		<defs>
			<path id="SVGID_38_" d="M201.788,85.786L201.788,85.786l-9.211,0.001l0.512-0.826h7.428c-0.434-0.978-2.872-6.409-2.872-6.409
				c-1.875-4.139-3.404-7.448-4.562-9.842c-2.115-4.401-2.804-5.395-3.035-5.613c-0.62-0.636-1.572-1.125-2.82-1.466
				c-1.281-0.349-2.684-0.53-4.168-0.533h-0.025c-1.509,0-2.927,0.179-4.213,0.533c-1.243,0.341-2.212,0.836-2.852,1.455
				c-0.243,0.263-0.961,1.45-2.992,5.644l-4.613,9.84c0,0-2.4,5.427-2.826,6.391l-1.267,0.828l3.344-7.559l4.627-9.866
				c2.249-4.639,2.858-5.552,3.142-5.854c0.752-0.729,1.835-1.296,3.224-1.676c1.352-0.366,2.844-0.56,4.427-0.56h0.025
				c1.561,0.004,3.033,0.194,4.382,0.56c1.397,0.38,2.475,0.947,3.175,1.665c0.306,0.287,0.969,1.194,3.204,5.85
				c1.166,2.402,2.701,5.722,4.579,9.866L201.788,85.786z"/>
		</defs>
		<clipPath id="SVGID_39_">
			<use xlink:href="#SVGID_38_"  overflow="visible"/>
		</clipPath>
		
			<linearGradient id="SVGID_40_" gradientUnits="userSpaceOnUse" x1="-1155.4697" y1="1392.4624" x2="-1155.2297" y2="1392.4624" gradientTransform="matrix(60.235 17.7673 -16.6448 56.4297 92953.0703 -57975.7305)">
			<stop  offset="0" style="stop-color:#FFFFFF"/>
			<stop  offset="0.61" style="stop-color:#E2E2E3"/>
			<stop  offset="1" style="stop-color:#C6C7C7"/>
		</linearGradient>
		<polygon clip-path="url(#SVGID_39_)" fill="url(#SVGID_40_)" points="157.348,83.747 198.785,95.97 208.712,62.317 
			167.274,50.095 		"/>
	</g>
	<g>
		<defs>
			<path id="SVGID_41_" d="M149.759,79.623v6.164h-15.296c-4.228,0-7.619-1.315-10.066-3.902c-0.78-0.802-1.411-1.686-1.914-2.631
				c-0.935-1.765-1.418-3.755-1.418-5.958c0-3.466,1.138-6.445,3.375-8.864c2.486-2.684,5.862-4.048,10.023-4.048h15.296
				l-0.829,0.826c-0.777,0-14.467,0-14.467,0c-3.925,0-7.094,1.267-9.42,3.778c-2.098,2.265-3.158,5.063-3.158,8.309
				c0,1.969,0.408,3.761,1.206,5.347c0.483,0.972,1.114,1.857,1.9,2.681c2.295,2.414,5.479,3.637,9.472,3.637c0,0,13.689,0,14.467,0
				v-4.513L149.759,79.623z"/>
		</defs>
		<clipPath id="SVGID_42_">
			<use xlink:href="#SVGID_41_"  overflow="visible"/>
		</clipPath>
		
			<linearGradient id="SVGID_43_" gradientUnits="userSpaceOnUse" x1="-1122.396" y1="1401.437" x2="-1121.916" y2="1401.437" gradientTransform="matrix(0 30.9246 -28.6943 0 40348.6094 34778.0352)">
			<stop  offset="0" style="stop-color:#FFFFFF"/>
			<stop  offset="0.61" style="stop-color:#E2E2E3"/>
			<stop  offset="1" style="stop-color:#C6C7C7"/>
		</linearGradient>
		<rect x="121.064" y="60.383" clip-path="url(#SVGID_42_)" fill="url(#SVGID_43_)" width="28.694" height="25.404"/>
	</g>
	<g>
		<defs>
			<path id="SVGID_44_" d="M149.759,60.383v6.012h-14.007c-1.778,0-3.142,0.651-4.158,1.98c-0.886,1.148-1.344,2.575-1.381,4.252
				l-0.006,0.215c0,1.826,0.475,3.409,1.418,4.692c1.034,1.409,2.39,2.088,4.127,2.088h14.007l-0.829,0.825h-0.045h-0.062h-0.077
				h-0.093h-0.107h-0.121h-0.136h-0.148h-0.161h-0.174h-0.185h-0.196h-0.206h-0.216h-0.226h-0.234H146.3h-0.25h-0.257h-0.264h-0.271
				h-0.275h-0.28h-0.284h-0.289h-0.292h-0.294h-0.297h-0.299h-0.299h-0.301h-0.3h-0.299h-0.298h-0.297h-0.295h-0.291h-0.289h-0.284
				h-0.28h-0.274h-0.27h-0.264h-0.257h-0.249h-0.242h-0.233h-0.226h-0.215h-0.206h-0.195h-0.184h-0.173h-0.16h-0.147h-0.135h-0.121
				h-0.106h-0.091h-0.077h-0.06h-0.044h-0.026h-0.009c-1.989,0-3.607-0.816-4.784-2.429c-0.97-1.313-1.498-2.894-1.572-4.703
				l-0.015-0.473c0-1.955,0.523-3.63,1.563-4.97c1.163-1.525,2.787-2.297,4.808-2.297c0,0,12.4,0,13.178,0v-4.366L149.759,60.383z"
				/>
		</defs>
		<clipPath id="SVGID_45_">
			<use xlink:href="#SVGID_44_"  overflow="visible"/>
		</clipPath>
		
			<linearGradient id="SVGID_46_" gradientUnits="userSpaceOnUse" x1="-1179.501" y1="1340.2651" x2="-1179.021" y2="1340.2651" gradientTransform="matrix(0 -25.1861 20.3777 0 -27171.9316 -29628.0078)">
			<stop  offset="0" style="stop-color:#FFFFFF"/>
			<stop  offset="0.61" style="stop-color:#E2E2E3"/>
			<stop  offset="1" style="stop-color:#C6C7C7"/>
		</linearGradient>
		<rect x="129.381" y="60.383" clip-path="url(#SVGID_45_)" fill="url(#SVGID_46_)" width="20.378" height="20.064"/>
	</g>
	<path fill="#002C5E" d="M81.698,64.993L81.698,64.993c-2.326-2.508-5.492-3.781-9.414-3.781c0,0-16.725,0-17.511,0v23.749
		c0.786,0,17.511,0,17.511,0c4.004,0,7.202-1.224,9.489-3.637c2.049-2.142,3.083-4.844,3.083-8.028
		C84.856,70.053,83.791,67.255,81.698,64.993 M75.777,78.024c-1.195,1.61-2.813,2.423-4.787,2.423h-9.237v-14.87h9.237
		c2.043,0,3.669,0.775,4.838,2.297c1.021,1.332,1.538,3.005,1.538,4.967C77.366,74.867,76.834,76.605,75.777,78.024z"/>
	<path fill="#002C5E" d="M124.983,81.327c-2.062-2.158-3.099-4.859-3.099-8.028c0-3.246,1.055-6.041,3.149-8.306
		c2.326-2.508,5.493-3.781,9.42-3.781c0,0,13.682,0,14.465,0c0,0.641,0,3.731,0,4.369c-0.775,0-13.176,0-13.176,0
		c-2.023,0-3.645,0.772-4.805,2.297c-1.046,1.34-1.568,3.012-1.568,4.964c0,2.011,0.534,3.754,1.586,5.179
		c1.18,1.613,2.795,2.429,4.787,2.429c0,0,12.4,0,13.176,0c0,0.641,0,3.87,0,4.51c-0.783,0-14.465,0-14.465,0
		C130.462,84.961,127.275,83.737,124.983,81.327"/>
	<path fill="#002C5E" d="M161.185,61.212c0,0.966,0,23.151,0,23.749c-0.697,0-6.284,0-6.984,0c0-0.598,0-22.783,0-23.749
		C154.9,61.212,160.487,61.212,161.185,61.212"/>
	<path fill="#002C5E" d="M197.621,78.554L197.621,78.554c-1.869-4.138-3.403-7.451-4.553-9.841c-2.12-4.401-2.806-5.395-3.038-5.613
		c-0.619-0.633-1.577-1.13-2.817-1.466c-1.298-0.352-2.706-0.53-4.198-0.53c-1.51,0-2.927,0.179-4.21,0.53
		c-1.243,0.341-2.218,0.833-2.85,1.452c-0.243,0.269-0.96,1.453-2.992,5.647l-4.613,9.837c0,0-2.4,5.424-2.829,6.388h7.533
		c0.206-0.419,2.07-4.349,2.07-4.349h15.832c0,0,1.912,3.934,2.112,4.349h7.432C200.06,83.983,197.621,78.554,197.621,78.554
		 M176.847,76.987l5.119-10.742c0.202-0.319,0.56-0.486,1.074-0.486c0.666,0,0.895,0.313,0.978,0.539l5.182,10.689H176.847z"/>
	<path fill="#002C5E" d="M118.104,78.554L118.104,78.554c-1.869-4.138-3.403-7.451-4.558-9.841
		c-2.109-4.401-2.796-5.395-3.033-5.613c-0.62-0.633-1.569-1.13-2.823-1.466c-1.289-0.352-2.701-0.53-4.198-0.53
		c-1.513,0-2.924,0.179-4.205,0.53c-1.248,0.341-2.212,0.833-2.854,1.452c-0.237,0.269-0.949,1.453-2.986,5.647l-4.61,9.837
		c0,0-2.4,5.424-2.829,6.388h7.536c0.197-0.419,2.061-4.349,2.061-4.349h15.845c0,0,1.903,3.934,2.106,4.349h7.426
		C120.542,83.983,118.104,78.554,118.104,78.554 M97.332,76.987l5.112-10.742c0.2-0.319,0.563-0.486,1.078-0.486
		c0.669,0,0.897,0.313,0.975,0.539l5.187,10.689H97.332z"/>
	<g>
		<defs>
			<path id="SVGID_47_" d="M183.015,61.104L183.015,61.104c-1.512,0-2.927,0.179-4.21,0.533c-1.243,0.338-2.218,0.83-2.85,1.452
				c-0.091,0.096-0.246,0.322-0.503,0.774c3.164-0.854,6.271-1.743,9.32-2.662c-0.563-0.058-1.137-0.096-1.73-0.097H183.015z
				 M110.513,63.1L110.513,63.1c-0.62-0.633-1.566-1.127-2.82-1.463c-1.292-0.354-2.698-0.533-4.196-0.533
				c-1.515,0-2.926,0.179-4.21,0.533c-1.243,0.338-2.212,0.83-2.849,1.452c-0.24,0.266-0.955,1.453-2.992,5.645l-4.107,8.76
				c2.684-0.162,5.364-0.34,8.011-0.544l5.099-10.703c0.206-0.319,0.563-0.486,1.081-0.486c0.663,0,0.892,0.313,0.969,0.539
				l4.655,9.584c2.47-0.255,4.925-0.523,7.371-0.808c-1.166-2.546-2.164-4.686-2.978-6.362
				C111.442,64.312,110.753,63.318,110.513,63.1z M154.2,68.95L154.2,68.95c2.357-0.492,4.689-1.002,6.984-1.527v-6.211H154.2V68.95
				z M54.776,78.344V61.212h17.505c3.927,0,7.091,1.273,9.417,3.781c2.093,2.262,3.158,5.06,3.158,8.303
				c0,1.627-0.274,3.125-0.814,4.492c-2.798,0.138-5.581,0.255-8.354,0.342l0.092-0.105c1.057-1.419,1.586-3.157,1.586-5.182
				c0-1.962-0.518-3.636-1.538-4.967c-1.169-1.522-2.795-2.297-4.835-2.297h-9.24v12.8C59.41,78.381,57.087,78.373,54.776,78.344z
				 M125.034,64.99c-2.098,2.265-3.155,5.063-3.155,8.306c0,0.374,0.018,0.743,0.049,1.103c2.504-0.327,4.993-0.676,7.453-1.036
				l-0.014-0.52c0-1.952,0.522-3.624,1.566-4.967c1.16-1.522,2.783-2.297,4.81-2.297c0,0,12.4,0,13.173,0v-4.366
				c-0.783,0-14.462,0-14.462,0C130.524,61.212,127.36,62.485,125.034,64.99z"/>
		</defs>
		<clipPath id="SVGID_48_">
			<use xlink:href="#SVGID_47_"  overflow="visible"/>
		</clipPath>
		
			<linearGradient id="SVGID_49_" gradientUnits="userSpaceOnUse" x1="-1142.4849" y1="1381.3921" x2="-1141.9258" y2="1381.3921" gradientTransform="matrix(16.4505 122.202 -153.1936 20.6226 230526.4531 111134.8594)">
			<stop  offset="0" style="stop-color:#6579A1"/>
			<stop  offset="0.11" style="stop-color:#6579A1"/>
			<stop  offset="0.64" style="stop-color:#3C5886"/>
			<stop  offset="1" style="stop-color:#133B6C"/>
		</linearGradient>
		<polygon clip-path="url(#SVGID_48_)" fill="url(#SVGID_49_)" points="52.492,61.411 57.09,95.569 187.057,78.074 182.458,43.915 
					"/>
	</g>
	<g>
		<defs>
			<path id="SVGID_50_" d="M37.497,86.43c5.61,18.45,11.892,36.696,18.766,54.719c3.347,8.743,6.816,17.433,10.525,26.029
				c3.355,7.781,7.165,15.49,12.69,22.004c12.335,14.531,26.894,17.311,47.868,17.311c20.966,0,35.539-2.779,47.862-17.311
				c5.53-6.514,9.335-14.223,12.695-22.004c3.704-8.596,7.183-17.286,10.518-26.035c6.879-18.017,13.161-36.263,18.771-54.713
				c2.805-9.228,5.494-18.481,8.077-27.775c2.478-8.911,5.413-18.682,6.922-27.71c-0.608-0.067-1.243-0.131-1.905-0.188
				l-0.516-0.049c-1.251,7.436-3.486,15.364-5.649,23.046c-0.389,1.406-0.801,2.856-1.194,4.253
				c-2.533,9.131-5.245,18.456-8.061,27.718c-5.486,18.03-11.78,36.395-18.717,54.557c-3.678,9.623-7.102,18.1-10.48,25.922
				c-2.986,6.932-6.778,14.885-12.309,21.404c-5.628,6.627-11.85,10.873-19.583,13.365c-6.728,2.162-14.633,3.09-26.431,3.09
				c-11.801,0-19.709-0.928-26.434-3.09c-7.734-2.492-13.961-6.738-19.58-13.365c-5.527-6.52-9.326-14.473-12.313-21.393
				c-3.384-7.834-6.808-16.311-10.48-25.934c-6.937-18.159-13.227-36.518-18.714-54.557c-2.813-9.254-5.521-18.581-8.065-27.718
				c-0.451-1.618-0.908-3.243-1.395-4.954c-2.152-7.56-4.361-15.362-5.456-22.345l-0.528,0.049c-0.66,0.057-1.289,0.12-1.898,0.188
				c1.353,8.757,4.462,18.808,6.932,27.71C31.998,67.948,34.696,77.202,37.497,86.43"/>
		</defs>
		<clipPath id="SVGID_51_">
			<use xlink:href="#SVGID_50_"  overflow="visible"/>
		</clipPath>
		
			<linearGradient id="SVGID_52_" gradientUnits="userSpaceOnUse" x1="-1151.7642" y1="1380.5435" x2="-1150.7642" y2="1380.5435" gradientTransform="matrix(209.713 0 0 175.7832 241562.3906 -242557.6719)">
			<stop  offset="0" style="stop-color:#FFFFFF"/>
			<stop  offset="0.54" style="stop-color:#FFFFFF"/>
			<stop  offset="1" style="stop-color:#FFFFFF"/>
		</linearGradient>
		<rect x="22.483" y="30.708" clip-path="url(#SVGID_51_)" fill="url(#SVGID_52_)" width="209.708" height="175.784"/>
	</g>
	<g>
		<defs>
			<path id="SVGID_53_" d="M229.1,30.632L229.1,30.632c-0.086,0.372-6.648,30.142-16.822,53.697
				c-10.532,24.384-29.286,43.86-33.387,47.345l-0.018,0.04c-0.146,0.403-0.58,1.595-0.58,1.595l1.021-0.76l0.193-0.151
				c5.174-4.164,23.441-24.083,33.64-47.697c10.065-23.307,16.624-52.726,16.89-53.963l0.009-0.03
				C229.745,30.682,229.425,30.659,229.1,30.632 M42.413,84.329c-10.187-23.583-16.751-53.376-16.819-53.7
				c-0.312,0.027-0.606,0.047-0.9,0.076l0.003,0.033c0.274,1.238,6.739,30.556,16.848,53.963
				c10.2,23.621,28.434,43.457,33.606,47.631l0.189,0.14c0,0.003,0.754,0.563,1.022,0.76c0,0-0.399-1.129-0.571-1.578
				C71.658,128.116,52.947,108.722,42.413,84.329z"/>
		</defs>
		<clipPath id="SVGID_54_">
			<use xlink:href="#SVGID_53_"  overflow="visible"/>
		</clipPath>
		
			<linearGradient id="SVGID_55_" gradientUnits="userSpaceOnUse" x1="-1144.5581" y1="1379.5825" x2="-1143.5581" y2="1379.5825" gradientTransform="matrix(0 212.512 -205.3522 0 283427.8125 243205.2813)">
			<stop  offset="0" style="stop-color:#575656"/>
			<stop  offset="0.02" style="stop-color:#535352"/>
			<stop  offset="0.02" style="stop-color:#535352"/>
			<stop  offset="0.04" style="stop-color:#4E4E4D"/>
			<stop  offset="0.12" style="stop-color:#383837"/>
			<stop  offset="0.54" style="stop-color:#1A1A18"/>
			<stop  offset="0.73" style="stop-color:#282827"/>
			<stop  offset="1" style="stop-color:#323231"/>
		</linearGradient>
		<rect x="24.693" y="30.629" clip-path="url(#SVGID_54_)" fill="url(#SVGID_55_)" width="205.352" height="102.68"/>
	</g>
</g>
</svg>
