<?xml version="1.0" encoding="utf-8"?>
<!-- Generator: Adobe Illustrator 14.0.0, SVG Export Plug-In . SVG Version: 6.00 Build 43363)  -->
<!DOCTYPE svg PUBLIC "-//W3C//DTD SVG 1.0//EN" "http://www.w3.org/TR/2001/REC-SVG-20010904/DTD/svg10.dtd">
<svg version="1.0" id="Capa_1" xmlns="http://www.w3.org/2000/svg" xmlns:xlink="http://www.w3.org/1999/xlink" x="0px" y="0px"
	 width="250px" height="250px" viewBox="0 0 250 250" enable-background="new 0 0 250 250" xml:space="preserve">
<linearGradient id="SVGID_1_" gradientUnits="userSpaceOnUse" x1="-2003.3091" y1="-883.2793" x2="-2003.3091" y2="-896.2112" gradientTransform="matrix(12.5 0 0 -12.5 25167.3359 -11009.6016)">
	<stop  offset="0.194" style="stop-color:#FFFFFF"/>
	<stop  offset="0.208" style="stop-color:#F8F8F8"/>
	<stop  offset="0.366" style="stop-color:#AEAEAE"/>
	<stop  offset="0.513" style="stop-color:#707070"/>
	<stop  offset="0.647" style="stop-color:#404040"/>
	<stop  offset="0.764" style="stop-color:#1D1D1D"/>
	<stop  offset="0.86" style="stop-color:#080808"/>
	<stop  offset="0.922" style="stop-color:#000000"/>
</linearGradient>
<path fill="url(#SVGID_1_)" d="M233.953,103.705c-2.144-0.599-4.529-0.882-9.557-1.501c-20.805-0.854-72.222-2.854-98.422-2.854
	s-77.617,1.998-98.42,2.854c-5.029,0.619-7.418,0.902-9.56,1.501c-6.542,1.543-7.98,3.891-7.98,8.575v32.109
	c0,4.686,5.02,7.842,8.48,8.479c3.462,0.641,5.653,0.898,9.295,1.244c18.607,1.152,61.779,3.555,98.184,3.594
	c36.404-0.035,79.574-2.439,98.183-3.594c3.642-0.346,5.833-0.604,9.297-1.244c3.459-0.637,8.479-3.793,8.479-8.479V112.28
	C241.933,107.595,240.494,105.248,233.953,103.705L233.953,103.705z"/>
<radialGradient id="SVGID_2_" cx="-2008.5176" cy="-879.8506" r="12.9376" gradientTransform="matrix(12.5 0 0 -12.5 25167.3359 -11009.6016)" gradientUnits="userSpaceOnUse">
	<stop  offset="0.202" style="stop-color:#FFFFFF"/>
	<stop  offset="0.382" style="stop-color:#FDFDFD"/>
	<stop  offset="0.487" style="stop-color:#F4F4F4"/>
	<stop  offset="0.573" style="stop-color:#E6E6E6"/>
	<stop  offset="0.648" style="stop-color:#D2D2D2"/>
	<stop  offset="0.689" style="stop-color:#C4C4C4"/>
	<stop  offset="1" style="stop-color:#333333"/>
</radialGradient>
<path fill="url(#SVGID_2_)" d="M42.541,104.967c10.237-35.611,43.873-61.74,83.802-61.74c39.813,0,73.38,25.985,83.717,61.454
	c0.032,0.125,0.055,0.19,0.09,0.311c5.936-0.667,11.252-1.697,15.009-2.699c-0.067-0.229-0.085-0.275-0.145-0.501
	c-11.747-42.249-51.474-73.339-98.671-73.339c-47.358,0-87.188,31.292-98.791,73.751C32.771,103.632,36.594,104.233,42.541,104.967
	L42.541,104.967z"/>
<radialGradient id="SVGID_3_" cx="-1977.2075" cy="-900.5737" r="26.9448" gradientTransform="matrix(12.5 0 0 -12.5 25167.3359 -11009.6016)" gradientUnits="userSpaceOnUse">
	<stop  offset="0.202" style="stop-color:#FFFFFF"/>
	<stop  offset="0.368" style="stop-color:#E4E4E4"/>
	<stop  offset="0.594" style="stop-color:#C4C4C4"/>
	<stop  offset="1" style="stop-color:#333333"/>
</radialGradient>
<path fill="url(#SVGID_3_)" d="M209.814,151.641c-0.103,0.316-0.217,0.666-0.271,0.84c-10.886,34.615-44.015,59.791-83.201,59.791
	c-39.495,0-72.833-25.564-83.454-60.598c-6.492,1.15-8.685,1.586-15.099,2.439c11.886,42.043,51.502,72.934,98.553,72.934
	c47.071,0,86.701-30.922,98.565-73C219.256,153.35,215.927,152.82,209.814,151.641L209.814,151.641z"/>
<radialGradient id="SVGID_4_" cx="-2005.4102" cy="-894.6274" r="8.2719" gradientTransform="matrix(12.5 0 0 -12.5 25167.3359 -11009.6016)" gradientUnits="userSpaceOnUse">
	<stop  offset="0.202" style="stop-color:#FFFFFF"/>
	<stop  offset="0.368" style="stop-color:#E4E4E4"/>
	<stop  offset="0.594" style="stop-color:#C4C4C4"/>
	<stop  offset="1" style="stop-color:#333333"/>
</radialGradient>
<path fill="url(#SVGID_4_)" d="M44.63,104.891c2.464-1.019,4.848-2.642,8.564-3.687c11.081-28.787,39.645-49.286,73.146-49.286
	c33.396,0,61.891,20.373,73.04,49.021c0.039,0.098,0.08,0.215,0.111,0.288c1.918,0.665,7.568,2.956,9.327,3.723
	c0.249,0.006,0.781,0.024,1.33,0.039c-0.031-0.103-0.063-0.206-0.09-0.311c-10.342-35.456-43.908-61.434-83.719-61.434
	c-39.917,0-73.554,26.117-83.794,61.722C43.138,104.967,44.264,104.917,44.63,104.891L44.63,104.891z"/>
<path fill="#FFFFFF" d="M125.705,45.653c37.354,0,70.466,22.273,83.008,58.987l0.103,0.312c0.194,0,0.906,0.026,1.331,0.04
	c-0.034-0.133-0.068-0.211-0.09-0.311c-10.341-35.457-43.908-61.434-83.72-61.434c-39.917,0-73.554,26.117-83.794,61.721
	c0.798-0.013,1.182-0.013,2.086-0.076C55.842,70.037,88.627,45.653,125.705,45.653L125.705,45.653z"/>
<radialGradient id="SVGID_5_" cx="-1998.7349" cy="-903.0854" r="15.6955" gradientTransform="matrix(12.5 0 0 -12.5 25167.3359 -11009.6016)" gradientUnits="userSpaceOnUse">
	<stop  offset="0.202" style="stop-color:#FFFFFF"/>
	<stop  offset="0.368" style="stop-color:#E4E4E4"/>
	<stop  offset="0.594" style="stop-color:#C4C4C4"/>
	<stop  offset="1" style="stop-color:#333333"/>
</radialGradient>
<path fill="url(#SVGID_5_)" d="M207.697,151.742c-2.683,1.5-6.024,2.941-8.694,3.783c-0.036,0.086-0.188,0.467-0.221,0.557
	c-11.552,27.855-39.634,47.52-72.439,47.52c-33.015,0-61.24-19.902-72.657-48.035c-3.072-0.852-7.664-2.945-9.402-3.82
	c-0.651-0.031-1.001-0.049-1.401-0.07c10.621,35.027,43.965,60.598,83.46,60.598c39.317,0,72.533-25.336,83.309-60.117
	c0.022-0.066,0.143-0.449,0.168-0.514C209.197,151.666,208.245,151.742,207.697,151.742L207.697,151.742z"/>
<radialGradient id="SVGID_6_" cx="-2003.4336" cy="-884.6816" r="12.473" gradientTransform="matrix(12.5 0 0 -12.5 25167.3359 -11009.6016)" gradientUnits="userSpaceOnUse">
	<stop  offset="0.202" style="stop-color:#FFFFFF"/>
	<stop  offset="0.397" style="stop-color:#FDFDFD"/>
	<stop  offset="0.51" style="stop-color:#F4F4F4"/>
	<stop  offset="0.603" style="stop-color:#E6E6E6"/>
	<stop  offset="0.684" style="stop-color:#D2D2D2"/>
	<stop  offset="0.728" style="stop-color:#C4C4C4"/>
	<stop  offset="1" style="stop-color:#4D4D4D"/>
</radialGradient>
<path fill="url(#SVGID_6_)" d="M232.094,106.03c-5.51-0.67-9.268-0.599-22.69-1.062c-0.609-0.021-1.23-0.04-1.859-0.063
	c-24.34-0.835-60.902-1.95-81.571-1.95c-20.667,0-57.228,1.115-81.571,1.95c-0.629,0.022-1.247,0.041-1.855,0.063
	c-13.426,0.463-17.182,0.392-22.693,1.062c-5.511,0.676-9.839,3.089-9.839,7.192v29.776c0,4.105,5.214,7.43,9.838,7.43
	c0,0,58.844,3.633,106.122,3.676c47.276-0.043,106.12-3.676,106.12-3.676c4.623,0,9.839-3.324,9.839-7.43v-29.776
	C241.933,109.119,237.604,106.706,232.094,106.03L232.094,106.03z"/>
<path fill="#FFFFFF" d="M207.697,151.742c-11.548,34.258-44.026,58.121-80.712,58.121c-37.06,0-69.943-21.924-82.705-58.121
	c-0.469-0.025-0.933-0.043-1.391-0.07c10.618,35.029,43.969,60.6,83.466,60.6c39.509,0,72.861-25.586,83.471-60.635
	C209.129,151.67,208.421,151.707,207.697,151.742L207.697,151.742z"/>
<path fill="#8C8C8C" d="M207.765,151.74l-0.07,0.002c-2.684,1.5-6.022,2.941-8.694,3.783c-0.036,0.086-0.188,0.467-0.22,0.557
	c-3.655,8.814-8.966,16.809-15.563,23.621C193.543,172.154,201.967,162.615,207.765,151.74L207.765,151.74z"/>
<path fill="#4D4D4D" d="M71.693,181.92c-7.768-7.398-13.95-16.354-18.009-26.355c-3.072-0.854-7.663-2.947-9.402-3.822
	c1.858,3.854,4.05,7.537,6.549,11.01c5.113,6.658,11.309,12.592,18.364,17.613C70.017,180.904,70.849,181.422,71.693,181.92
	L71.693,181.92z"/>
<path fill="#252525" d="M42.886,151.678v-0.004l-0.027,0.006c-6.47,1.146-8.666,1.586-15.071,2.434
	c0.516,1.834,1.087,3.639,1.71,5.426L42.886,151.678z"/>
<radialGradient id="SVGID_7_" cx="-2003.145" cy="-885.9302" r="8.4014" gradientTransform="matrix(12.5 0 0 -12.5 25167.3359 -11009.6016)" gradientUnits="userSpaceOnUse">
	<stop  offset="0.111" style="stop-color:#4D4D4D"/>
	<stop  offset="0.248" style="stop-color:#494949"/>
	<stop  offset="0.355" style="stop-color:#404040"/>
	<stop  offset="0.451" style="stop-color:#2F2F2F"/>
	<stop  offset="0.541" style="stop-color:#181818"/>
	<stop  offset="0.611" style="stop-color:#000000"/>
</radialGradient>
<path fill="url(#SVGID_7_)" d="M173.096,119.216c-1.935-4.323-1.248-3.87-5.458-3.98c-0.343-0.116-1.255-0.116-2.505-0.116
	c-1.248,0-1.478,0-2.503,0.116c-3.979,0-3.297-0.228-4.661,2.615c0,0-6.831,15.356-9.786,21.725l-0.113,0.229
	c-0.568,1.135-0.227,1.135,0.682,1.135h6.145c0.457,0,0.682-0.223,0.795-0.455c0,0,0.911-1.934,2.049-4.662h15.016
	c1.138,2.617,1.935,4.549,1.935,4.662c0.113,0.342,0.455,0.455,0.795,0.455h6.37c0.911,0,1.14,0.119,0.799-0.684
	C181.513,137.529,174.119,121.602,173.096,119.216L173.096,119.216z M160.012,130.361c1.935-4.547,3.87-8.983,3.87-9.098
	c0.115-0.229,0.343-0.343,0.683-0.343c0.115-0.116,0.457-0.116,0.798-0.116c0.229,0,0.566,0,0.682,0.116
	c0.227,0,0.458,0.114,0.567,0.456c0.459,1.249,2.161,5.118,3.753,8.985H160.012z M78.108,114.893c0.567,0,0.683,0.225,0.683,0.681
	v24.346c0,0.566-0.115,0.799-0.796,0.799h-5.916c-0.681,0-0.795-0.117-0.795-0.799v-24.346c0-0.456,0.114-0.681,0.567-0.681H78.108
	L78.108,114.893z M65.481,115.118c0.68,0,0.797,0.227,0.797,0.799v24.23c0,0.686-0.117,0.799-0.797,0.799h-6.941
	c-4.093,0-4.435,0-5.799-2.273c-2.844-4.436-11.377-17.517-11.377-17.517v18.994c0,0.686-0.114,0.797-0.794,0.797h-5.121
	c-0.682,0-0.797-0.111-0.797-0.797v-24.232c0-0.57,0.115-0.799,0.797-0.799h5.915c4.437,0,5.004-0.112,6.6,2.163
	c1.25,2.049,11.602,17.973,11.602,17.973v-19.337c0-0.57,0.114-0.799,0.798-0.799H65.481L65.481,115.118z M217.346,115.118
	c0.686,0,0.797,0.227,0.797,0.799v24.23c0,0.686-0.113,0.799-0.797,0.799h-6.933c-4.1,0-4.442,0-5.806-2.273
	c-2.848-4.439-11.378-17.52-11.378-17.52v18.997c0,0.684-0.114,0.795-0.798,0.795h-5.116c-0.682,0-0.799-0.111-0.799-0.795v-24.232
	c0-0.57,0.118-0.799,0.799-0.799h5.914c4.437,0,5.008-0.112,6.597,2.163c1.366,2.049,11.605,17.973,11.605,17.973v-19.337
	c0-0.57,0.114-0.799,0.798-0.799H217.346L217.346,115.118z M104.159,125.019c4.551,0.453,7.852,1.249,8.761,5.573
	c0,0.338,0.114,1.477,0.114,2.73c0,0.797,0,1.818-0.229,2.729c-0.794,4.094-3.868,4.891-8.644,4.891H85.047
	c-0.682,0-0.797-0.111-0.797-0.797v-4.094c0-0.684,0.115-0.797,0.797-0.797h19.337c0.798,0,1.025-0.227,1.138-0.797v-1.025v-0.682
	c-0.115-0.457-0.228-1.139-1.25-1.25c-2.163-0.113-8.531-0.684-12.856-1.139c-5.574-0.568-6.938-2.955-7.166-5.003
	c-0.114-0.685-0.114-1.594-0.114-2.39c0-0.684,0-1.706,0.114-2.504c0.798-3.643,3.528-5.347,8.304-5.347h18.542
	c0.685,0,0.913,0.116,0.913,0.684v4.211c0,0.564-0.229,0.794-0.913,0.68h-18.2c-0.796,0-1.136,0.342-1.252,1.138v1.023
	c0,0.569,0.342,1.024,1.138,1.135C94.946,124.22,101.655,124.788,104.159,125.019L104.159,125.019z M137.032,125.019
	c4.555,0.453,7.852,1.249,8.763,5.573c0,0.338,0.113,1.477,0.113,2.73c0,0.797,0,1.818-0.227,2.729
	c-0.794,4.094-3.865,4.891-8.645,4.891h-19.113c-0.684,0-0.799-0.111-0.799-0.797v-4.094c0-0.684,0.115-0.797,0.799-0.797h19.34
	c0.795,0,1.019-0.227,1.136-0.797v-1.025v-0.682c-0.119-0.457-0.344-1.139-1.252-1.25c-2.161-0.113-8.531-0.684-12.854-1.139
	c-5.576-0.568-6.825-2.955-7.169-5.003c-0.113-0.685-0.113-1.594-0.113-2.39c0-0.684,0-1.706,0.113-2.504
	c0.799-3.643,3.528-5.347,8.304-5.347h18.546c0.68,0,0.91,0.116,0.91,0.684v4.211c0,0.564-0.23,0.794-0.91,0.68h-18.203
	c-0.795,0-1.135,0.342-1.251,1.138v1.023c0,0.569,0.229,1.024,1.14,1.135C127.821,124.22,134.531,124.788,137.032,125.019
	L137.032,125.019z"/>
</svg>
