<?xml version="1.0" encoding="utf-8"?>
<!-- Generator: Adobe Illustrator 14.0.0, SVG Export Plug-In . SVG Version: 6.00 Build 43363)  -->
<!DOCTYPE svg PUBLIC "-//W3C//DTD SVG 1.0//EN" "http://www.w3.org/TR/2001/REC-SVG-20010904/DTD/svg10.dtd">
<svg version="1.0" id="Capa_1" xmlns="http://www.w3.org/2000/svg" xmlns:xlink="http://www.w3.org/1999/xlink" x="0px" y="0px"
	 width="250px" height="250px" viewBox="0 0 250 250" enable-background="new 0 0 250 250" xml:space="preserve">
<path fill="#CC2229" d="M126.48,132.271H56.203l-34.835,61.164h70.48L126.48,132.271L126.48,132.271z M162.188,69.527L127.05,7.755
	L91.81,69.527l35.24,61.872L162.188,69.527z M162.151,193.436h70.48l-34.836-61.164h-70.277L162.151,193.436z"/>
<path d="M159.025,241.359h5.264v-28.115h-5.264V241.359z M218.05,241.359h5.265v-28.115h-5.265V241.359z M60.107,241.359h5.263
	v-28.115h-5.263V241.359z M85.487,213.244H69.209v4.768h5.426v23.348h5.426v-23.348h5.426V213.244L85.487,213.244z M207.513,223.932
	h-11.852v-10.688h-5.263v28.115h5.263v-12.66h11.852v12.66h5.26v-28.115h-5.26V223.932z M43.119,225.822l-4.934-12.578h-6.083
	v28.115h5.261v-17.428l5.756,13.975l5.59-14.139v17.592h5.26v-28.115h-5.918L43.119,225.822L43.119,225.822z M130.075,213.248
	h-5.214v20.057c0,2.184-2.446,3.953-4.628,3.953s-4.628-1.77-4.628-3.953v-20.057h-5.311l0.078,19.813
	c0,5.072,4.787,9.184,9.859,9.184c5.073,0,9.86-4.111,9.86-9.184L130.075,213.248L130.075,213.248z M150.368,226.152
	c0.739-0.494,3.535-2.139,3.535-5.672c0-4.936-3.946-7.152-6.577-7.234h-12.19v28.115h10.791c4.276,0,8.879-2.055,8.879-7.48
	C154.807,229.193,152.589,227.383,150.368,226.152L150.368,226.152z M146.176,236.592h-5.773v-18.58h5.527
	c1.481,0,2.632,1.234,2.632,2.713c0,1.48-0.575,3.207-2.549,3.207h-2.298v4.77h2.462c1.482,0,3.535,1.398,3.455,4.273
	C149.559,235.441,147.573,236.592,146.176,236.592L146.176,236.592z M87.594,232.234c-0.042,0.287,0,0.617,0.019,1.15
	c0,4.85,3.929,8.533,8.777,8.533c4.847,0,8.777-3.271,8.777-8.121c0-2.551-1-4.521-2.735-6.125
	c-1.418-1.309-5.456-3.271-7.029-4.234c-1.48-0.904-2.179-1.602-2.214-2.918c0-1.926,1.273-3.283,3.201-3.283
	c1.926,0,3.488,1.563,3.488,3.488l0,0c0.035,0.496,0.047,0.988,0.047,1.316h4.662v-1.316c0-4.525-2.853-8.113-8.197-8.113
	c-4.527,0-8.197,3.1-8.197,8.113c0.017,2.221,1.044,4.357,3.593,6.043c2.739,1.811,6.166,3.164,7.316,4.316
	c0.695,0.693,1.125,1.652,1.125,2.711c0,2.119-1.718,3.633-3.838,3.633c-2.119,0-3.822-1.865-4.083-3.633
	c-0.056-0.451-0.192-1.23-0.15-1.561H87.594L87.594,232.234L87.594,232.234z M176.463,223.438c-1.481-0.904-2.179-1.602-2.217-2.918
	c0-1.926,1.276-3.283,3.203-3.283c1.925,0.002,3.485,1.564,3.485,3.488c0.036,0.496,0.049,0.988,0.049,1.316h4.661v-1.316
	c0-4.525-2.854-8.113-8.195-8.113c-4.528,0-8.198,3.1-8.198,8.113c0.018,2.221,1.045,4.357,3.593,6.043
	c2.74,1.811,6.167,3.164,7.317,4.316c0.693,0.693,1.123,1.652,1.123,2.711c0,2.119-1.719,3.633-3.837,3.633
	c-2.119,0-3.823-1.865-4.086-3.633c-0.054-0.451-0.19-1.23-0.149-1.561h-4.563c-0.041,0.287,0,0.617,0.02,1.15
	c0,4.848,3.929,8.531,8.778,8.531c4.848,0,8.776-3.271,8.776-8.121c0-2.551-0.998-4.52-2.734-6.125
	C182.073,226.363,178.034,224.4,176.463,223.438L176.463,223.438z"/>
</svg>
