<?xml version="1.0" encoding="utf-8"?>
<!-- Generator: Adobe Illustrator 14.0.0, SVG Export Plug-In . SVG Version: 6.00 Build 43363)  -->
<!DOCTYPE svg PUBLIC "-//W3C//DTD SVG 1.0//EN" "http://www.w3.org/TR/2001/REC-SVG-20010904/DTD/svg10.dtd">
<svg version="1.0" id="Capa_1" xmlns="http://www.w3.org/2000/svg" xmlns:xlink="http://www.w3.org/1999/xlink" x="0px" y="0px"
	 width="250px" height="250px" viewBox="0 0 250 250" enable-background="new 0 0 250 250" xml:space="preserve">
<linearGradient id="SVGID_1_" gradientUnits="userSpaceOnUse" x1="-1012.436" y1="-1119.5186" x2="-1012.436" y2="-1098.3483" gradientTransform="matrix(8.8194 0 0 8.8194 9051.9072 9878.6113)">
	<stop  offset="0.118" style="stop-color:#EFC139"/>
	<stop  offset="0.343" style="stop-color:#F9DD3E"/>
	<stop  offset="0.477" style="stop-color:#F8DA3E"/>
	<stop  offset="0.612" style="stop-color:#F5D13C"/>
	<stop  offset="0.745" style="stop-color:#F0C23A"/>
	<stop  offset="0.758" style="stop-color:#EFC139"/>
	<stop  offset="1" style="stop-color:#F9DD3E"/>
</linearGradient>
<path fill="url(#SVGID_1_)" d="M195.228,96.621c-13.516-29.003-30.57-59.846-47.997-87.329c-0.875-1.394-1.377-2.005-3.22-2.005
	h-42.196c-2.025,0-3.087,0.865-3.785,2.005c-17.345,28.344-33.283,57.847-47.833,87.73c-0.541,1.109-0.599,2.048,0.165,3.608
	c12.37,25.357,30.539,59.707,48.193,87.733c0.878,1.4,1.833,1.611,2.98,1.611h43.022c1.381,0,2.456-0.36,3.224-1.611
	c15.561-25.305,34.55-60.585,47.689-88.132C195.98,99.174,195.967,98.21,195.228,96.621L195.228,96.621z M194.039,100.211
	c-12.886,27.282-31.799,62.212-47.051,87.273c-0.751,1.229-1.808,1.578-3.151,1.578h-41.613c-1.124,0-2.054-0.202-2.922-1.578
	c-17.297-27.757-35.392-61.768-47.517-86.876c-0.747-1.546-0.69-2.476-0.16-3.572C65.884,67.445,81.512,38.24,98.512,10.171
	c0.681-1.125,1.726-1.982,3.711-1.982h41.372c1.798,0,2.295,0.608,3.162,1.982c17.073,27.217,33.798,57.749,47.048,86.471
	C194.529,98.212,194.534,99.165,194.039,100.211L194.039,100.211z"/>
<linearGradient id="SVGID_2_" gradientUnits="userSpaceOnUse" x1="-1019.1865" y1="-1112.085" x2="-1005.6733" y2="-1105.7836" gradientTransform="matrix(8.8194 0 0 8.8194 9051.9072 9878.6113)">
	<stop  offset="0.86" style="stop-color:#131313"/>
	<stop  offset="1" style="stop-color:#595031"/>
</linearGradient>
<path fill="url(#SVGID_2_)" d="M194.401,96.482c-13.363-28.764-30.226-59.352-47.449-86.609c-0.869-1.383-1.368-1.986-3.18-1.986
	h-41.721c-2,0-3.051,0.854-3.74,1.986C81.167,37.988,65.405,67.244,51.027,96.885c-0.534,1.102-0.594,2.027,0.161,3.576
	c12.233,25.155,30.472,59.214,47.921,87.011c0.874,1.384,1.813,1.591,2.942,1.591h41.955c1.369,0,2.432-0.352,3.183-1.591
	c15.389-25.099,34.457-60.092,47.451-87.408C195.141,99.01,195.128,98.053,194.401,96.482L194.401,96.482z M122.992,149.33
	c-0.154-0.311-0.309-0.631-0.475-0.946v3.54c-8.761-15.583-19.503-36.604-26.832-53.446c7.789-17.341,17.678-36.895,27.388-54.911
	v4.527c0.083-0.156,0.159-0.314,0.24-0.474c6.762,14.195,16.799,36.092,22.444,50.14
	C140.015,111.254,129.444,136.341,122.992,149.33z"/>
<linearGradient id="SVGID_3_" gradientUnits="userSpaceOnUse" x1="-1010.4819" y1="-1118.9272" x2="-1003.7044" y2="-1109.2478" gradientTransform="matrix(8.8194 0 0 8.8194 9051.9072 9878.6113)">
	<stop  offset="0" style="stop-color:#000000"/>
	<stop  offset="0.012" style="stop-color:#413500"/>
	<stop  offset="0.028" style="stop-color:#5F512A"/>
	<stop  offset="0.045" style="stop-color:#736540"/>
	<stop  offset="0.061" style="stop-color:#82744F"/>
	<stop  offset="0.078" style="stop-color:#8B7D59"/>
	<stop  offset="0.096" style="stop-color:#8E805C"/>
	<stop  offset="0.5" style="stop-color:#B8AD91"/>
	<stop  offset="0.607" style="stop-color:#B4A98C"/>
	<stop  offset="0.721" style="stop-color:#A99D7E"/>
	<stop  offset="0.837" style="stop-color:#988B69"/>
	<stop  offset="0.893" style="stop-color:#8E805C"/>
	<stop  offset="0.961" style="stop-color:#8E805C"/>
</linearGradient>
<path fill="url(#SVGID_3_)" d="M142.845,8.345c1.821,0,2.309,0.605,3.186,1.988c17.226,27.256,34.545,58.305,47.909,87.072
	c0.302,0.649,0.937,1.188,1.006,1.68c0.113-0.726-0.041-1.518-0.545-2.603c-13.364-28.764-30.228-59.352-47.449-86.609
	c-0.869-1.383-1.369-1.986-3.181-1.986L142.845,8.345L142.845,8.345z"/>
<path d="M144.335,97.942c-6.493-15.653-13.802-31.702-21.262-47.434V44.2c8.812,16.017,21.519,41.013,27.2,53.741L144.335,97.942z"
	/>
<path fill="#3C362E" d="M144.335,97.942h5.938c-8.367,18.053-17.641,35.368-27.758,53.966v-6.469
	C130.432,129.785,137.353,114.946,144.335,97.942L144.335,97.942z"/>
<linearGradient id="SVGID_4_" gradientUnits="userSpaceOnUse" x1="-1014.0015" y1="-1108.9824" x2="-1014.0015" y2="-1102.8716" gradientTransform="matrix(8.8194 0 0 8.8194 9051.9072 9878.6113)">
	<stop  offset="0.253" style="stop-color:#DCDAC4"/>
	<stop  offset="0.54" style="stop-color:#C5C0AC"/>
	<stop  offset="0.77" style="stop-color:#BEB8A4"/>
	<stop  offset="0.82" style="stop-color:#AFAA97"/>
</linearGradient>
<path fill="url(#SVGID_4_)" d="M95.477,98.016h5.614c6.258,15.49,13.235,31.214,21.423,47.423v6.469
	C113.689,136.258,102.857,114.946,95.477,98.016L95.477,98.016z"/>
<linearGradient id="SVGID_5_" gradientUnits="userSpaceOnUse" x1="-1013.7041" y1="-1109.0864" x2="-1014.2283" y2="-1115.0781" gradientTransform="matrix(8.8194 0 0 8.8194 9051.9072 9878.6113)">
	<stop  offset="0.59" style="stop-color:#867A5C"/>
	<stop  offset="0.691" style="stop-color:#6A6044"/>
</linearGradient>
<path fill="url(#SVGID_5_)" d="M95.477,98.016c7.843-17.425,17.82-37.07,27.596-55.17v7.662
	c-8.343,16.372-15.804,32.254-21.981,47.508H95.477L95.477,98.016z"/>
<linearGradient id="SVGID_6_" gradientUnits="userSpaceOnUse" x1="-1012.9819" y1="-1102.7549" x2="-1012.9819" y2="-1119.0313" gradientTransform="matrix(8.8194 0 0 8.8194 9051.9072 9878.6113)">
	<stop  offset="0.376" style="stop-color:#FFFFFF"/>
	<stop  offset="0.393" style="stop-color:#F2EFE8"/>
</linearGradient>
<path fill="url(#SVGID_6_)" d="M141.448,10.27c-14.219,23.938-32.979,58.888-45.97,87.747c7.38,16.93,18.212,38.242,27.039,53.892
	l-0.562,1.036c-8.824-15.644-20.222-37.999-27.596-54.928c13.152-29.226,32.244-64.669,46.53-88.623
	C141.511,9.393,141.819,9.647,141.448,10.27L141.448,10.27z"/>
<g>
	<defs>
		<path id="SVGID_7_" d="M151.319,98.016h40.271c1.131,0,1.265,0.474,0.805,1.434c-13.111,27.447-30.685,60.533-46.186,85.746
			c-0.754,1.251-1.912,1.598-3.286,1.598h-38.465C123.881,153.4,138,126.763,151.319,98.016z"/>
	</defs>
	<clipPath id="SVGID_8_">
		<use xlink:href="#SVGID_7_"  overflow="visible"/>
	</clipPath>
	<g clip-path="url(#SVGID_8_)">
		
			<image overflow="visible" enable-background="new    " width="104" height="133" xlink:href="C7B8FAEF.png"  transform="matrix(1.0071 0 0 1.0071 98.5874 76.041)">
		</image>
	</g>
</g>
<path fill="#695B35" d="M94.357,98.016c7.375,16.93,18.772,39.285,27.596,54.928c-5.935,11.184-13.4,23.651-19.661,33.693
	c-0.594-0.202-1.08-0.607-1.599-1.441c-17.544-27.854-34.534-59.916-46.859-85.186c-0.386-0.799-0.545-1.414-0.561-1.995H94.357z"/>
<g>
	<defs>
		<path id="SVGID_9_" d="M94.357,98.016c7.375,16.93,18.772,39.285,27.596,54.928c-5.935,11.184-13.4,23.651-19.661,33.693
			c-0.594-0.202-1.08-0.607-1.599-1.441c-17.544-27.854-34.534-59.916-46.859-85.186c-0.386-0.799-0.545-1.414-0.561-1.995H94.357z"
			/>
	</defs>
	<clipPath id="SVGID_10_">
		<use xlink:href="#SVGID_9_"  overflow="visible"/>
	</clipPath>
	<g clip-path="url(#SVGID_10_)">
		
			<image overflow="visible" enable-background="new    " width="77" height="112" xlink:href="C7B8FAED.png"  transform="matrix(1.0071 0 0 1.0071 51.2559 81.0762)">
		</image>
	</g>
</g>
<g>
	<defs>
		<path id="SVGID_11_" d="M192.557,98.016c1.125,0,1.616-0.421,0.881-1.995c-13.467-28.909-29.579-58.28-46.934-85.67
			c-0.876-1.387-2.088-1.276-3.049,0.164c-3.527,5.265-14.8,24.248-19.615,33.189c8.828,15.968,21.701,41.378,27.48,54.313
			C151.319,98.016,176.833,98.016,192.557,98.016L192.557,98.016z"/>
	</defs>
	<clipPath id="SVGID_12_">
		<use xlink:href="#SVGID_11_"  overflow="visible"/>
	</clipPath>
	<g clip-path="url(#SVGID_12_)">
		
			<image overflow="visible" enable-background="new    " width="76" height="123" xlink:href="C7B8FAF3.png"  transform="matrix(1.0071 0 0 1.0071 118.7275 7.561)">
		</image>
	</g>
</g>
<g>
	<defs>
		<path id="SVGID_13_" d="M53.674,96.417C68.16,66.64,82.602,39.639,99.887,11.387c0.694-1.131,2.165-1.994,3.77-1.994h37.23
			c-14.285,23.954-33.378,59.398-46.53,88.623H53.273C53.26,97.453,53.41,96.955,53.674,96.417z"/>
	</defs>
	<clipPath id="SVGID_14_">
		<use xlink:href="#SVGID_13_"  overflow="visible"/>
	</clipPath>
	<g clip-path="url(#SVGID_14_)">
		
			<image overflow="visible" enable-background="new    " width="107" height="144" xlink:href="C7B8FAF5.png"  transform="matrix(1.0071 0 0 1.0071 45.2134 -12.5801)">
		</image>
	</g>
</g>
<linearGradient id="SVGID_15_" gradientUnits="userSpaceOnUse" x1="-1015.0337" y1="-1118.918" x2="-1010.3848" y2="-1118.918" gradientTransform="matrix(8.8194 0 0 8.8194 9051.9072 9878.6113)">
	<stop  offset="0" style="stop-color:#C6C7C9"/>
	<stop  offset="0.439" style="stop-color:#D3D2CF"/>
	<stop  offset="1" style="stop-color:#E9E4DA"/>
</linearGradient>
<path fill="url(#SVGID_15_)" d="M103.417,9.972h36.191c0.638,0,0.722,0.121,0.722,0.379l0.56-0.958h-37.23
	c-1.605,0-3.076,0.862-3.77,1.994C100.53,10.729,101.415,9.972,103.417,9.972L103.417,9.972z"/>
<path fill="#FFFFFF" d="M192.557,98.016c1.125,0,1.616-0.421,0.881-1.995c-13.467-28.909-29.579-58.28-46.934-85.67
	c-0.876-1.387-2.088-1.276-3.049,0.164c0.643-0.324,1.124-0.454,1.766,0.554c17.411,27.307,33.467,56.768,46.936,85.671
	C192.543,97.617,192.557,98.016,192.557,98.016L192.557,98.016z"/>
<linearGradient id="SVGID_16_" gradientUnits="userSpaceOnUse" x1="-1011.1509" y1="-1102.5283" x2="-1003.2401" y2="-1105.4076" gradientTransform="matrix(8.8194 0 0 8.8194 9051.9072 9878.6113)">
	<stop  offset="0" style="stop-color:#FFFFFF"/>
	<stop  offset="0.472" style="stop-color:#FBFAF7"/>
	<stop  offset="0.76" style="stop-color:#F1EEE7"/>
	<stop  offset="0.998" style="stop-color:#E4DED2"/>
	<stop  offset="1" style="stop-color:#E4DED1"/>
</linearGradient>
<path fill="url(#SVGID_16_)" d="M192.395,99.45c-13.117,27.43-30.695,60.523-46.186,85.746c-0.416,0.69-0.666,0.854-0.775,0.758
	c-0.07-0.061,0.031-0.189,0.38-0.758c15.486-25.225,33.062-58.316,46.183-85.746c0.231-0.485,0.398-0.979,0.561-0.96
	C192.729,98.515,192.612,98.998,192.395,99.45L192.395,99.45z"/>
<g>
	<path d="M210.612,218.477h0.894c0.749-1.49,2.218-2.413,4.016-2.413h6.331v29.352h9.556v-29.352h6.334
		c1.8,0,3.27,0.923,4.015,2.413h0.895v-6.393h-32.039V218.477z M211.04,241.405h-10.217v-29.319h-11.571v0.893
		c1.253,0.819,2.023,2.249,2.023,4.012v28.427h24.645v-6.403h-0.861C214.31,240.506,212.843,241.405,211.04,241.405z
		 M176.543,212.979c1.257,0.819,1.994,2.249,1.994,4.012v12.803c0,6.457-2.219,9.985-8.09,9.985c-5.884,0-8.064-3.528-8.064-9.985
		v-17.707h-11.571v0.893c1.253,0.819,2.019,2.249,2.019,4.012v14.527c0,8.104,5.063,14.559,14.994,14.559
		c10.975,0,15.521-4.945,15.521-15.782v-18.208h-6.802V212.979L176.543,212.979z M148.914,242.032l-12.834-29.946h-7.429
		l-14.497,33.331h5.608l3.118-7.63h14.065l2.951,7.63h11.511v-0.898C150.352,244.111,149.41,243.181,148.914,242.032
		L148.914,242.032z M124.535,233.77l5.544-12.965l5.273,12.965H124.535L124.535,233.77z M103.801,212.979
		c1.265,0.819,1.999,2.249,1.999,4.012v19.662l-15.098-24.568H77.835v0.892c1.255,0.82,2.023,2.249,2.023,4.013v28.425h4.775
		v-24.545l15.126,24.545h10.848v-33.329h-6.805L103.801,212.979L103.801,212.979z M68.314,241.405H57.107v-11.183h12.668v-4.019
		H57.107v-10.14h10.809c1.765,0,3.202,0.764,4.012,2.021h0.866v-5.999H45.562v0.893c1.254,0.819,1.99,2.249,1.99,4.011v28.428
		h25.675v-6.172H72.33C71.584,240.64,70.286,241.405,68.314,241.405z M40.585,242.499l-8.193-12.312
		c4.078-1.285,7.266-4.704,7.266-9.084c0-5.775-4.383-9.019-11.145-9.019H7.349v0.893c1.261,0.819,2.025,2.249,2.025,4.012v28.427
		h9.551v-14.161h3.583l7.892,14.161h12.738v-0.898C42.095,244.133,41.2,243.426,40.585,242.499z M23.072,227.57h-4.146V215.8h4.146
		c3.467,0,6.468,1.819,6.468,5.77C29.541,225.548,26.776,227.57,23.072,227.57L23.072,227.57z"/>
</g>
</svg>
