<?xml version="1.0" encoding="utf-8"?>
<!-- Generator: Adobe Illustrator 14.0.0, SVG Export Plug-In . SVG Version: 6.00 Build 43363)  -->
<!DOCTYPE svg PUBLIC "-//W3C//DTD SVG 1.0//EN" "http://www.w3.org/TR/2001/REC-SVG-20010904/DTD/svg10.dtd">
<svg version="1.0" id="Capa_1" xmlns="http://www.w3.org/2000/svg" xmlns:xlink="http://www.w3.org/1999/xlink" x="0px" y="0px"
	 width="250px" height="250px" viewBox="0 0 250 250" enable-background="new 0 0 250 250" xml:space="preserve">
<path d="M8,67.586v114.828h237.795V67.586H8z"/>
<path fill="#A7B4BD" d="M64.31,116.61c-4.771-4.458-14.08-5.006-17.13-2.426c-3.169,2.682-2.738,5.946,1.329,7.197
	c4.067,1.25,10.873,0.469,15.252,2.189c9.801,3.849,8.058,16.738-2.581,20.182c-10.639,3.44-19.321,0.703-26.283-5.084l5.398-5.24
	c4.849,4.146,9.387,6.256,17.443,4.534c6.309-1.349,5.319-8.291-0.938-8.447c-8.242-0.205-11.867-1.229-14.784-2.581
	c-7.604-3.523-6.517-16.273,3.128-19.163c11.81-3.54,18.088-0.137,24.13,4.027L64.31,116.61L64.31,116.61z M74.557,144.38H82.3
	v-24.562c0-4.226,3.678-6.571,6.415-6.571c3.834,0,6.727,2.581,6.727,6.805v24.326h7.666v-24.326c0-3.051,2.425-6.963,6.648-6.963
	c2.738,0,6.492,2.034,6.492,5.945v25.264h7.901v-25.499c0-7.274-7.666-12.711-14.081-12.711s-10.639,5.437-10.717,5.437
	c-3.207-3.832-7.041-5.476-11.263-5.476c-4.226,0-13.533,3.363-13.533,13.533L74.557,144.38L74.557,144.38z M145.27,106.129
	l0.078,7.666c-5.71,1.096-9.15,6.884-9.15,11.889c0,7.197,5.866,11.969,12.358,11.969c6.493,0,11.343-5.085,11.655-9.699
	c0.281-4.137,0.156-6.181-1.721-8.839l7.117-3.99c2.35,3.521,2.975,7.431,2.975,10.168v18.774h-7.59v-3.362
	c-4.222,3.284-7.978,4.302-12.124,4.302c-4.146,0-20.181-2.346-20.181-20.18C128.687,109.728,145.27,106.129,145.27,106.129
	L145.27,106.129z"/>
<path fill="#ECB731" d="M168.425,110.314l-20.22-11.578v22.998L168.425,110.314z"/>
<path fill="#A7B4BD" d="M192.28,106.677v7.313c0,0-0.236-0.079-3.128-0.079c-2.894,0-7.04,2.034-7.04,6.414v23.938h-7.59v-24.172
	c0-8.369,7.746-13.414,14.706-13.414H192.28z M204.562,99.011h-7.666v33.244c0,6.728,5.007,11.812,13.143,11.812h6.256v-6.961
	h-4.615c-3.597,0-6.961-1.487-6.961-6.65v-16.582h9.465v-7.275h-9.465L204.562,99.011L204.562,99.011z"/>
</svg>
