<?xml version="1.0" encoding="utf-8"?>
<!-- Generator: Adobe Illustrator 14.0.0, SVG Export Plug-In . SVG Version: 6.00 Build 43363)  -->
<!DOCTYPE svg PUBLIC "-//W3C//DTD SVG 1.1//EN" "http://www.w3.org/Graphics/SVG/1.1/DTD/svg11.dtd">
<svg version="1.1" id="Capa_1" xmlns="http://www.w3.org/2000/svg" xmlns:xlink="http://www.w3.org/1999/xlink" x="0px" y="0px"
	 width="250px" height="250px" viewBox="0 0 250 250" enable-background="new 0 0 250 250" xml:space="preserve">
<linearGradient id="SVGID_1_" gradientUnits="userSpaceOnUse" x1="579.9551" y1="1167.5684" x2="704.6637" y2="1167.5684" gradientTransform="matrix(1.2136 0 0 1.2136 -653.9426 -1305.5988)">
	<stop  offset="0" style="stop-color:#E1BE78"/>
	<stop  offset="1" style="stop-color:#E3AB36"/>
</linearGradient>
<path fill="url(#SVGID_1_)" d="M200.723,28.322c-7.832-3.033-15.922-5.808-24.013-7.83c-11.381-2.775-22.735-4.54-34.376-5.55
	c-5.55-0.493-10.863-0.753-16.438-0.753h-0.492c-5.809,0-10.864,0.26-16.438,0.753c-11.616,0.987-22.972,2.75-34.353,5.55
	c-8.09,2.022-16.18,4.797-24.011,7.83c-0.258,0.257-0.492,0.257-0.492,0.257s1.009,58.648,1.761,87.709
	c0.261,8.583,1.766,16.931,4.54,25.021c3.292,9.104,7.83,17.941,13.146,26.03c5.547,8.347,12.389,15.921,20.222,22.246
	c3.032,2.515,6.324,4.795,9.592,7.077c5.316,3.291,10.865,6.066,16.437,8.347c1.765,0.755,3.526,1.507,5.056,2.021
	c1.505,0.496,3.035,1.014,4.798,1.508c1.505-0.494,3.292-0.755,4.799-1.508c1.504-0.493,3.031-1.268,5.056-2.021
	c5.808-2.278,11.121-5.056,16.437-8.347c3.292-2.021,6.56-4.54,9.594-7.077c7.829-6.325,14.647-13.899,20.222-22.246
	c5.315-8.089,9.854-16.928,13.146-26.03c2.772-8.09,4.304-16.437,4.54-25.021c0.752-29.061,1.762-87.709,1.762-87.709
	C200.979,28.322,200.979,28.322,200.723,28.322z"/>
<path fill="#B12B28" d="M123.638,177.428h-42.96c3.292,3.525,6.561,6.821,10.372,9.854c3.033,2.516,6.064,4.797,9.357,6.819
	c5.057,3.032,10.371,5.808,15.918,8.088c1.765,0.752,3.294,1.506,4.8,2.021c1.009,0.258,2.022,0.752,2.774,1.014L123.638,177.428z
	 M123.638,145.331c-6.561-0.494-12.625-3.034-17.445-7.337c-0.26-0.26-0.497-0.492-1.013-0.753h-47.5
	c0.261,1.013,0.753,2.022,1.013,3.034c1.763,5.056,4.043,10.11,6.561,14.647h58.384V145.331L123.638,145.331z M197.193,96.046
	h-41.949v18.458h41.453C196.934,109.188,196.934,102.886,197.193,96.046L197.193,96.046z M197.947,57.645h-71.532v17.683h71.271
	C197.686,69.262,197.686,63.195,197.947,57.645z"/>
<g>
	<path fill="#613E18" d="M197.193,133.714c-1.012,3.788-2.281,7.339-2.281,7.339c-3.291,9.1-7.829,17.94-13.145,26.029
		c-5.551,8.348-12.394,15.919-20.223,22.244c-3.033,2.516-6.327,4.798-9.594,7.076c-5.314,3.293-10.865,6.068-16.436,8.35
		c-1.768,0.752-3.531,1.507-5.057,2.021c-1.507,0.494-3.036,1.01-4.799,1.504c-1.505-0.494-3.292-0.752-4.798-1.504
		c-1.504-0.494-3.034-1.271-5.056-2.021c-5.809-2.281-11.121-5.057-16.437-8.35c-3.291-2.021-6.561-4.535-9.592-7.076
		c-6.561-5.313-12.392-11.383-17.448-18.2l0.259,0.26c5.056,7.077,11.122,13.404,17.684,18.694c3.034,2.514,6.324,4.796,9.851,7.077
		c5.056,3.291,10.372,6.065,15.92,8.347c1.764,0.755,3.527,1.507,5.056,2.021c1.53,0.519,3.034,1.013,4.795,1.507
		c1.506-0.494,3.295-1.013,4.799-1.507s3.033-1.268,5.054-2.021c5.812-2.281,11.123-5.056,16.438-8.347
		c3.291-2.023,6.56-4.538,9.594-7.077c7.83-6.327,14.65-13.896,20.222-22.246c5.315-8.089,9.851-16.93,13.146-26.029
		C195.664,139.264,196.418,136.486,197.193,133.714L197.193,133.714z M198.439,31.85c-0.26,0-0.26-0.26-0.492-0.26h-0.262
		c-7.572-3.034-15.424-5.549-23.256-7.572c-10.861-2.515-21.986-4.538-33.107-5.314c-5.551-0.494-10.371-0.752-15.918-0.752h-0.495
		c-5.55,0-10.37,0.259-15.918,0.752c-11.124,1.011-22.245,2.775-33.109,5.314c-7.83,2.023-15.426,4.538-22.998,7.572
		c-0.627-0.213-0.26-0.752-0.26-0.752l0.497-0.257c7.569-3.034,15.165-5.55,22.997-7.573c10.862-2.515,21.985-4.538,33.107-5.314
		c5.55-0.493,10.37-0.752,15.917-0.752h0.497c5.549,0,10.369,0.259,15.92,0.752c11.121,1.011,22.242,2.775,33.105,5.314
		c7.831,2.023,15.66,4.539,23.258,7.573h0.258c0.26,0,0.26,0.257,0.494,0.257L198.439,31.85z M123.638,38.925
		c-4.795,0-9.357,0.262-14.413,0.754c-11.123,1.012-22.246,2.776-33.107,5.315c-7.832,2.022-15.662,4.538-23.258,7.569v-1.007
		c7.572-3.036,15.167-5.552,23.258-7.574c10.862-2.514,21.985-4.538,33.107-5.313c4.798-0.497,9.357-0.497,14.413-0.752V38.925z"/>
</g>
<path fill="#432918" d="M177.229,148.882v0.492c0,0.26,0,0.26-0.258,0.497c-1.766,0.492-3.293,1.268-4.539,2.279l-0.259,0.258
	v-0.258c0-0.258,0.259-0.494,0.494-0.752C173.68,150.387,175.206,149.634,177.229,148.882
	C177.229,149.119,177.229,149.119,177.229,148.882L177.229,148.882z M168.881,144.084c-1.27,0.495-2.518,1.505-3.525,2.518
	c-0.752,0.752-1.271,1.504-1.504,2.519v0.255c0.258-0.752,0.752-1.506,1.504-2.279c1.01-1.012,2.281-2.022,3.525-2.516l0.26-0.26
	L168.881,144.084z M160.039,142.297c-1.762,1.012-3.527,2.773-4.535,4.799c-0.497,1.01-0.753,2.023-0.753,3.291v0.258
	c0-1.011,0.256-2.021,0.753-3.031c1.008-2.023,2.514-3.528,4.303-4.54c0.256-0.492,0.256-0.753,0.256-1.269
	C160.273,142.061,160.273,142.061,160.039,142.297z M148.658,144.579c-0.752,0.491-1.27,1.271-1.762,2.021
	c-1.015,1.765-1.506,3.786-1.271,5.809c0-1.766,0.492-3.526,1.271-5.057c0.492-0.752,1.01-1.504,1.504-2.021
	C148.658,145.07,148.658,144.837,148.658,144.579L148.658,144.579z M130.197,159.745
	C130.197,159.745,130.461,159.745,130.197,159.745c-0.752-0.752-1.266-1.765-1.266-2.517c-0.262,1.013,0.26,2.021,1.012,2.773
	C129.967,160.003,130.197,160.003,130.197,159.745z M168.623,122.851c-1.27,0.494-2.279,1.268-3.032,2.282
	c-0.754,0.752-1.506,2.021-1.766,3.034v0.256c0.495-1.008,1.012-2.021,1.766-2.774c0.753-1.009,1.763-1.761,3.032-2.28
	c0.258-0.256,0.258-0.492,0.258-1.008C168.881,122.591,168.881,122.851,168.623,122.851L168.623,122.851z M180.006,124.615
	c-1.505,0.258-2.775,0.754-4.048,1.762c-1.008,0.752-1.761,1.766-2.515,2.775c0,0-0.26,0.258,0,0.494
	c0.492-1.013,1.271-1.767,2.281-2.281c1.271-1.012,2.514-1.504,4.043-1.764c0.26,0,0.26-0.259,0.26-0.259v-0.729
	C180.262,124.615,180.262,124.615,180.006,124.615L180.006,124.615z M188.587,130.424
	C188.587,130.424,188.587,130.68,188.587,130.424c-1.765,0.256-3.291,0.753-4.538,1.76c-0.26,0.264-0.752,0.498-1.012,0.756
	l-0.258,0.26l0.258,0.258c0.26-0.258,0.494-0.494,0.752-0.494c1.27-1.01,2.775-1.765,4.538-1.765
	C188.587,131.177,188.587,130.68,188.587,130.424L188.587,130.424z M137.796,144.837C137.796,145.07,137.796,145.07,137.796,144.837
	c0,1.013-0.752,1.765-1.507,2.022c-1.01,0.492-2.279,0.257-3.031-0.495c-0.496,0.752-1.504,1.012-2.52,0.752
	c-0.752-0.257-1.504-0.492-1.762-1.269c-0.26-0.26-0.26-0.755-0.26-0.755c-0.752,0-1.762,0.263-2.514,0.263v0.752
	c0.752,0,1.762,0,2.514-0.26c0,0.26,0.26,0.492,0.26,0.752c0.494,0.494,1.01,1.012,1.762,1.269c1.016,0.262,2.023-0.257,2.52-0.752
	c0.752,0.752,2.021,1.014,3.031,0.495c0.755-0.26,1.271-1.012,1.507-1.764V144.837L137.796,144.837z M140.075,166.822
	c-1.009,0.754-2.515,0.754-3.526,0c-0.492-0.26-0.752-0.752-1.27-1.268l-0.26-0.261c-0.752,0.752-1.763,1.013-2.773,1.013
	c-1.012,0-2.279-0.752-2.773-1.505c-0.494-0.754-0.755-1.506-0.755-2.284c0,1.014,0.261,2.022,0.755,3.037
	c0.494,1.008,1.504,1.504,2.514,1.76c1.013,0,2.023-0.256,3.033-1.008c0,0,0.26,0,0.26,0.256c0.259,0.496,0.753,1.014,1.271,1.271
	c1.013,0.752,2.519,0.752,3.526,0c1.012-0.752,1.766-2.022,1.766-3.293C141.579,165.295,141.087,166.307,140.075,166.822
	L140.075,166.822z M166.344,172.139c-0.753,0.258-1.507,0.752-2.281,1.27c-1.013,0.752-2.021,2.021-2.517,3.292
	c0.494-1.013,1.271-2.022,2.279-2.774c0.752-0.496,1.504-0.752,2.28-1.271C166.602,172.891,166.602,172.372,166.344,172.139
	C166.602,172.139,166.602,172.139,166.344,172.139L166.344,172.139z M160.533,168.586
	C160.533,168.844,160.273,168.844,160.533,168.586c-2.516,0.753-4.537,2.28-5.807,4.538v0.26h0.256
	c1.272-2.022,3.035-3.526,5.315-4.303C160.273,169.339,160.533,169.104,160.533,168.586L160.533,168.586z M149.93,167.834
	c-1.011,1.01-2.022,2.021-2.518,3.292c-0.494,1.013-0.752,2.021-0.494,3.291v0.26c0-1.012,0.26-1.764,0.494-2.516
	c0.752-1.271,1.507-2.282,2.518-3.292C149.93,168.329,150.188,168.092,149.93,167.834z M140.827,171.618
	c-1.009,1.271-1.505,2.774-1.271,4.54c0-1.27,0.262-2.774,1.271-3.786C141.087,171.88,141.087,171.618,140.827,171.618
	C140.827,171.359,140.827,171.359,140.827,171.618z M136.27,180.461c0.254-0.26,0.254-0.26,0-0.494
	c-0.261-0.752-0.752-1.27-0.752-2.023c-0.264-0.491-0.264-1.268-0.264-2.021c0,0.755,0,1.508,0.264,2.52
	C135.771,179.191,135.771,179.967,136.27,180.461z M140.827,189.303c-0.752,0.752-1.761,0.752-2.515,0.494
	c-0.752-0.26-1.504-0.752-2.023-1.506h-0.258c-0.494,1.27-1.504,2.021-2.773,2.516c-0.752,0-1.764-0.258-2.281-0.752
	c-0.516-0.494-1.01-1.27-1.01-2.021c0,2.021,0.258,2.278,1.01,2.772s1.504,0.752,2.517,0.752c1.271-0.494,2.278-1.268,2.776-2.514
	c0,0,0.254-0.26,0.254,0c0.498,0.752,1.272,1.268,2.024,1.504c1.011,0.258,2.022,0,2.517-0.494c0.752-0.752,1.013-1.764,1.013-2.772
	C141.841,188.057,141.322,188.809,140.827,189.303z M130.977,185.518c0.258,0,0.258-0.261,0.258-0.261v-0.256
	c-1.01-0.496-2.021-1.506-2.021-2.519C129.191,183.495,129.967,184.766,130.977,185.518z M57.164,66.746c0,0,0.261-0.26,0-0.26
	c-0.257-0.492-0.257-0.752-0.257-1.27C56.928,65.474,57.164,65.969,57.164,66.746z M59.445,106.674
	c0.259-0.26,0.259-0.26,0.259-0.497c-0.259-0.492-0.494-0.752-0.752-1.27c0-0.258-0.259-0.492-0.259-1.01
	c0,0.494,0,1.27,0.259,1.762C58.927,106.155,59.186,106.415,59.445,106.674L59.445,106.674z M70.05,109.964
	c0,1.014-0.492,1.766-1.505,2.021c-0.752,0.497-1.763,0.752-2.774,0.497c-0.752-0.26-1.269-0.752-1.765-1.272
	c-0.256-0.258-0.492,0-0.492,0.26c-0.494,0.26-1.269,0.752-1.765,1.012c-1.27,0.492-2.774,0.255-3.527-1.012
	c-0.492-0.492-0.492-1.27-0.752-1.764c0,1.012,0.26,1.764,0.494,2.516c0.752,1.27,2.28,1.504,3.528,1.012
	c0.753-0.26,1.27-0.497,1.762-1.012c0.26-0.258,0.26-0.492,0.496-0.258c0.492,0.494,1.27,1.01,1.762,1.27
	c1.013,0.258,2.023,0,2.776-0.497C69.814,112.482,70.311,111.21,70.05,109.964L70.05,109.964z M67.276,90.236
	c0,1.01-0.495,1.762-1.505,2.281c-1.505,1.01-3.292,0.495-4.044-1.012c-0.753-1.504-0.495-0.26-0.495,0
	c-0.753,0.492-2.021,1.012-3.032,0.752c-1.011,0-2.024-0.752-2.28-1.764c-0.261-0.258-0.261-0.493-0.261-1.01
	c0,0.493,0,1.01,0.261,1.506c0.256,1.008,1.269,1.76,2.28,1.76c1.011,0,2.279-0.255,3.032-1.007h0.495
	c0.752,1.504,2.776,2.021,4.303,1.27C66.781,92.775,67.276,92.258,67.276,90.236L67.276,90.236z M57.68,86.45
	C57.941,86.45,57.941,86.45,57.68,86.45c0.261-0.26,0.261-0.26,0.261-0.494c-0.495-0.494-0.753-1.01-0.753-1.764
	C57.164,84.921,57.425,85.698,57.68,86.45L57.68,86.45z M72.848,91.506c-1.011,1.012-1.763,2.516-2.281,4.043
	c-0.256,1.012-0.256,2.282,0,3.293c0-0.754,0-1.764,0.261-2.516c0.258-1.506,1.01-2.774,2.021-4.043L72.848,91.506
	C73.084,91.246,72.848,91.506,72.848,91.506L72.848,91.506z M82.443,88.214c-3.035,1.762-4.539,5.056-4.045,8.347
	c-0.259-3.034,1.269-6.067,4.045-7.574C82.7,88.966,82.443,88.472,82.443,88.214z M87.239,94.022l0.26,0.258h0.257
	c1.013-2.774,3.035-5.056,5.316-6.82v-1.01c0,0,0,0.258-0.261,0.258C90.531,88.472,88.507,90.99,87.239,94.022L87.239,94.022z
	 M73.601,72.552c-0.753,0.496-1.505,1.271-2.022,2.023c-1.013,1.504-1.505,3.528-1.269,5.55v0.258c0-1.762,0.256-3.292,1.269-4.797
	c0.492-0.752,1.011-1.504,1.763-1.762L73.601,72.552z M83.712,70.014c-1.012,0.492-2.021,1.504-2.774,2.282
	c-1.013,1.27-1.504,2.774-2.023,4.303c0,0.256,0,0.492,0.258,0.492c0.261-1.27,1.013-2.516,1.765-3.788
	c0.753-1.008,1.505-1.76,2.514-2.514c0.26,0,0.26-0.26,0.26-0.494v-0.492C83.971,69.778,83.971,69.778,83.712,70.014L83.712,70.014z
	 M95.587,69.778c-1.504,0-3.032,0.494-4.303,1.504c-1.504,0.754-2.515,2.284-2.776,3.788c0,0.258,0,0.492,0.261,0.492
	c0.492-1.504,1.505-2.514,2.774-3.526c1.269-0.754,2.518-1.506,4.044-1.506c0.259,0,0.259-0.258,0.259-0.492v-0.497L95.587,69.778
	L95.587,69.778z M100.641,75.328l0.497-0.258c1.504-1.012,3.032-1.504,4.795-1.766c0.26,0,0.26,0,0.26-0.492v-0.495h-0.26
	c-2.021,0.495-4.043,1.272-5.809,2.516c-0.259,0.26-0.492,0.495,0,0.495H100.641z M76.118,50.568
	c-1.504,1.01-3.034,2.282-4.047,3.786c-1.009,1.506-1.505,3.526-1.27,5.313h0.261c0-1.506,0.492-3.034,1.505-4.538
	c1.269-1.504,2.513-2.776,4.042-3.786v-1.27C76.375,50.308,76.375,50.568,76.118,50.568z M89.261,47.532
	c-1.505,1.014-2.774,2.022-4.043,3.294c-1.269,1.271-2.022,3.031-2.022,4.797c0,0,0,0.258,0.257,0.258h0.26
	c0.259-1.504,1.011-2.776,2.021-4.045c1.27-1.268,2.519-2.282,3.787-3.032V48.31L89.261,47.532z M102.923,46.759
	c-2.022,0.494-3.787,1.762-5.548,3.032c-1.013,1.27-1.765,2.518-2.024,4.303h0.259c0.26-1.27,1.012-2.516,2.021-3.292
	c1.505-1.504,3.529-2.516,5.553-3.034c0.256,0,0.256-0.258,0.256-0.494v-0.752C103.158,46.522,103.158,46.759,102.923,46.759z
	 M114.281,52.072c-1.505,0-3.292,0.258-4.798,0.492c-1.011,0.26-2.021,1.012-2.774,1.766v0.258l0.493,0.258
	c0.496-0.492,1.271-1.01,2.023-1.27c1.504-0.26,3.293-0.492,4.798-0.492l0.258-0.26V52.072
	C114.54,52.072,114.54,52.072,114.281,52.072L114.281,52.072z M67.534,70.272c-0.258,1.272-0.752,1.272-1.763,2.024
	c-0.752,0.492-2.021,0.752-3.034,0.492c-0.753-0.258-1.27-0.492-1.505-1.012h-0.259c-0.494,0.494-1.269,0.754-2.021,1.012
	c-1.272,0.495-2.777,0-3.529-1.012c0,0,0-0.258-0.255-0.258v-0.752v0.257c0,0.752,0,1.506,0.491,2.28
	c0.753,1.014,2.283,1.506,3.527,1.271c0.752-0.257,1.271-0.752,2.024-1.01h0.258c1.011,1.504,3.035,1.762,4.54,0.752h0.255
	c0.497-0.26,1.013-0.752,1.271-1.506V70.272C67.534,70.014,67.534,70.272,67.534,70.272L67.534,70.272z M113.529,62.937
	c0,0.258-0.259,0.258-0.495,0.492c-0.259,0-0.259,0-0.494-0.258c-3.292-2.776-7.336-4.303-11.615-4.538
	c-11.876,0.258-23.515,3.289-33.861,8.581c0,0-0.261,0.258,0,0.258l0.492,0.495c10.605-5.313,21.988-8.345,33.861-8.582
	c4.304,0.258,8.349,1.762,11.617,4.54c0,0.256,0.258,0.256,0.495,0.256c0.233,0,0.258-0.493,0.258-0.493
	c0-0.752,0.259-1.27,0.259-2.021C113.787,62.183,113.529,62.701,113.529,62.937z M96.081,81.395
	c-1.269-0.495-2.517-0.752-3.787-0.752c-8.842,0.258-17.681,2.774-25.535,7.078c0,0-0.261,0.26-0.261,0.494
	c0,0.232,0.261,0.495,0.261,0.752l0.256-0.257c7.832-4.54,16.437-6.82,25.54-7.08c1.269,0,2.28,0.26,3.526,0.754h0.259
	L96.081,81.395C96.34,81.395,96.34,81.395,96.081,81.395z M96.34,99.078c0,0.257-0.259,0.257-0.259,0.257
	c-4.539-0.257-9.359,0.26-13.638,1.506c-4.798,1.504-9.101,3.292-13.405,5.808c-0.257,0.258-0.257,0.258,0,0.492l0.259,0.26
	c4.304-2.516,8.583-4.303,13.402-5.807c4.539-1.27,9.103-2.022,13.64-1.764h0.258L96.34,99.078z M143.346,139.523
	c-1.767,1.268-3.787,2.516-6.068,3.289l0.262,0.496c2.02-0.752,3.785-2.023,5.548-3.291h0.261
	c3.032-0.754,15.166-5.059,22.502-5.315c4.539,0,9.103,1.012,13.146,3.292c2.021,1.27,4.044,2.773,5.55,4.537c0,0,0,0.26,0.258,0.26
	c0,0,0.258,0,0.258-0.26c0.494-1.268,0.752-2.514,0.752-4.043c0,1.01-0.258,2.279-0.752,3.291l-0.258,0.26
	c-0.258,0-0.258-0.26-0.258-0.26c-1.506-1.762-3.529-3.291-5.55-4.538c-4.043-2.281-8.583-3.291-13.146-3.291
	c-7.336,0-19.47,4.538-22.502,5.313C143.604,139.523,143.346,139.523,143.346,139.523L143.346,139.523z M174.95,161.251
	c-0.261,0.256-0.497,0.256-1.015,0.256c-1.011-1.271-2.021-2.278-3.289-3.291c-1.506-1.268-3.293-2.021-5.057-2.515
	c-2.773-0.494-5.811-0.754-8.583-0.26c-5.552,0.754-10.862,2.517-15.921,5.55l-0.26,0.26l0.26,0.256
	c4.796-2.772,10.369-4.538,15.921-5.312c2.772-0.494,5.81-0.494,8.583,0.259c1.764,0.494,3.526,1.271,5.057,2.517
	c1.268,1.01,2.278,2.021,3.289,3.288c0.262,0,0.754,0,1.015-0.255c0.256-0.753,0.491-1.271,0.491-2.023
	C175.441,160.499,175.206,161.016,174.95,161.251L174.95,161.251z M163.072,182.482h-0.491c-0.752-0.752-1.767-1.504-2.774-2.281
	c-2.518-1.27-5.552-1.762-8.351-1.27c-4.044,0.752-8.085,2.281-11.381,5.055c-0.257,0.263-0.257,0.494-0.257,0.494l0.257,0.261
	c3.296-2.517,7.079-4.304,11.381-5.058c2.774-0.259,5.808,0,8.351,1.27c1.008,0.497,2.022,1.271,2.774,2.281h0.491
	c0.753-0.752,1.013-1.504,1.013-2.517C164.085,181.214,163.568,181.991,163.072,182.482L163.072,182.482z"/>
<linearGradient id="SVGID_2_" gradientUnits="userSpaceOnUse" x1="584.4951" y1="1102.8926" x2="699.4727" y2="1102.8926" gradientTransform="matrix(1.2136 0 0 1.2136 -653.9426 -1305.5988)">
	<stop  offset="0" style="stop-color:#FFE3A8"/>
	<stop  offset="1" style="stop-color:#D2A249"/>
</linearGradient>
<path fill="url(#SVGID_2_)" d="M177.229,25.547c6.067,1.505,11.875,3.527,17.449,5.809c0.26,0,0.26,0.258,0.26,0.495v2.54
	c0,0.257-0.26,0.257-0.496,0.257c-3.526-1.27-8.584-3.034-13.146-4.301h-0.257v1.504c0,0,0,0.258,0.257,0.258
	c4.54,1.27,9.102,2.776,13.146,4.305c0,0,0.26,0,0.26,0.256v4.048c-4.047-1.506-8.844-3.036-13.639-4.304h-0.262v1.504
	c0,0,0,0.255,0.262,0.255c4.537,1.272,9.099,2.776,13.4,4.304l0.264,0.262v3.29c0,0,0,0.26-0.264,0.26
	c-5.809-2.282-11.615-4.043-17.445-5.55l-0.258-0.258C176.973,35.142,176.973,30.604,177.229,25.547L177.229,25.547z
	 M157.008,36.151c1.27,0.262,2.514,0.494,3.525,0.494c0,0,0.261,0,0.261-0.258v-5.032h0.257c3.034,0.495,5.809,1.01,8.844,1.762
	c0,0,0.492,0,0.492,0.26v5.056c0,0.26,0,0.26,0.26,0.26c1.269,0.258,2.279,0.494,3.289,0.752h0.264
	c0.255-3.528,0.255-9.593,0.255-14.414v-0.259c-1.271-0.259-2.279-0.494-3.524-0.753l-0.261,0.26c0,1.763,0,3.526-0.258,5.313
	c-3.034-0.495-6.067-1.27-9.099-1.764V27.57v-5.314c0,0,0-0.259-0.262-0.259c-1.27-0.259-2.281-0.259-3.291-0.494
	c-1.012-0.235-0.26,0-0.26,0.258C157.242,24.019,157.008,33.377,157.008,36.151L157.008,36.151z M141.579,19.481
	c-1.504,0-3.031,1.012-3.289,2.775v9.594c0,1.012,0.752,2.02,2.021,2.282c5.057,0.49,9.854,1.01,15.426,1.762c0,0,0.26,0,0.26-0.258
	v-3.293l-0.26-0.258c-3.784-0.494-8.582-1.01-12.885-1.504c-0.259,0-0.496-0.26-0.496-0.495v-6.561c0-0.259,0.496-0.493,0.752-0.493
	c4.305,0.258,8.584,1.01,12.889,1.504c0,0,0.26,0,0.26-0.258v-3.034c0-0.259,0-0.259-0.26-0.259
	C150.939,20.493,147.389,20.233,141.579,19.481L141.579,19.481z M135.02,19.222c-4.795-0.259-9.852-0.259-14.646-0.259
	c-1.012,0-2.282,0.752-2.282,1.764v5.314c0,1.011,1.505,2.023,2.516,2.023c3.785,0,7.079,0,10.606,0.258
	c0.258,0,0.492,0.257,0.492,0.494v1.012c0,0.258-0.26,0.258-0.26,0.258c-4.303,0-8.583-0.258-12.885,0.26
	c-0.259,0-0.259,0-0.259,0.258l-0.258,3.034v0.258c5.053-0.258,10.109-0.258,15.165,0c1.272,0,2.282-1.012,2.519-2.021v-5.08
	c0-1.011-1.271-1.763-2.023-1.763c-3.525-0.259-7.571,0-11.38-0.259c-0.259,0-0.259-0.259-0.259-0.494v-1.271
	c0-0.258,0.259-0.258,0.259-0.258c3.529-0.26,8.841,0,12.627,0.258c0.258,0,0.493-0.258,0.493-0.493v-2.54
	C135.518,19.481,135.254,19.222,135.02,19.222 M113.529,28.58c1.011-0.492,1.763-1.504,1.504-2.515c0-1.505,0-3.032-0.257-4.538
	c-0.261-1.011-1.271-2.023-2.519-2.023c-3.526,0-10.864,1.012-15.165,1.505v14.908l3.785-0.492v-4.327l7.574-0.752
	c0.753,0,1.505,0.258,2.021,1.268c0.492,0.752,0.752,1.764,1.011,2.776l3.785-0.258h0.26
	C115.809,31.85,115.057,29.828,113.529,28.58L113.529,28.58z M110.753,25.29c0,0.752-0.492,1.27-1.009,1.27l-8.585,0.752v-3.033
	l9.102-0.753c0.257,0,0.752,0.259,0.752,0.493L110.753,25.29z M95.068,24.019c0-0.752-0.256-1.269-0.752-1.504
	c-0.492-0.494-1.269-0.753-1.761-0.753c-4.303,0.753-8.843,1.505-13.146,2.517c-0.752,0.258-1.269,0.494-1.763,1.269
	c-0.494,0.495-0.752,1.012-0.752,1.764v9.102c0,0.752,0.258,1.504,0.752,2.02c0.259,0.492,1.011,1.012,1.763,1.012
	c4.303-1.012,8.843-1.764,13.146-2.516c0.752-0.26,1.505-0.752,2.28-1.27c0.494-0.495,0.752-1.27,0.752-1.764L95.068,24.019z
	 M90.79,32.366c0,0.26-0.259,0.752-0.492,0.752c-0.261,0.26-0.497,0.26-1.013,0.497c-2.282,0.492-5.809,1.007-8.09,1.504
	c-0.257,0-0.492,0-0.752-0.26c-0.256-0.258-0.256-0.492-0.256-0.752v-5.784c0-0.258,0-0.495,0.256-0.752
	c0.26-0.259,0.496-0.494,1.012-0.494c2.283-0.493,5.314-1.011,7.831-1.505c0.26,0,0.494,0,1.013,0.26
	c0.256,0.258,0.492,0.493,0.492,0.752L90.79,32.366L90.79,32.366z M74.87,28.322c0-0.752-0.492-1.271-1.009-1.504
	c-0.752-0.495-1.505-0.753-2.282-0.495c-5.316,1.27-10.606,3.292-15.92,5.315c-0.258,0-0.258,0.258-0.258,0.492v14.65
	c0,0,3.785-1.504,4.537-1.762V40.48c0,0,0-0.26,0.261-0.26l13.144-4.043c0.494-0.26,0.753-0.495,1.011-0.752
	c0.261-0.26,0.494-0.752,0.494-1.27L74.87,28.322z M70.566,32.625c0,0.258-0.493,0.752-0.752,1.012l-9.593,3.032h-0.259V33.87
	c0-0.255,0.259-0.255,0.259-0.255c3.292-1.272,6.327-2.282,9.853-3.294c0.259,0,0.493,0.26,0.493,0.495L70.566,32.625L70.566,32.625
	z"/>
<path d="M216.145,226.782v3.62h28.512v3.031h-28.512v3.621h28.512v3.031h-32.131V223.63h32.131v3.044h-28.512V226.782z
	 M204.579,230.293h-22.077v-6.663h-3.619v16.468h3.619v-6.195h22.077v6.195h3.618V223.63h-3.618V230.293z M144.882,227.249v9.229
	c0,1.988,1.632,3.619,3.62,3.619h26.283v-3.619h-25.814c-0.229,0-0.469-0.229-0.469-0.468v-8.293c0-0.349,0.348-0.469,0.586-0.469
	h25.708v-3.619h-26.174C146.523,223.63,144.882,225.271,144.882,227.249L144.882,227.249z M136.827,230.412h-23.13
	c-0.348,0-0.586-0.229-0.586-0.587v-2.456c0-0.348,0.227-0.587,0.586-0.587h26.284v-3.032H113.11c-1.989,0-3.62,1.63-3.62,3.619
	v2.456c0,1.989,1.63,3.62,3.62,3.62h23.13c0.348,0,0.586,0.229,0.586,0.587v2.456c0,0.348-0.229,0.587-0.586,0.587h-26.294v3.032
	h26.871c1.988,0,3.619-1.631,3.619-3.619v-2.456C140.447,232.044,138.807,230.412,136.827,230.412z M105.283,240.107h-3.619v-0.695
	c0-1.989-1.63-3.619-3.62-3.619H77.719v4.326h-3.621V223.63h27.458c1.988,0,3.62,1.63,3.62,3.619v3.619
	c0,1.989-1.522,3.621-3.5,3.621C103.882,235.555,105.283,237.652,105.283,240.107L105.283,240.107z M101.654,227.956
	c0-0.349-0.229-0.587-0.588-0.587H77.827v4.902h23.25c0.348,0,0.587-0.229,0.587-0.588L101.654,227.956z M69.762,227.249v9.229
	c0,1.988-1.63,3.619-3.62,3.619h-23.25c-1.989,0-3.62-1.631-3.62-3.619v-9.229c0-1.989,1.631-3.619,3.739-3.619h23.25
	C68.131,223.63,69.762,225.271,69.762,227.249L69.762,227.249z M66.142,227.956c0-0.349-0.229-0.587-0.587-0.587H43.479
	c-0.348,0-0.586,0.229-0.586,0.467v8.293c0,0.229,0.228,0.469,0.467,0.469h22.195c0.348,0,0.587-0.229,0.587-0.587V227.956z
	 M34.946,227.249v4.901c0,1.99-1.63,3.621-3.62,3.621H7.609v4.326h-3.62V223.63h27.337C33.316,223.63,34.946,225.271,34.946,227.249
	L34.946,227.249z M31.327,227.956c0-0.349-0.228-0.587-0.587-0.587H7.609v4.902h23.25c0.348,0,0.587-0.229,0.587-0.588
	L31.327,227.956z M194.396,32.862v1.27l-1.015-0.262l-0.752-0.255l-4.54-1.506c-1.505-0.495-2.773-1.01-4.042-1.27l-1.012-0.257
	l-1.271-0.26l-1.01-0.257v2.773l0.492,0.26h0.494l0.752,0.258l0.752,0.26c1.766,0.492,3.294,1.007,5.059,1.504
	c1.762,0.492,3.291,1.01,4.797,1.506l0.49,0.256l0.754,0.26v3.036l-0.754-0.262l-0.49-0.258c-1.766-0.495-3.529-1.272-5.316-1.764
	c-1.785-0.492-3.783-1.268-5.549-1.764l-1.504-0.492v2.516l0.492,0.258l1.271,0.26l1.012,0.256l0.495,0.262l0.494,0.258l4.535,1.504
	c1.507,0.494,3.033,1.012,4.304,1.506h0.752l0.494,0.257v2.519l-0.752-0.262h-0.494c-2.772-1.01-5.313-1.762-7.829-2.514
	c-2.517-0.752-5.314-1.764-7.57-2.28v-5.529c0-2.021,0-7.829,0.258-8.088c0.257,0,5.313,1.505,7.828,2.281
	c2.517,0.752,5.059,1.764,7.338,2.516l0.496,0.258l0.752,0.26C194.396,31.85,194.396,32.625,194.396,32.862L194.396,32.862z
	 M173.68,25.547c-0.259,0-0.754-0.257-1.012-0.257c-0.262,0-1.014-0.259-1.506-0.259v5.55l-0.752-0.26h-1.504
	c-1.016-0.257-2.022-0.492-3.295-0.752c-1.27-0.258-2.278-0.494-3.291-0.752h-0.491l-0.755-0.26l-0.752-0.258h-0.26V22.75h-2.515
	v13.896c0.259,0,0.492,0,0.752,0.26h1.271c0.258,0,0.752,0,1.012,0.26V35.4v-1.01v-2.024v-0.492h0.492
	c0.492,0,1.765,0.257,3.292,0.492c1.528,0.236,3.293,0.752,5.055,1.012h1.507v4.54l0.752,0.255l0.494,0.26h0.494l0.753,0.26v-1.272
	v-5.313v-6.066L173.68,25.547z M146.637,20.493c-2.281-0.26-4.043-0.494-4.796-0.494c-0.754,0-1.506,0.257-2.021,0.752
	c-0.496,0.259-1.014,1.011-1.014,1.505v9.852c0,0.258,0,0.494,0.262,0.754c0,0.256,0.256,0.493,0.256,0.493
	c0.26,0.26,0.496,0.494,1.012,0.494h1.012c2.024,0.258,4.305,0.494,6.325,0.494s4.304,0.495,6.56,0.752l1.014,0.257v-2.491
	l-1.271-0.26l-1.014-0.26l-5.313-0.752l-5.313-0.752c0,0-0.258,0-0.258-0.257v-7.573c0-0.258,0-0.493,0.258-0.752
	c0.26-0.259,0.494-0.259,0.752-0.259c1.271,0,11.125,1.505,12.886,1.764v-1.27v-1.504C153.223,21.245,149.671,20.986,146.637,20.493
	L146.637,20.493z M114.798,31.098c0.494,0.752,0.494,1.764,0.752,2.516l-3.292,0.255c-0.255-1.008-0.492-1.762-1.009-2.514
	c-0.495-1.01-1.504-1.504-2.517-1.504c-1.27,0.258-8.09,0.752-8.09,0.752v4.304l-1.505,0.257l-1.505,0.26V21.503
	c0,0,13.146-1.505,14.416-1.505s1.765,0.752,1.765,1.505c0.257,1.504,0.257,3.292,0.257,4.797c-0.257,0.752-0.752,1.504-1.505,2.022
	C113.787,29.074,114.281,30.086,114.798,31.098L114.798,31.098z M111.505,23.761c0-0.259,0-0.494-0.257-0.753
	c-0.26-0.258-0.752-0.258-1.012-0.258l-9.36,1.011v4.043l4.54-0.493l4.539-0.493c0.492,0,1.009-0.259,1.269-0.495
	c0.259-0.259,0.493-0.753,0.493-1.271L111.505,23.761z M94.316,24.019v9.359c0,1.27-1.009,2.282-2.279,2.516
	c-1.272,0.234-11.875,2.279-12.886,2.516c-1.011,0.237-2.28-1.01-2.28-2.022v-9.335c0-1.011,1.009-1.763,2.021-2.021
	c1.011-0.259,12.134-2.516,12.886-2.516C93.307,22.256,94.316,22.75,94.316,24.019L94.316,24.019z M91.542,26.3
	c0-0.753-0.259-1.505-1.505-1.27c-1.505,0.259-6.561,1.27-8.346,1.505c-1.272,0.258-2.024,0.752-2.024,2.021v5.833
	c0,0.752,0.494,1.504,1.505,1.27c1.011-0.26,8.348-1.504,9.101-1.764c0.752-0.258,1.269-0.752,1.269-1.764V26.3L91.542,26.3z
	 M133.75,25.29h-12.133c0-0.259-0.259-0.259-0.259-0.495v-1.011v-1.27c0-0.259,0.259-0.259,0.753-0.259h12.625v-2.541
	c-1.504,0-2.516,0-3.786-0.258h-10.367c-0.497,0-0.753,0.258-1.013,0.494c-0.259,0.258-0.492,0.493-0.492,0.752v5.549
	c0,0.259,0.255,0.494,0.492,0.753c0.26,0.258,0.752,0.258,1.269,0.493h7.337c0,0,2.518,0,3.788,0.259
	c0.259,0,0.492,0.259,0.492,0.495v2.281c0,0.258-0.259,0.258-0.752,0.258h-9.852c-1.013,0-2.022,0-2.774,0.258v2.516
	c1.269,0,2.774,0,3.785-0.258c1.011-0.26,2.279,0,3.032,0h8.092c0.494,0,0.752-0.26,1.01-0.494s0.495-0.495,0.495-1.012v-5.5
	c0-0.259-0.259-0.753-0.495-0.753C134.244,25.547,134.01,25.29,133.75,25.29L133.75,25.29z M74.353,28.322l0.261,5.547v0.52
	c0,0.257-0.261,0.494-0.496,0.752c-0.257,0.258-0.493,0.494-0.753,0.494l-13.638,4.304v4.795l-3.526,1.27v-6.56v-6.819
	c0,0,0-0.26,0.257-0.26c0.259,0,4.304-1.504,9.594-3.292c1.505-0.495,5.055-1.504,5.809-1.763c0.495,0,1.271,0,1.765,0.259
	C73.861,27.311,74.353,27.804,74.353,28.322L74.353,28.322z M71.318,32.625v-2.022c0-0.258-0.256-0.494-0.256-0.752
	c-0.261-0.26-0.496-0.26-0.752-0.26h-0.26c0,0-3.035,0.754-4.796,1.506c-1.765,0.752-5.809,2.02-5.809,2.02v4.048l10.369-3.296
	c0.26,0,0.497-0.255,0.752-0.492C71.063,33.118,71.063,32.862,71.318,32.625z M116.561,81.653v3.788c0,0.492,0,0.752-0.257,1.268
	c-0.259,0.26-0.495,0.495-1.011,0.495s-0.752-0.26-1.011-0.495c-0.258-0.258-0.258-0.752-0.258-1.268v-3.788
	c0-0.258-0.261-0.495-0.494-0.495c-0.259,0-0.495,0.26-0.495,0.495v3.528c0,0.752,0.258,1.506,0.495,2.022
	c0.494,0.492,1.011,1.012,1.763,0.752c0.752,0,1.505-0.26,1.763-0.752c0.259-0.752,0.494-1.27,0.494-2.022v-3.528
	c0-0.258-0.257-0.495-0.494-0.495C116.822,81.137,116.561,81.395,116.561,81.653z M121.877,82.147c0.257,0,0.493-0.258,0.493-0.494
	c0-0.235-0.258-0.495-0.493-0.495h-2.776c-0.258,0-0.494,0.26-0.494,0.495c0,0.236,0.261,0.494,0.494,0.494h1.011v5.548
	c0,0.26,0.26,0.497,0.494,0.497c0.233,0,0.494-0.26,0.494-0.497v-5.548H121.877z M126.415,82.147c0.258,0,0.494-0.258,0.494-0.494
	c0-0.235-0.263-0.495-0.494-0.495h-2.777c-0.256,0-0.491,0.26-0.491,0.495c0,0.236,0.258,0.494,0.491,0.494h1.013v5.548
	c0,0.26,0.259,0.497,0.492,0.497c0.237,0,0.498-0.26,0.498-0.497v-5.548H126.415z M131.729,84.169h-1.504
	c-0.494,0-0.494,0.26-0.494,0.494c0,0.258,0.258,0.494,0.494,0.494h1.01v0.258c0,1.01-0.494,1.764-1.268,2.024
	c-0.494,0-1.013-0.26-1.271-0.752c-0.256-0.494-0.492-1.272-0.256-1.766c0-0.492,0.256-1.27,0.492-1.764
	c0.234-0.492,0.494-0.752,1.012-0.752c0.492,0,0.752,0.26,1.009,0.752c0,0.26,0.262,0.26,0.495,0.26c0.234,0,0.259-0.26,0.259-0.492
	c-0.259-0.752-1.011-1.271-2.021-1.271c-0.752,0-1.508,0.257-1.766,1.012c-0.494,0.752-0.752,1.504-0.752,2.516
	c0,0.752,0.258,1.762,0.494,2.514c0.258,0.752,1.01,1.271,1.765,1.271c0.492,0,0.753,0,1.271-0.257
	c0.492-0.495,1.01-1.27,1.27-2.022v-1.272C132.48,84.429,132.223,84.169,131.729,84.169L131.729,84.169z M148.4,82.147
	c0.258,0,0.492-0.258,0.492-0.494c0-0.235-0.256-0.495-0.492-0.495h-2.773c-0.26,0-0.496,0.26-0.496,0.495
	c0,0.236,0.26,0.494,0.496,0.494h1.01v5.548c0,0.26,0.26,0.497,0.494,0.497c0.235,0,0.492-0.26,0.492-0.497v-5.548H148.4z
	 M142.594,85.698c0.492-0.258,0.752-0.494,1.01-0.752c0.494-0.495,0.752-1.012,0.494-1.506c0-0.752-0.26-1.268-0.752-1.762
	c-0.494-0.26-1.012-0.495-1.767-0.495h-1.504c-0.257,0-0.257,0-0.492,0.258c0,0-0.261,0.258-0.261,0.494v5.808
	c0,0.26,0.261,0.492,0.496,0.492c0.232,0,0.492-0.255,0.492-0.492v-1.764h1.012l1.506,2.023c0,0.258,0.258,0.258,0.492,0.258
	c0.236,0,0.494-0.258,0.494-0.492c0-0.236,0-0.26-0.258-0.497L142.594,85.698z M140.57,84.687v-2.514h1.271
	c0.493,0,0.753,0,1.011,0.258c0.258,0.258,0.494,0.494,0.494,0.752c0,0.752-0.752,1.504-1.505,1.504H140.57z M136.523,81.653
	c0-0.258-0.492-0.495-0.752-0.495c-0.256,0-0.492,0.26-0.752,0.495l-1.763,5.807v0.495l0.257,0.26c0.262,0,0.495,0,0.495-0.26
	l0.259-1.012h2.775l0.258,1.012c0,0.26,0.26,0.26,0.494,0.26s0.258,0,0.494-0.26V87.46L136.523,81.653z M136.784,85.933h-2.021
	l1.008-3.786L136.784,85.933z M107.202,84.687c-0.752-0.495-1.505-0.495-2.28-0.752c-0.494,0-0.753-0.494-0.753-1.01
	c0.259-0.494,0.753-0.752,1.271-0.752c0.492,0,1.009,0.258,1.269,0.492c0.259,0.26,0.752,0,0.752-0.26
	c0-0.258-0.493-1.268-2.021-1.268c-0.496,0-1.013,0.258-1.505,0.492c-0.497,0.26-0.752,0.754-0.752,1.27
	c0,0.518,0.256,1.27,0.491,1.506c0.261,0.258,0.753,0.492,1.505,0.492c0.494,0,1.27,0.26,1.505,0.754c0.26,0.258,0,0.752-0.259,1.01
	c-0.258,0.258-0.752,0.494-1.271,0.494c-0.492,0-1.009-0.257-1.269-0.494c-0.259-0.258-0.492-0.258-0.753-0.258
	c-0.258,0-0.258,0.495-0.258,0.752c0.494,0.752,1.271,1.27,2.024,1.01c0.752,0,1.504-0.258,2.021-0.752
	c0.259-0.494,0.492-1.01,0.492-1.504C107.979,85.44,107.721,84.921,107.202,84.687L107.202,84.687z M111.765,82.147
	c0.259,0,0.492-0.258,0.492-0.494c0-0.235-0.255-0.495-0.492-0.495h-2.774c-0.26,0-0.497,0.26-0.497,0.495
	c0,0.236,0.261,0.494,0.497,0.494H110v5.548c0,0.26,0.261,0.497,0.497,0.497c0.257,0,0.492-0.26,0.492-0.497v-5.548H111.765z
	 M70.566,55.623c0.752-1.766,2.023-3.293,3.529-4.303c0.752-0.494,0.752-0.752,0.752-0.752s-0.259-0.26-1.271-0.26
	c-1.505,0.26-3.033,0.752-4.303,1.764c-1.505,1.27-2.514,3.034-3.033,4.796c-0.259,2.024-0.259,4.303,0.258,6.562l-3.526,1.764
	c-0.259-0.752-0.495-1.268-1.011-2.022c-0.752-0.752-2.024-0.752-3.035-0.26c-0.752,0.495-1.269,1.27-1.269,2.282
	c0,0.752,0.259,1.27,0.752,1.764c-0.752,0.257-1.271,0.752-2.023,1.27c-0.753,0.752-1.008,1.762-0.753,2.514
	c0.261,0.754,1.272,1.27,2.024,1.27c1.011-0.256,2.021-0.752,3.033-1.504c0.26,0.497,0.752,0.752,1.271,1.27
	c0.495,0.26,1.011,0.494,1.505,0.494c0.494,0,0.752,0,1.269-0.26c0.753-0.492,1.272-1.27,1.011-2.279
	c-0.257-1.27-1.269-1.764-1.269-2.28c6.066-3.293,12.394-5.81,18.952-7.339c4.537-1.268,9.101-2.021,13.638-2.281
	c3.035-0.256,5.809,0,8.84,1.014c2.282,0.493,4.54,1.762,6.327,3.526c0-2.282-1.271-4.044-3.292-5.056
	c-1.505-1.012-3.291-1.504-5.056-1.764c0.495-0.752,1.013-1.504,1.504-2.021c1.013-1.01,2.283-1.504,3.527-1.762
	c1.249-0.26,2.282-0.26,3.528-0.26c-0.493-1.012-1.271-1.506-2.515-1.764c-1.27-0.257-2.774,0-4.046,0.258
	c-2.279,1.014-4.303,3.034-5.314,5.317c-2.515-0.262-4.795,0-7.337,0c0.26-2.024,1.013-3.788,2.024-5.552
	c1.271-1.504,3.032-2.776,5.056-3.292c0.257,0,0.494-0.258,0.752-0.494c-0.495-0.495-1.011-0.75-3.032-0.75
	c-2.776,0-5.057,1.502-6.562,3.526c-1.271,2.021-2.023,4.043-2.023,6.562c-3.785,0.752-8.349,1.76-8.349,1.76
	c0-1.504,0.497-3.289,1.013-4.538c1.011-1.762,2.279-3.292,4.043-4.536l0.752-0.495c-0.492-0.258-1.011-0.258-1.763-0.258
	c-1.27,0-2.516,0.492-3.785,1.01c-2.519,1.27-3.787,3.786-3.787,6.56v3.528c-3.035,0.752-6.066,1.762-8.843,2.776
	C69.558,59.409,69.814,57.387,70.566,55.623L70.566,55.623z M103.417,72.296c0,0,1.011-0.26,1.271-0.497
	c-0.26-0.255-0.496-0.255-0.752-0.492c-1.013-0.494-1.765-0.752-2.776-0.752c-1.011,0-2.023,0.258-3.032,0.492
	c-2.024,1.012-3.292,2.776-4.045,5.056c0,0-2.28,0-3.292,0.26l-3.292,0.258c0-0.493,0-1.01,0.257-1.762
	c0.26-1.014,0.752-2.282,1.505-3.034c1.271-1.506,3.034-2.516,5.055-2.776h0.497c-0.752-0.492-1.505-0.752-2.282-0.492
	c-4.303,0-7.83,3.292-8.349,7.571c0,0.26-0.258,1.01-0.258,1.01s-1.764,0.257-2.283,0.494c-1.269,0.258-2.774,0.495-4.042,1.01
	c0-1.504,0.492-3.292,1.269-4.536c0.753-1.27,1.764-2.518,2.774-3.528c0.261-0.26,0.494-0.496,1.013-0.752
	c-0.494,0-0.752-0.26-1.271-0.26c-2.516,0-4.798,1.504-5.55,3.786c-0.753,2.022-1.009,4.304-1.009,6.325
	c-1.272,0.26-4.048,1.271-5.316,1.764c-0.259-1.504-0.259-3.032,0-4.798c0.26-1.27,1.013-2.514,2.022-3.526l0.752-0.752
	c0,0-0.257-0.26-1.505,0c-2.021,0.494-3.785,2.02-4.303,4.043c-0.492,2.022-0.492,4.301-0.492,6.325
	c-0.752,0.258-3.034,1.271-3.292,1.506c0-0.495-0.258-1.012-0.495-1.506c-0.491-0.495-1.01-1.01-1.763-1.01
	c-0.495,0-0.752,0-1.269,0.258c-0.259,0.257-0.753,0.494-0.753,1.01c-0.258,0.494-0.258,1.014,0,1.506
	c0.259,0.26,0.259,0.494,0.495,0.752c0.259,0.26,0.492,0.752,0.492,0.752c-0.752,0.26-1.505,0.495-2.022,1.014
	c-1.01,0.492-1.269,1.76-0.752,2.774c0.261,0.752,1.013,1.01,1.765,1.01c1.27,0,2.28-0.495,3.033-1.504c0,0,0.752,1.27,1.011,1.504
	c0.258,0.494,1.011,0.752,1.763,0.752c0.259,0,0.752,0,1.011-0.258c0.752-0.494,1.269-1.27,1.013-2.021
	c0-0.752-0.261-1.504-0.753-2.024l-0.26-0.258l1.765-0.752c2.773-1.504,5.547-2.774,8.347-3.788
	c4.539-1.504,9.359-2.774,14.154-3.289c1.013-0.26,2.024-0.26,3.035-0.26c1.269,0,2.517,0.26,3.526,0.752v-5.056h2.024
	C99.632,73.823,101.394,72.812,103.417,72.296L103.417,72.296z M96.34,90.99v7.335c-0.753,0-1.763-0.258-2.279-0.258
	c-6.562,0.258-13.147,2.022-18.956,4.536c-2.774,1.271-5.313,2.516-7.829,4.045c1.011,0.492,1.505,1.27,2.021,2.282
	c0.495,1.506-0.492,2.774-2.516,2.774c-1.763,0-2.023-1.504-2.776-2.022c-0.256,0-1.505,1.506-2.021,1.762
	c-0.492,0.26-1.011,0.26-1.269,0.496c-0.753,0-1.27-0.26-1.763-0.752c-0.494-0.497-0.494-1.014-0.494-1.766
	c0.257-0.752,0.752-1.268,1.269-1.762c0.494-0.26,1.013-0.495,1.505-1.012c0-0.494-1.011-1.27-1.27-2.021
	c-0.258-1.012,0-2.024,0.753-2.776c0.752-0.494,1.763-0.494,2.515,0c1.011,0.495,1.505,2.282,1.505,2.516
	c0.495-0.257,2.024-1.504,3.033-2.021c-1.009-2.022-1.761-4.043-1.505-6.325c0.497-3.292,4.048-5.808,5.552-4.798
	c-1.271,1.506-2.282,3.293-2.282,5.315c-0.26,1.504,0,3.034,0.752,4.303c0,0,3.787-1.506,5.057-1.764
	c-1.013-2.28-1.013-5.056-0.261-7.335c1.271-2.282,3.529-3.788,6.069-3.788c-3.293,2.282-4.798,6.325-3.527,9.853
	c0.75-0.258,5.053-1.506,5.547-1.762c-0.258-2.518,0.492-5.056,2.022-7.08c1.269-1.764,3.035-2.773,5.316-3.293
	c0.492,0,0.752,0,1.269,0.26c0,0.26,0,0.26-0.26,0.492l-0.257,0.262c-1.765,1.504-3.294,3.032-4.539,5.056
	c-0.494,1.27-1.013,2.514-1.013,3.784v0.26c0,0,2.282-0.492,4.048-0.492c1.761,0,3.29-0.262,3.29-0.262
	c0.26-0.752,0.495-1.504,1.013-2.02C95.068,91.998,95.587,91.506,96.34,90.99L96.34,90.99z M167.354,122.591
	c-1.504,0.494-2.517,1.271-3.291,2.516c-1.271,2.022-1.765,4.303-1.013,4.303h1.765c1.013,0,1.765,0,2.773,0.262
	c0.26,0,0.26,0,0.496-0.262c0.234-0.258,0.256-0.258,0.256-0.492c0.752-2.281,2.023-4.303,4.047-5.552
	c0.752-0.492,1.762-0.752,2.516-1.008c1.504,0,2.773,0.492,3.785,1.504c0.258,0.493-1.504-0.496-4.539,2.515
	c-1.01,1.012-1.762,2.023-2.279,3.295c0,0,0,0.256,0.26,0.256c1.268,0.496,3.785,1.012,5.055,1.504c0.258,0,0.494,0,0.754-0.255
	c0.752-1.015,1.504-1.767,2.516-2.519c1.01-0.752,2.279-1.01,3.527-1.01h0.256c2.775,0.258,3.035,1.762,3.035,2.022
	c0,0.256-0.494,0.256-1.012,0.256c-2.023,0.496-3.527,1.505-4.798,3.034c-0.258,0.258,0.494,1.012,0.494,1.012
	c2.024,1.271,3.294,3.528,2.776,5.809c0,0.494,0,0.494-0.26,0.494c-0.492-0.258-0.752-0.494-1.011-0.752l-3.786-3.037
	c-2.281-1.504-4.539-2.278-7.337-2.772c-2.021-0.258-4.044-0.494-6.067-0.494c-4.537,0-8.84,0.755-13.145,2.023
	c-0.752,0.258-3.525,1.012-6.066,1.764l-1.508,0.495l1.016-0.753c1.01-1.015,2.021-2.022,3.033-3.293l0.752-0.752l1.271-0.259
	l5.056-1.014c0.491-0.256,1.01-0.492,1.01-1.009c0.261-2.022,1.013-3.787,2.281-5.055c1.012-1.766,2.773-2.778,4.799-3.036
	C166.857,121.581,167.871,122.333,167.354,122.591L167.354,122.591z M131.729,159.745c-0.752-0.494-1.268-1.504-1.504-2.517
	c0-1.013,0.494-2.021,1.504-2.281c1.013-0.492,2.021-0.258,3.035,0.26c1.008,0.752,1.269,1.504,1.506,2.773h0.254
	c1.016-0.492,2.52-1.271,3.789-1.765l0.494-0.258c0,0,0.258,0,0.258-0.494c-0.492-1.271-0.492-2.516-0.492-3.784
	c0-1.506,0.492-2.775,1.27-4.045c1.764-3.033,5.057-2.775,4.797-2.517c-1.271,1.271-2.021,3.034-2.281,4.796
	c-0.258,1.012-0.258,2.023,0,3.034c0,0.493,0,1.012,0.26,1.012s1.268-0.494,2.021-0.754c0.752-0.258,2.021-0.492,2.775-0.753
	c0.494,0,0.258-0.258,0.258-0.494c0-2.773,0.752-5.548,2.281-7.829c1.27-1.504,3.031-2.517,4.796-2.772
	c0.752,0,1.765,0.258,1.504,0.492c-0.491,0.26-0.752,0.495-1.269,0.752c-1.014,0.752-2.021,1.766-2.772,3.032
	c-0.755,1.767-1.272,3.528-1.015,5.552c1.505,0,3.033-0.26,4.539-0.494c0.259,0,0.492-0.26,0.492-0.493
	c0.498-1.765,1.271-5.056,3.035-6.325c1.012-0.752,2.021-1.271,3.293-1.271c0.752,0,3.031,0.752,2.514,1.015
	c-1.504,0.491-2.514,1.504-3.525,2.774c-0.752,1.012-1.27,2.021-1.27,3.291c-0.26,0.752,0.492,0.752,0.492,0.752
	c1.27,0,2.519,0.26,3.787,0.493c0.258,0,0.752-0.493,0.752-0.493c0.492-1.011,1.271-1.763,2.021-2.279
	c0.752-0.752,1.765-1.271,3.033-1.271c2.279,0,3.529,1.763,3.033,1.763c-2.022,0.494-3.785,1.764-5.058,3.293
	c0,0-0.258,0.259,0,0.494c2.024,1.762,3.53,4.041,3.786,6.817c0,0.26,0.26,1.271-0.256,1.271c-1.506-1.763-3.293-3.291-5.059-4.539
	c-2.516-1.27-5.55-2.021-8.58-2.021c-3.528,0-7.08,0.494-10.605,1.504c-3.786,1.271-7.57,2.776-10.865,4.798
	c0.494,0.492,1.012,1.01,1.271,1.504c0.492,1.014,0.256,2.282-0.752,3.037c-0.496,0.491-1.271,0.491-2.023,0.256
	c-1.764-0.256-2.021-2.022-2.279-2.516c-0.263,0.492-0.494,1.01-1.271,1.271c-1.01,0.752-2.516,0.752-3.525-0.496
	c0,0,0-0.258-0.26-0.258c-0.752-1.014-0.492-2.283,0.26-3.035C131.729,160.003,131.729,159.745,131.729,159.745L131.729,159.745z
	 M137.538,180.201c-0.263-0.492-0.494-1.01-0.754-1.762c-0.495-1.271-0.753-2.52-0.495-3.787c0.26-1.506,1.766-2.772,3.294-3.034
	c-0.752,0.754-1.271,2.022-1.013,3.293c0,1.272,0.496,2.28,1.013,3.294c0.258,0.258,0.258,0,0.258,0
	c1.013-0.494,1.765-1.014,2.775-1.27v-0.261c-0.753-2.282-0.261-4.538,0.755-6.562c0.752-1.506,2.279-2.516,4.041-2.774
	c1.764-0.258,1.012,0,1.27,0.494c-1.27,0.752-2.021,2.022-2.772,3.292c-0.494,1.27-0.494,2.775-0.259,4.303h0.259
	c1.01-0.26,2.021-0.494,3.291-0.752c0,0,0.26,0,0.26-0.26c0.492-2.021,1.505-3.783,3.034-5.313c1.27-1.013,2.514-1.504,4.043-1.765
	c2.021,0,2.281,0.494,2.281,0.752c0.259,0.259-0.493,0-1.27,0.259c-1.013,0.493-2.023,1.271-2.775,2.283
	c-0.752,0.752-1.271,1.762-1.271,3.031v0.26c1.014,0.256,2.283,0.492,3.296,0.752h0.255c0.497-1.27,1.508-2.281,2.282-3.291
	c1.015-0.752,2.021-1.271,3.293-1.271c0.752,0,1.505,0.26,2.022,0.752c0,0,0.752,0.493,0.494,0.752
	c-1.271,0.262-2.518,1.014-3.295,2.022c-1.268,1.508-1.268,2.022-1.504,2.279c-0.258,0.264,0,0.495,0.258,0.755
	c2.023,1.269,2.281,2.517,2.519,3.291c0,0.752-0.261,2.024-1.015,1.013c-0.752-1.013-2.02-2.021-3.524-2.517
	c-2.022-0.752-4.044-1.271-6.065-1.271c-2.023,0-3.785,0.26-5.552,1.014c-2.515,0.752-4.794,1.762-6.817,3.289
	c-0.26,0.26-0.494,0.497-1.012,0.752c-0.753,0.497-1.269,1.016-1.763,1.507c-0.261,0.261,0.258,0.496,0.258,0.496
	c2.281,1.008,2.517,2.513,1.763,3.29c-0.492,0.494-1.269,0.752-2.021,0.257c-1.765-1.269-1.506-2.278-2.281-2.021
	c-0.493,0.259-1.013,1.506-1.505,2.021c-0.496,0.755-1.766,1.013-2.518,0.261s-1.01-2.021-0.492-2.773
	c0.492-0.492,1.01-0.754,1.506-1.27c0,0-1.271-0.752-1.766-1.271c-0.754-0.752-0.754-2.024,0-2.776
	c1.014-0.752,2.281-0.494,3.033,0.494c0.754,1.014,0.754,1.271,1.012,1.271h0.258C135.518,181.991,137.275,180.719,137.538,180.201
	C137.538,180.461,137.538,180.461,137.538,180.201L137.538,180.201z M148.658,113.492h-0.752c-0.258,0-0.494-0.258-0.752-0.492
	c-0.258-0.262-0.258-0.494-0.258-0.754c0-0.26,0.258-0.26,0.258-0.492c0.494-0.26,0.752-0.754,1.01-1.012
	c0.26-0.495,0.26-0.752,0.26-1.27h-0.26c-0.258,0.257-0.492,0.754-0.752,0.754c-0.258,0.256-0.752,0.256-1.01,0.256
	s-0.494-0.256-0.752-0.256c-0.26-0.262-0.26-0.497-0.26-0.754c0-0.26,0.26-0.26,0.491-0.497c0.496,0,1.015-0.256,1.271-0.492
	c0.259-0.235,0.494-0.492,0.494-0.752v-1.012c-0.26,0-0.494,0.26-0.752,0.26c-0.494,0.258-0.752,0-1.27,0
	c-0.496-0.26-0.752-0.752-1.012-1.012v-0.258c0.494,0,0.752-0.495,1.012-1.012c0,0,0-0.257,0.256-0.257
	c0-0.258,0.262-0.258,0.262-0.258v-1.014c0-0.256-0.262-0.492-0.262-0.752h-0.256c-0.26,0.26,0,0.752-0.26,1.012l-0.752,0.754
	c-0.26,0-0.26,0.258-0.492,0.258c-0.262-0.258-0.497-0.495-0.497-0.752c0-0.494,0-0.754,0.261-1.012
	c0.258-0.752,0.752-1.27,1.27-2.022c0.261-0.497,0.753-0.752,1.013-1.27c0.256-0.26,0.492-1.012,0-1.27
	c-0.496-0.258-0.496,0.494-0.752,0.752c-1.013,0.494-2.024,1.012-2.776,1.504c-0.494,0.495-0.752,1.27-0.752,1.764
	c-0.26,0.258,0,1.012-0.26,1.27c0,0.26-0.26,0.26-0.492,0.26c-0.26-0.26-0.494-0.752-0.754-1.272v-1.01c0,0,0-0.258-0.258-0.258
	c-0.495,0.258-0.752,0.494-0.752,1.01c-0.262,0.495,0,1.27,0.257,1.764l1.507,2.279c0.492,0.752,1.01,1.504,1.271,2.282
	c0.491,0.495,0.491,1.27,0.491,2.022c-0.258,0.752-0.491,1.271-1.01,1.764h-0.26c-0.492-0.492-1.012-1.012-1.764-1.504
	c-0.754-0.495-1.508-0.752-2.516-1.012c-1.012,0-2.022-0.257-3.293,0c-1.01,0-2.281,0.26-3.291,0.26c-1.013,0-1.765,0-2.773-0.26
	c-0.752-0.257-1.27-0.754-1.508-1.27c-0.26-0.752-0.491-1.27-0.26-2.022c0-0.494,0.26-1.27,0.498-1.766
	c0.254-0.49,0.491-0.752,1.01-1.007c0.496-0.26,1.012-0.26,1.764-0.26c0.258,0,0.492,0.26,0.752,0.495l0.492,0.494h0.263
	c0-0.754,0-1.506-0.263-2.281c-0.256-0.493-0.492-1.012-1.008-1.506h0.492c0.494,0,1.271,0.26,1.762,0.494l0.755,0.752
	c0-1.01-0.261-1.762-0.755-2.516c-0.258-0.492-0.75-0.752-1.01-1.01c-0.258,0,0.258-0.258,0.494-0.258c0.494,0,1.01,0,1.504,0.258
	c0.26,0,0.26,0.258,0.494,0.258l0.26,0.26c0,0,0.258,0,0.258-0.26c0-0.258-0.258-0.494-0.258-0.752
	c-0.754-0.752-1.506-1.27-2.28-2.022c0,0-0.261,0-0.261-0.26c-0.258-0.255-0.492-0.752-0.492-1.01c0-0.26-0.26-0.26-0.26-0.494
	v-0.493c0.26-0.494,0.494-0.494,1.013-0.754c0.258,0,0.754-0.26,1.271-0.26h0.258v-0.256c-0.494-0.26-1.011-0.497-1.504-0.497
	c-0.752,0-1.504,0-2.279,0.26c-0.498,0.26-1.016,0.492-1.768,0.492c-0.492,0-0.752,0-1.268-0.256c-0.262,0-0.495-0.26-0.495-0.752
	c0-0.497,0-1.014,0.259-1.272l0.752-0.752c0.26,0,0.26-0.258,0.26-0.258h-0.496c-0.752,0.258-1.269,0.492-2.021,0.752l-1.269,1.27
	l-0.261,0.26h-0.492l-1.505,0.752c-0.494,0.256-0.752,0.492-1.269,0.752c-0.26,0-0.752,0.256-1.013,0.256
	c-0.752,0-1.763,0-2.022,0.754c0,0.26,0,0.494,0.259,0.494c0.258,0,0.258,0.258,0.495,0.258l0.492,0.26c0,0,0.26,0,0.26,0.258
	c0,0.26-0.26,0.26-0.26,0.26c-0.492,0-0.751,0-1.27-0.26h-0.492c-0.752,0.752-1.765,1.27-2.517,1.764l-0.259,0.257v0.495
	c0,0.258-0.258,0.258-0.258,0.258c-0.259,0-0.259,0.26-0.259,0.494v0.495c0,0.257,0.259,0.494,0.495,0.494h0.259
	c0.258,0,0.494-0.26,0.752-0.26h0.259v0.26c0,0.258-0.259,0.258-0.259,0.492c0,0.237-0.258,0.26,0,0.497
	c0.259,0.234,0.752,0.255,1.011,0c0.258-0.26,0.258-0.26,0.258-0.497c0-0.234,0.259-0.255,0.495-0.492
	c0.494-0.26,0.753-0.26,1.27-0.26c0.26,0,0.494,0,0.752,0.26c0,0,0.261,0,0.261,0.258c0,0.26-0.261,0.494-0.261,0.754
	c0,0.258,0,0.493-0.258,0.493c-0.259,0-0.259,0.492-0.259,0.492s0,0.262-0.257,0.262c-0.259,0.258-0.753,0.492-1.272,1.01
	c-0.492,0.495-1.269,1.27-1.505,2.022c-0.255,0.258-0.255,0.494-0.255,0.752c-0.261,0.752-0.261,1.506-1.013,1.012
	c-0.752-0.493-1.505-0.754-2.022-1.27l-0.752-0.752c-0.752-1.012-1.505,0-2.021,0.494l-2.282,3.032
	c-0.261,0.26-0.261,0.26-0.261,0.495c0,0.236-0.256,0.494-0.491,0.752c-0.261,0.258-0.261,0.752-0.261,1.012
	c0,0.752-0.255,1.268-0.492,1.764c-0.26,0.256-0.494,0.752-0.494,1.01v1.012c0,0.257,0,0.492,0.494,0.492h0.259l1.504-0.752
	c0,0,0.259,0,0.259-0.255c0.26-0.262,0.26-0.262,0-0.497v-0.258c0-0.26-0.259-0.26-0.259-0.26v-0.258v-0.401
	c0-0.255,0-0.255,0.259-0.492c0.26-0.26,0.494-0.494,0.752-0.494c0.261-0.258,0.494-0.752,0.261-1.27v-0.257v-0.26
	c0-0.257,0-0.492,0.256-0.492c0.261-0.26,0.261-0.497,0.497-0.752c0.256-0.497,0.492-0.752,1.009-0.752c0.519,0,1.013,0,1.505,0.492
	c0.497,0.494,0.752,1.268,0.752,2.021l0.753,1.504c0.26,0.497,0.752,0.497,1.012,0.26h0.259c0.258,0,0.258,0,0.495,0.26l0.752,0.752
	c0.259,0.257,0,0.494-0.26,0.494h-1.009c-1.272,0.258-2.518,0.492-3.529,0.492h-0.257c-0.261,0-0.261,0-0.261,0.26v0.258
	c0,0,0,0.258-0.255,0.258v0.754c0.492,1.762,0.492,3.526,0.255,5.313c-0.255,0.494,0,1.272,0.497,1.764
	c0.257,0.26,0.257,0.26,0.492,0.26c0,0,0.26,0,0.26,0.255c0.257,0.26,0.257,0.497,0.257,0.752c0,0.26,0.261,0.752,0.497,1.014
	c0.255,0.493,0.752,0.752,1.009,1.01h0.26c0.259,0,0.492,0,0.492-0.258c0.261-0.495,0.497-1.27,0.261-1.766
	c0-0.256-0.261-0.492-0.494-0.492h-0.259h-0.26c-0.257,0-0.257-0.26-0.257-0.495c-0.26-0.258-0.26-0.752,0-1.01v-0.26v-0.492
	c0-0.26,0-0.26-0.26-0.495c-0.259-0.258-0.259-0.494-0.492-0.494c-0.236,0-0.261,0-0.261-0.258v-0.33
	c0.261-0.752,0.261-1.506,0-2.516c0-0.258,0-0.494,0.261-0.752c0.492-0.495,1.505,0,2.021,0.258
	c0.752,0.258,1.504,0.494,2.282,0.494c1.269,0.258,2.514-0.258,3.785-1.012h0.258c0.494,0.26,0.753,0.494,1.011,0.754
	c1.011,0.752,2.024,1.01,3.033,1.504c1.505,0.258,3.034,0.258,4.54,0c0.494,0,0.752,0,1.013,0.258c0,0,0.256,0,0.256,0.26
	c0,0.492-0.256,1.01-0.256,1.504c0,0.258,0.256,0.495,0.256,0.752c0.263,0.258,0.263,0.494,0.263,0.752l0.258,0.26
	c0.752,1.012,1.01,2.516,0,3.786c-0.494,0.493-1.271,1.01-1.765,1.504c-0.493,0.492-1.271,0.754-2.021,0.754
	c-0.497,0-1.014,0.258-1.271,0.492c-0.495,0.495-1.011,0.752-1.504,1.014c-0.259,0-0.494,0.256-0.494,0.492
	c-0.259,0.495-0.492,1.271-0.492,2.022c0,0.494,0.255,0.494,0.492,0.494c0.494,0,1.013-0.263,1.504-0.494
	c0.261,0,0.495-0.494,0.261-0.752l-0.261-0.494v-0.26v-0.259l0.261-0.26c0.255,0,0.255-0.256,0.493-0.256h0.26
	c0.752,0.256,1.505,0,1.763-0.754c0,0,0-0.261,0.26-0.261c0.259-0.257,0.259-0.492,0.492-0.492c1.504-1.012,3.033-1.765,4.54-2.28
	c0.26,0,0.26-0.259,0.26-0.259V124.8v-1.764c0-0.494,0.256-1.01,0.752-1.01c0.256,0,0.492,0.258,0.492,0.258
	c0.494,0.752,1.27,1.27,2.021,1.504c0.26,0,0.496,0.26,0.752,0.26c0.496,0.257,1.013,0.752,1.271,1.505c0,0.258,0,0.752-0.26,1.012
	l-1.505,2.279c-0.261,0.496-0.494,0.752-1.013,1.012c-0.492,0.492-1.27,0.752-1.762,1.271c-0.496,0.261-0.752,0.752-1.012,1.013
	l-0.755,2.278c-0.259,0.494,0.263,0.494,0.495,0.494c0.494-0.261,1.271-0.494,1.764-0.752c0,0,0.26,0,0.26-0.261v-0.254
	c0-0.264,0-0.498-0.26-0.498c-0.258-0.258-0.258-0.491,0-0.752l0.26-0.258c0.492-0.26,0.752-0.26,1.27-0.26
	c0.492,0,1.011-0.258,1.505-0.752l0.261-0.258c0.492-1.764,1.762-3.294,3.291-4.305c0.256,0,0.256-0.26,0.256-0.493v-0.754
	l-1.268-2.02c-0.26-0.494-0.492-1.012-0.752-1.764c0-0.752,0.26-1.271,0.492-1.764c0-0.26,0.26-0.26,0.26-0.495
	c0.26-0.494,0.752-0.752,1.012-1.01c0.256-0.494,0.752-0.752,1.01-1.27c0.26-0.497,0.494-1.27,0.752-1.764
	c0.26-0.492,0-1.012,0-1.506c0-0.258,0-0.258,0.26-0.492l0.752-0.752h1.014c0.752,0.255,1.01,0.492,1.762,0.492h1.014
	C147.906,113.986,148.4,113.986,148.658,113.492L148.658,113.492z M125.921,102.886c0,0.495-0.259,1.012-0.753,1.271
	c-0.258,0-0.492,0.26-0.752,0.26c-0.259,0-0.259-0.497-0.259-1.012v-0.752v-0.775v-0.494v-0.752v-1.506
	c0-0.495-0.258-1.268-0.493-1.762c0-0.26-0.259-0.752-0.259-1.012c0-0.26-0.258-0.26-0.258-0.495c0-0.257-0.261-0.257-0.261-0.257
	c-0.255-0.26-0.492-0.26-0.492-0.495v-0.258c0.753-0.26,1.505-0.26,2.022,0.258c1.013,0.752,1.505,1.764,1.505,3.032
	C126.157,99.853,126.157,101.357,125.921,102.886L125.921,102.886z M57.164,134.982h45.995c-4.303-4.537-6.561-10.604-6.818-16.927
	v-0.752H54.39C54.649,123.345,55.659,129.152,57.164,134.982z M123.638,157.206H66.524c1.504,2.772,3.034,5.55,4.794,8.089
	c2.283,3.291,4.54,6.561,7.338,9.594h44.982V157.206L123.638,157.206z M197.428,77.869h-42.209v15.659h41.975
	C197.193,88.472,197.428,83.157,197.428,77.869L197.428,77.869z M197.947,51.578c-7.573-3.032-15.428-5.55-23.258-7.572
	c-10.864-2.516-21.985-4.538-33.11-5.313c-5.312-0.495-10.108-0.752-15.422-0.752v17.446h71.528
	C197.947,54.094,197.947,52.824,197.947,51.578L197.947,51.578z M152.704,77.352H98.88v40.184c0,7.337,3.291,14.155,8.84,18.694
	c5.055,4.304,11.614,6.818,18.2,7.078c5.057,0,9.852-1.504,14.154-4.045c5.314-3.033,9.596-8.087,11.617-13.895
	c0.752-2.024,1.012-4.045,1.268-6.069L152.704,77.352z M151.434,118.807c0,2.021-0.492,4.043-1.011,6.065
	c-2.021,5.551-6.067,10.371-11.123,13.403c-4.046,2.516-8.581,3.785-13.403,3.785c-6.325,0-12.625-2.515-17.445-6.561
	c-5.316-4.536-8.348-11.121-8.585-17.94V78.879h51.567V118.807L151.434,118.807z M136.031,143.309
	c-1.764,0.754-3.785,1.271-5.551,1.508c0,0.256,0,0.256,0.258,0.49c0.264,0.493,0.496,0.754,1.016,0.754
	c0.492,0,1.01-0.261,1.504-1.271c0,0,0.256-0.26,0.492,0c0.494,0.752,1.504,1.504,2.281,1.01c0.492-0.258,0.753-1.271,0.492-1.762
	L136.031,143.309z"/>
</svg>
