<?xml version="1.0" encoding="utf-8"?>
<!-- Generator: Adobe Illustrator 14.0.0, SVG Export Plug-In . SVG Version: 6.00 Build 43363)  -->
<!DOCTYPE svg PUBLIC "-//W3C//DTD SVG 1.0//EN" "http://www.w3.org/TR/2001/REC-SVG-20010904/DTD/svg10.dtd">
<svg version="1.0" id="Capa_1" xmlns="http://www.w3.org/2000/svg" xmlns:xlink="http://www.w3.org/1999/xlink" x="0px" y="0px"
	 width="250px" height="250px" viewBox="0 0 250 250" enable-background="new 0 0 250 250" xml:space="preserve">
<path fill="#903035" d="M192.108,54.688c-13.175-3.293-51.064-6.638-91.415-4.117c-39.531,2.471-40.354,21-42,34.177
	c-1.647,13.176,1.235,80.705,1.235,80.705s39.941,5.482,65.06,5.212c25.119-0.269,65.226,3.87,69.176-24.975
	C198.284,115.631,192.108,54.688,192.108,54.688L192.108,54.688z"/>
<g>
	<path fill="#903035" d="M118.257,199.221v-4.941H69.67v27.998h48.587v-4.94H81.2v-6.589h35v-4.94h-35v-6.587H118.257z
		 M50.871,206.632c0,0-22.442-0.824-25.736-0.824s-5.559-0.823-5.559-4.117c0-2.258,3.073-2.462,5.765-2.474v0.004h31.975v-4.942
		H19.69c0,0-11.233-0.413-11.233,7.822c0,6.795,3.912,8.441,10.089,8.441c6.176,0,21.824,1.031,24.706,1.031
		c0,0,3.912,0.379,3.912,3.088c0,1.645-1.03,2.676-2.883,2.676H8.869v4.94h40.624c2.202,0,8.583-1.03,8.583-7.822
		C58.075,208.072,54.577,207.044,50.871,206.632L50.871,206.632z M242.778,194.341h-50.153v5.848h19.535v22.089h10.661v-22.089
		h19.957V194.341z M141.462,194.279c-5.347,0-10.5,3.709-10.5,8.031l-0.003,20.102h9.885v-10.633h29.706v10.5h9.882v-28H141.462
		L141.462,194.279z M140.843,206.838v-2.06c0-2.158,2.058-5.146,5.763-5.146h23.941v7.205H140.843L140.843,206.838z"/>
</g>
<path fill="#CC2229" d="M190.874,53.453c-13.177-3.293-51.066-6.639-91.416-4.117c-39.53,2.471-40.354,21-42,34.176
	c-1.647,13.176,1.235,80.707,1.235,80.707s39.942,5.48,65.061,5.212c25.118-0.269,65.224,3.87,69.176-24.977
	C197.051,114.395,190.874,53.453,190.874,53.453L190.874,53.453z"/>
<g>
	<path fill="#B3B3B3" d="M62.399,83.925c0,0-0.379-17.667,9.059-23.061c11.529-6.587,41.589-12.353,114.063-3.292
		c0,0,0.821,23.058,0.821,24.706c0,0-53.958-4.624-63.823-3.845c-7,0.552-3.705,4.258,0,4.798c0,0,54.354,8.931,63.823,10.986v9.474
		C186.342,103.691,101.106,86.807,62.399,83.925L62.399,83.925z M61.989,90.512c0,0,95.531,14.825,124.353,21.823v8.649
		c0,0-97.178-21.826-123.943-24.296L61.989,90.512L61.989,90.512z M62.399,103.691c0,0,93.474,14.411,123.943,26.352
		c0,0,2.471,19.765-7.41,25.942c-14.14,8.835-67.529,8.646-115.296,2.882c0,0-1.236-22.648,0-33.768c0,0,52.731,3.914,64.238,5.354
		c6.586,0.824,6.589-2.47,2.47-4.943c0,0-51.059-13.999-67.531-16.057L62.399,103.691L62.399,103.691z"/>
</g>
<g>
	<path fill="#4D4D4D" d="M64.872,86.396c0,0-0.381-17.667,9.059-23.061c11.53-6.587,41.588-12.354,114.06-3.293
		c0,0,0.824,23.058,0.824,24.707c0,0-53.959-4.625-63.824-3.848c-7,0.552-3.706,4.261,0,4.798c0,0,54.356,8.931,63.824,10.989v9.471
		C188.813,106.159,103.576,89.278,64.872,86.396L64.872,86.396z M64.458,92.983c0,0,95.533,14.824,124.354,21.825v8.647
		c0,0-97.176-21.826-123.941-24.296L64.458,92.983z M64.872,106.159c0,0,93.471,14.413,123.941,26.354c0,0,2.473,19.765-7.41,25.94
		c-14.14,8.837-67.531,8.647-115.296,2.884c0,0-1.234-22.648,0-33.768c0,0,52.731,3.914,64.237,5.354
		c6.587,0.824,6.59-2.472,2.471-4.94c0,0-51.059-14.003-67.532-16.061L64.872,106.159L64.872,106.159z"/>
</g>
<linearGradient id="SVGID_1_" gradientUnits="userSpaceOnUse" x1="-43.0674" y1="99.6318" x2="-32.4319" y2="99.6318" gradientTransform="matrix(11.6728 0 0 -11.6728 566.1514 1242.5127)">
	<stop  offset="0" style="stop-color:#929496"/>
	<stop  offset="0.07" style="stop-color:#97999B"/>
	<stop  offset="0.165" style="stop-color:#A4A6A8"/>
	<stop  offset="0.274" style="stop-color:#BBBDBF"/>
	<stop  offset="0.393" style="stop-color:#DCDDDE"/>
	<stop  offset="0.489" style="stop-color:#FFFFFF"/>
	<stop  offset="0.565" style="stop-color:#F8F8F8"/>
	<stop  offset="0.661" style="stop-color:#EAEAEB"/>
	<stop  offset="0.768" style="stop-color:#D4D5D7"/>
	<stop  offset="0.881" style="stop-color:#B6B8BA"/>
	<stop  offset="1" style="stop-color:#929496"/>
</linearGradient>
<path fill="url(#SVGID_1_)" d="M63.635,85.162c0,0-0.381-17.668,9.059-23.062c11.529-6.587,41.587-12.354,114.061-3.292
	c0,0,0.824,23.058,0.824,24.706c0,0-53.958-4.624-63.823-3.846c-7,0.552-3.707,4.259,0,4.798c0,0,54.354,8.93,63.823,10.988v9.472
	C187.578,104.925,102.341,88.042,63.635,85.162z"/>
<linearGradient id="SVGID_2_" gradientUnits="userSpaceOnUse" x1="-43.0679" y1="97.2798" x2="-32.4322" y2="97.2798" gradientTransform="matrix(11.6728 0 0 -11.6728 566.1514 1242.5127)">
	<stop  offset="0" style="stop-color:#929496"/>
	<stop  offset="0.07" style="stop-color:#97999B"/>
	<stop  offset="0.165" style="stop-color:#A4A6A8"/>
	<stop  offset="0.274" style="stop-color:#BBBDBF"/>
	<stop  offset="0.393" style="stop-color:#DCDDDE"/>
	<stop  offset="0.489" style="stop-color:#FFFFFF"/>
	<stop  offset="0.565" style="stop-color:#F8F8F8"/>
	<stop  offset="0.661" style="stop-color:#EAEAEB"/>
	<stop  offset="0.768" style="stop-color:#D4D5D7"/>
	<stop  offset="0.881" style="stop-color:#B6B8BA"/>
	<stop  offset="1" style="stop-color:#929496"/>
</linearGradient>
<path fill="url(#SVGID_2_)" d="M63.225,91.747c0,0,95.531,14.825,124.354,21.824v8.648c0,0-97.178-21.827-123.943-24.295
	L63.225,91.747L63.225,91.747z"/>
<linearGradient id="SVGID_3_" gradientUnits="userSpaceOnUse" x1="-43.0679" y1="94.918" x2="-32.4263" y2="94.918" gradientTransform="matrix(11.6728 0 0 -11.6728 566.1514 1242.5127)">
	<stop  offset="0" style="stop-color:#929496"/>
	<stop  offset="0.07" style="stop-color:#97999B"/>
	<stop  offset="0.165" style="stop-color:#A4A6A8"/>
	<stop  offset="0.274" style="stop-color:#BBBDBF"/>
	<stop  offset="0.393" style="stop-color:#DCDDDE"/>
	<stop  offset="0.489" style="stop-color:#FFFFFF"/>
	<stop  offset="0.565" style="stop-color:#F8F8F8"/>
	<stop  offset="0.661" style="stop-color:#EAEAEB"/>
	<stop  offset="0.768" style="stop-color:#D4D5D7"/>
	<stop  offset="0.881" style="stop-color:#B6B8BA"/>
	<stop  offset="1" style="stop-color:#929496"/>
</linearGradient>
<path fill="url(#SVGID_3_)" d="M63.635,104.925c0,0,93.472,14.413,123.943,26.352c0,0,2.47,19.765-7.413,25.941
	c-14.139,8.837-67.528,8.647-115.293,2.883c0,0-1.236-22.646,0-33.768c0,0,52.73,3.917,64.237,5.354
	c6.587,0.824,6.59-2.47,2.471-4.941c0,0-51.06-14.002-67.531-16.059L63.635,104.925L63.635,104.925z"/>
<g>
	<path fill="#CC2229" d="M117.023,197.986v-4.941H68.435v27.998h48.589v-4.941H79.965v-6.59h34.999v-4.939H79.965v-6.586H117.023z
		 M49.635,205.396c0,0-22.442-0.824-25.735-0.824c-3.294,0-5.559-0.824-5.559-4.118c0-2.257,3.073-2.463,5.765-2.474v0.004h31.975
		v-4.941H18.455c0,0-11.233-0.414-11.233,7.821c0,6.794,3.912,8.441,10.088,8.441c6.176,0,21.824,1.03,24.706,1.03
		c0,0,3.912,0.379,3.912,3.088c0,1.646-1.03,2.674-2.883,2.674H7.634v4.943h40.624c2.201,0,8.583-1.028,8.583-7.823
		C56.841,206.838,53.34,205.811,49.635,205.396L49.635,205.396z M241.544,193.105H191.39v5.847h19.537v22.091h10.658v-22.091h19.959
		V193.105z M140.226,193.045c-5.345,0-10.501,3.706-10.501,8.029l-0.002,20.102h9.885v-10.634h29.707v10.501h9.882v-27.998H140.226
		L140.226,193.045z M139.607,205.602v-2.058c0-2.159,2.058-5.146,5.765-5.146h23.94v7.203H139.607L139.607,205.602z"/>
</g>
</svg>
