<?xml version="1.0" encoding="utf-8"?>
<!-- Generator: Adobe Illustrator 14.0.0, SVG Export Plug-In . SVG Version: 6.00 Build 43363)  -->
<!DOCTYPE svg PUBLIC "-//W3C//DTD SVG 1.1//EN" "http://www.w3.org/Graphics/SVG/1.1/DTD/svg11.dtd">
<svg version="1.1" id="Capa_1" xmlns="http://www.w3.org/2000/svg" xmlns:xlink="http://www.w3.org/1999/xlink" x="0px" y="0px"
	 width="250px" height="250px" viewBox="0 0 250 250" enable-background="new 0 0 250 250" xml:space="preserve">
<path d="M9.288,204.655c5.234,0,7.773,2.697,7.773,7.614c0,4.601-2.539,7.614-7.932,7.614h-4.6v-15.229H9.288z M14.84,212.27
	c0-4.124-2.062-5.868-6.027-5.868H6.433v11.896h2.062C13.095,218.298,14.84,216.394,14.84,212.27z M31.971,207.193
	c-0.634-0.634-1.903-0.952-3.172-0.952c-2.221,0-3.331,0.952-3.331,2.222c0,1.269,0.793,1.744,2.855,2.697
	c3.648,1.585,5.076,2.22,5.076,4.758c0,2.063-1.586,4.283-5.552,4.283c-2.062,0-4.125-0.635-5.394-1.587l0.952-1.586
	c1.11,0.793,2.855,1.428,4.6,1.428c2.379,0,3.49-1.11,3.49-2.538c0-1.269-1.11-1.745-3.648-2.855c-3.172-1.27-4.441-2.221-4.441-4.6
	c0-2.222,1.586-4.124,5.393-4.124c1.428,0,3.014,0.475,3.966,1.268L31.971,207.193z M60.365,220.043h-1.903l-1.428-4.284h-7.138
	l-1.427,4.284h-2.063c1.586-5.077,3.49-10.471,6.028-15.388h1.745C56.083,207.986,58.938,215.284,60.365,220.043z M56.4,214.015
	c-0.793-2.222-1.904-5.076-3.014-7.139c-0.952,1.587-2.221,5.076-3.014,7.139H56.4z M76.386,204.655h2.063v9.359
	c0,3.172-0.952,6.028-5.71,6.028c-2.063,0-3.808-0.635-4.759-1.904c-0.952-1.269-1.111-2.696-1.111-4.283v-9.358h2.062v9.042
	c0,2.696,0.477,4.759,3.649,4.759s3.807-2.063,3.807-4.759V204.655z M91.932,220.043h-1.904V206.56h-4.6v-1.746h11.263v1.746h-4.759
	V220.043z M102.083,212.27c0-4.601,3.014-7.772,7.456-7.772s7.456,3.172,7.456,7.772c0,4.282-2.538,7.932-7.456,7.932
	C105.098,220.201,102.083,217.028,102.083,212.27 M104.146,212.27c0,3.331,1.903,6.187,5.393,6.187c3.648,0,5.394-3.014,5.394-6.187
	c0-3.331-2.063-6.028-5.394-6.028C106.367,206.241,104.146,208.621,104.146,212.27 M140.788,204.655v15.229h-2.063v-13.166
	c-0.634,0.951-2.062,3.331-2.696,4.441s-1.428,3.014-2.063,4.283h-2.22c-1.27-2.855-3.014-6.028-4.759-8.725v13.166h-2.063v-15.229
	h2.855c1.745,2.38,2.38,3.331,3.173,4.759c0.951,1.586,1.269,2.221,1.903,3.808c1.27-2.856,3.172-6.028,5.075-8.566H140.788z
	 M148.562,212.27c0-4.601,3.014-7.772,7.455-7.772s7.455,3.172,7.455,7.772c0,4.282-2.538,7.932-7.455,7.932
	C151.575,220.201,148.562,217.028,148.562,212.27 M150.782,212.27c0,3.331,1.903,6.187,5.393,6.187c3.648,0,5.394-3.014,5.394-6.187
	c0-3.331-2.062-6.028-5.394-6.028C152.844,206.241,150.782,208.621,150.782,212.27 M181.872,215.759
	c0,1.428-0.635,2.539-1.744,3.331c-1.111,0.794-2.38,0.953-4.124,0.953h-4.601v-15.229h4.441c3.014,0,4.6,1.587,4.6,3.966
	c0,1.428-0.635,2.539-2.062,3.173C180.604,212.27,181.872,213.855,181.872,215.759z M173.465,211.477h2.063
	c1.903,0,3.014-0.635,3.014-2.538c0-1.745-1.11-2.538-3.014-2.538h-2.063V211.477z M179.81,215.601c0-2.062-1.586-2.696-3.965-2.696
	h-2.38v5.552h2.539C178.7,218.456,179.81,217.504,179.81,215.601z M190.28,204.655h2.062v15.229h-2.062V204.655z M204.08,218.298
	h6.662v1.745h-8.725v-15.388h2.063V218.298z M219.784,206.56V211h5.394v1.745h-5.394v5.553h7.138v1.745h-9.2v-15.388h8.725v1.904
	H219.784z M243.102,207.193c-0.635-0.634-1.903-0.952-3.173-0.952c-2.221,0-3.331,0.952-3.331,2.222
	c0,1.269,0.794,1.744,2.856,2.696c3.647,1.586,5.075,2.221,5.075,4.759c0,2.063-1.586,4.283-5.552,4.283
	c-2.063,0-4.124-0.635-5.394-1.587l0.951-1.586c1.111,0.793,2.856,1.428,4.601,1.428c2.38,0,3.49-1.11,3.49-2.538
	c0-1.269-1.11-1.745-3.648-2.855c-3.173-1.27-4.442-2.221-4.442-4.6c0-2.222,1.587-4.124,5.394-4.124
	c1.428,0,3.015,0.475,3.966,1.268L243.102,207.193z"/>
<linearGradient id="SVGID_1_" gradientUnits="userSpaceOnUse" x1="-887.5059" y1="-289.2051" x2="-887.5059" y2="-289.2941" gradientTransform="matrix(658.8911 0 0 -1028.03 584924.1875 -297219.75)">
	<stop  offset="0.04" style="stop-color:#8C8C8C"/>
	<stop  offset="0.194" style="stop-color:#B6B6B6"/>
	<stop  offset="0.403" style="stop-color:#EBEBEB"/>
	<stop  offset="0.506" style="stop-color:#FFFFFF"/>
	<stop  offset="0.564" style="stop-color:#FAFAFA"/>
	<stop  offset="0.633" style="stop-color:#EBEBEB"/>
	<stop  offset="0.707" style="stop-color:#D3D3D3"/>
	<stop  offset="0.786" style="stop-color:#B2B2B2"/>
	<stop  offset="0.868" style="stop-color:#878787"/>
	<stop  offset="0.952" style="stop-color:#535353"/>
	<stop  offset="0.96" style="stop-color:#4D4D4D"/>
</linearGradient>
<path fill="url(#SVGID_1_)" d="M182.446,132.815c-0.476-0.476-3.014-2.696-3.014-2.696L128.99,90.938
	c8.724,8.566,21.572,22.525,25.538,34.897c1.111,3.332,1.586,6.504,1.586,9.359c0,2.537-0.635,5.394-1.586,8.249
	c-2.062,5.233-6.345,11.262-12.849,18.082c-2.221,2.38-11.896,11.897-15.069,15.069c-0.635,0.635-1.109,1.587-1.269,2.697v2.854
	l56.629-44.097c0.635-0.477,1.903-1.428,1.903-3.015C183.716,134.085,182.764,133.134,182.446,132.815L182.446,132.815z"/>
<linearGradient id="SVGID_2_" gradientUnits="userSpaceOnUse" x1="-877.0981" y1="-301.6284" x2="-877.0927" y2="-301.7076" gradientTransform="matrix(398.6914 0 0 -317.7239 349853.9688 -95697.3984)">
	<stop  offset="0" style="stop-color:#BFBFBF"/>
	<stop  offset="0.212" style="stop-color:#666666"/>
	<stop  offset="0.274" style="stop-color:#595959"/>
	<stop  offset="0.516" style="stop-color:#292929"/>
	<stop  offset="0.701" style="stop-color:#0B0B0B"/>
	<stop  offset="0.806" style="stop-color:#000000"/>
</linearGradient>
<path fill="url(#SVGID_2_)" d="M145.963,164.065c-0.317-0.318,10.786-8.249,16.973-21.732c1.745-3.807,2.538-5.394,6.187-5.71
	c3.807-0.317,8.407-0.635,10.628-0.793c0.951,0,1.27,0.158,1.428,0.635c0.158,0.316-0.158,0.793-0.951,1.268
	c-5.87,4.124-14.595,11.264-26.491,20.622C153.26,158.988,146.122,164.224,145.963,164.065L145.963,164.065z"/>
<linearGradient id="SVGID_3_" gradientUnits="userSpaceOnUse" x1="-887.4985" y1="-289.7446" x2="-887.4985" y2="-289.8335" gradientTransform="matrix(658.6648 0 0 -1024.8883 584718.0625 -296916.5625)">
	<stop  offset="0.04" style="stop-color:#8C8C8C"/>
	<stop  offset="0.194" style="stop-color:#B6B6B6"/>
	<stop  offset="0.403" style="stop-color:#EBEBEB"/>
	<stop  offset="0.506" style="stop-color:#FFFFFF"/>
	<stop  offset="0.564" style="stop-color:#FAFAFA"/>
	<stop  offset="0.633" style="stop-color:#EBEBEB"/>
	<stop  offset="0.707" style="stop-color:#D3D3D3"/>
	<stop  offset="0.786" style="stop-color:#B2B2B2"/>
	<stop  offset="0.868" style="stop-color:#878787"/>
	<stop  offset="0.952" style="stop-color:#535353"/>
	<stop  offset="0.96" style="stop-color:#4D4D4D"/>
</linearGradient>
<path fill="url(#SVGID_3_)" d="M154.212,95.38c-1.111-3.332-1.587-6.504-1.587-9.359c0-2.538,0.635-5.394,1.587-8.249
	c2.062-5.234,6.345-11.262,12.848-18.083c2.063-2.221,10.628-10.787,15.069-15.07c0.794-0.792,1.11-1.586,1.428-2.696
	c0.159-0.952,0.159-1.746,0.159-2.063V38.91l-56.788,44.098c-0.317,0.317-1.269,1.11-1.745,2.063c-0.158,0.317-0.158,1.11,0,1.745
	c0.318,0.793,0.793,1.269,1.111,1.586c0.475,0.317,2.854,2.379,2.854,2.379l50.443,39.181
	C170.709,121.395,158.177,107.436,154.212,95.38L154.212,95.38z"/>
<path d="M151.355,94.587c-0.951-2.855-1.586-5.87-1.586-8.725c0-2.697,0.793-5.235,1.745-7.931
	c4.6-11.263,26.332-30.456,30.773-34.104c-3.648,2.855-19.67,16.497-23.794,20.78c-6.82,6.662-12.056,14.118-12.056,21.415
	c0,7.931,5.552,16.021,11.897,23.476c3.965,4.759,7.772,8.883,11.58,12.214c3.965,3.648,6.661,6.028,9.517,8.249
	C176.261,126.946,156.591,109.498,151.355,94.587L151.355,94.587z"/>
<linearGradient id="SVGID_4_" gradientUnits="userSpaceOnUse" x1="-874.8237" y1="-290.1738" x2="-874.8237" y2="-290.0846" gradientTransform="matrix(366.575 0 0 -968.3348 320854.8438 -280855.5)">
	<stop  offset="0.04" style="stop-color:#4D4D4D"/>
	<stop  offset="0.048" style="stop-color:#5A5A5A"/>
	<stop  offset="0.077" style="stop-color:#808080"/>
	<stop  offset="0.109" style="stop-color:#A3A3A3"/>
	<stop  offset="0.144" style="stop-color:#C0C0C0"/>
	<stop  offset="0.182" style="stop-color:#D7D7D7"/>
	<stop  offset="0.226" style="stop-color:#E9E9E9"/>
	<stop  offset="0.279" style="stop-color:#F6F6F6"/>
	<stop  offset="0.348" style="stop-color:#FDFDFD"/>
	<stop  offset="0.506" style="stop-color:#FFFFFF"/>
	<stop  offset="0.631" style="stop-color:#FDFDFD"/>
	<stop  offset="0.701" style="stop-color:#F5F5F5"/>
	<stop  offset="0.756" style="stop-color:#E7E7E7"/>
	<stop  offset="0.805" style="stop-color:#D3D3D3"/>
	<stop  offset="0.848" style="stop-color:#BABABA"/>
	<stop  offset="0.888" style="stop-color:#9B9B9B"/>
	<stop  offset="0.925" style="stop-color:#777777"/>
	<stop  offset="0.96" style="stop-color:#4D4D4D"/>
</linearGradient>
<path fill="url(#SVGID_4_)" d="M154.212,95.38c-1.111-3.332-1.587-6.504-1.587-9.359c0-2.538,0.635-5.394,1.587-8.249
	c2.062-5.234,6.345-11.262,12.848-18.083c2.063-2.221,10.628-10.787,15.069-15.07c0.159-0.158,0.317-0.317,0.477-0.634
	c-4.441,3.49-26.173,22.842-30.773,34.104c-1.111,2.697-1.744,5.235-1.744,7.932c0,2.855,0.475,5.869,1.586,8.724
	c5.234,14.911,24.587,32.201,27.918,35.374C170.549,121.236,158.177,107.436,154.212,95.38L154.212,95.38z"/>
<linearGradient id="SVGID_5_" gradientUnits="userSpaceOnUse" x1="-874.1621" y1="-289.6514" x2="-874.1621" y2="-289.5625" gradientTransform="matrix(366.575 0 0 -971.79 320588.0938 -281303.375)">
	<stop  offset="0.04" style="stop-color:#4D4D4D"/>
	<stop  offset="0.048" style="stop-color:#5A5A5A"/>
	<stop  offset="0.077" style="stop-color:#808080"/>
	<stop  offset="0.109" style="stop-color:#A3A3A3"/>
	<stop  offset="0.144" style="stop-color:#C0C0C0"/>
	<stop  offset="0.182" style="stop-color:#D7D7D7"/>
	<stop  offset="0.226" style="stop-color:#E9E9E9"/>
	<stop  offset="0.279" style="stop-color:#F6F6F6"/>
	<stop  offset="0.348" style="stop-color:#FDFDFD"/>
	<stop  offset="0.506" style="stop-color:#FFFFFF"/>
	<stop  offset="0.631" style="stop-color:#FDFDFD"/>
	<stop  offset="0.701" style="stop-color:#F5F5F5"/>
	<stop  offset="0.756" style="stop-color:#E7E7E7"/>
	<stop  offset="0.805" style="stop-color:#D3D3D3"/>
	<stop  offset="0.848" style="stop-color:#BABABA"/>
	<stop  offset="0.888" style="stop-color:#9B9B9B"/>
	<stop  offset="0.925" style="stop-color:#777777"/>
	<stop  offset="0.96" style="stop-color:#4D4D4D"/>
</linearGradient>
<path fill="url(#SVGID_5_)" d="M157.226,126.471c-5.235-14.911-25.063-32.677-28.235-35.532
	c8.724,8.566,21.572,22.525,25.538,34.897c1.111,3.332,1.586,6.504,1.586,9.359c0,2.537-0.635,5.394-1.586,8.249
	c-2.062,5.233-6.345,11.262-12.849,18.082c-2.221,2.38-11.896,11.897-15.069,15.069c-0.158,0.159-0.316,0.318-0.476,0.635
	c4.441-3.647,26.015-22.842,30.773-34.104c1.11-2.696,1.744-5.233,1.744-7.931C158.812,132.34,158.336,129.484,157.226,126.471z"/>
<path d="M150.404,111.719c-3.966-4.759-7.772-8.883-11.58-12.214c-3.966-3.648-6.979-6.345-9.834-8.566
	c3.331,2.855,23.159,20.78,28.235,35.532c0.951,2.855,1.586,5.869,1.586,8.725c0,2.697-0.793,5.234-1.745,7.931
	c-4.759,11.263-26.332,30.457-30.932,34.104v0.158c3.807-2.854,19.828-16.496,23.953-20.779c6.82-6.662,12.055-14.118,12.055-21.414
	C162.143,127.264,156.591,119.174,150.404,111.719L150.404,111.719z M103.769,85.863c0,7.931-5.393,15.862-12.531,23.159
	c-4.601,4.6-9.201,8.724-13.483,12.055c-4.441,3.649-7.932,6.028-11.104,8.249c3.649-2.855,26.015-20.146,31.884-34.898
	c1.111-2.855,1.745-5.71,1.745-8.565c0-2.855-0.634-5.711-1.745-8.566C92.665,62.545,70.299,45.254,66.65,42.399
	c3.172,2.22,6.663,4.6,11.104,8.249c4.283,3.331,8.883,7.456,13.483,12.055C98.375,70,103.769,78.09,103.769,85.863L103.769,85.863z
	"/>
<linearGradient id="SVGID_6_" gradientUnits="userSpaceOnUse" x1="-872.0264" y1="-289.9336" x2="-871.9201" y2="-290.0002" gradientTransform="matrix(360.5972 0 0 -993.7839 314500.8125 -288081.6563)">
	<stop  offset="0.018" style="stop-color:#F5F5F5"/>
	<stop  offset="0.327" style="stop-color:#F0F0F0"/>
	<stop  offset="0.687" style="stop-color:#E2E2E2"/>
	<stop  offset="0.727" style="stop-color:#E0E0E0"/>
	<stop  offset="0.96" style="stop-color:#B3B3B3"/>
</linearGradient>
<path fill="url(#SVGID_6_)" d="M66.65,129.326l-0.952,0.635V41.765l0.952,0.635c3.332,2.855,24.111,20.146,29.504,34.897
	c1.111,2.855,1.745,5.71,1.745,8.566c0,2.855-0.634,5.71-1.745,8.565C90.603,109.18,69.981,126.471,66.65,129.326"/>
<linearGradient id="SVGID_7_" gradientUnits="userSpaceOnUse" x1="-873.5991" y1="-290.1157" x2="-873.5991" y2="-290.0269" gradientTransform="matrix(379.7903 0 0 -978.3885 331867.8125 -283716.75)">
	<stop  offset="0.04" style="stop-color:#4D4D4D"/>
	<stop  offset="0.048" style="stop-color:#5A5A5A"/>
	<stop  offset="0.077" style="stop-color:#808080"/>
	<stop  offset="0.109" style="stop-color:#A3A3A3"/>
	<stop  offset="0.144" style="stop-color:#C0C0C0"/>
	<stop  offset="0.182" style="stop-color:#D7D7D7"/>
	<stop  offset="0.226" style="stop-color:#E9E9E9"/>
	<stop  offset="0.279" style="stop-color:#F6F6F6"/>
	<stop  offset="0.348" style="stop-color:#FDFDFD"/>
	<stop  offset="0.506" style="stop-color:#FFFFFF"/>
	<stop  offset="0.631" style="stop-color:#FDFDFD"/>
	<stop  offset="0.701" style="stop-color:#F5F5F5"/>
	<stop  offset="0.756" style="stop-color:#E7E7E7"/>
	<stop  offset="0.805" style="stop-color:#D3D3D3"/>
	<stop  offset="0.848" style="stop-color:#BABABA"/>
	<stop  offset="0.888" style="stop-color:#9B9B9B"/>
	<stop  offset="0.925" style="stop-color:#777777"/>
	<stop  offset="0.96" style="stop-color:#4D4D4D"/>
</linearGradient>
<path fill="url(#SVGID_7_)" d="M66.65,129.326c3.649-2.855,26.015-20.146,31.884-34.898c1.111-2.855,1.745-5.71,1.745-8.565
	c0-2.855-0.634-5.711-1.745-8.566C92.665,62.545,70.299,45.254,66.65,42.399c3.332,2.855,24.111,20.146,29.504,34.897
	c1.111,2.855,1.745,5.71,1.745,8.566c0,2.855-0.634,5.71-1.745,8.565C90.603,109.18,69.981,126.471,66.65,129.326z"/>
<path d="M182.764,132.499c-4.124-3.966-23-21.891-28.077-37.278c-1.109-3.172-1.586-6.186-1.586-9.2
	c0-2.697,0.635-5.235,1.586-7.932c2.38-6.027,7.456-12.531,12.69-17.924c2.221-2.379,11.896-11.897,15.069-15.229
	c0.793-0.793,1.27-1.745,1.428-2.697c0.158-0.951,0.317-1.903,0.317-2.538v-1.745L126.61,82.531
	c-0.635,0.476-1.586,1.269-1.903,2.539c-0.317-1.111-1.269-2.063-1.904-2.539L65.223,37.799v96.286l57.581-44.732
	c0.635-0.476,1.586-1.269,1.904-2.538c0.317,0.952,0.952,1.745,1.269,1.903c4.124,3.966,23.159,21.89,28.236,37.276
	c1.109,3.174,1.586,6.187,1.586,9.201c0,2.697-0.635,5.234-1.586,7.931c-2.38,6.028-7.456,12.532-12.69,17.925
	c-2.221,2.38-11.896,12.056-15.069,15.229c-0.635,0.635-1.27,1.744-1.428,2.696c-0.159,0.793-0.317,1.586-0.317,2.538v1.745
	l57.581-44.732c0.793-0.634,2.063-1.745,2.063-3.331C184.191,133.768,183.081,132.815,182.764,132.499L182.764,132.499z
	 M122.486,88.876l-56.788,44.097V38.91l56.629,44.098c0.634,0.476,1.903,1.586,1.903,3.014
	C124.231,87.29,123.121,88.4,122.486,88.876z M125.183,86.814c-0.158-0.635-0.158-1.269,0-1.745c0.318-0.952,1.27-1.745,1.745-2.063
	l56.629-44.098v0.793c0,0.317,0,1.11-0.158,2.062c-0.159,1.11-0.635,2.063-1.428,2.697c-4.283,4.283-13.008,12.849-15.069,15.069
	c-6.503,6.821-10.787,12.849-12.849,18.083c-1.11,2.855-1.586,5.552-1.586,8.249c0,3.014,0.634,6.186,1.586,9.358
	c3.966,12.214,16.496,26.015,25.221,34.582L129.148,90.78c0,0-2.38-2.062-2.854-2.379C125.976,88.083,125.501,87.449,125.183,86.814
	L125.183,86.814z M181.813,138.209l-56.63,44.099v-0.794c0-0.793,0.159-1.428,0.159-2.063c0.16-1.109,0.634-2.063,1.427-2.696
	l15.069-15.069c6.504-6.821,10.787-12.849,12.849-18.083c1.111-2.855,1.587-5.552,1.587-8.249c0-3.014-0.634-6.186-1.587-9.359
	c-4.124-12.372-16.813-26.332-25.538-34.897l50.602,39.338c0,0,2.538,2.222,3.014,2.698c0.317,0.316,1.269,1.269,1.269,2.379
	C183.716,136.623,182.446,137.732,181.813,138.209L181.813,138.209z"/>
<linearGradient id="SVGID_8_" gradientUnits="userSpaceOnUse" x1="-875.8198" y1="-303.2412" x2="-875.8256" y2="-303.3216" gradientTransform="matrix(387.6088 0 0 -317.3753 339621.0938 -96153.3984)">
	<stop  offset="0" style="stop-color:#BFBFBF"/>
	<stop  offset="0.212" style="stop-color:#666666"/>
	<stop  offset="0.274" style="stop-color:#595959"/>
	<stop  offset="0.516" style="stop-color:#292929"/>
	<stop  offset="0.701" style="stop-color:#0B0B0B"/>
	<stop  offset="0.806" style="stop-color:#000000"/>
</linearGradient>
<path fill="url(#SVGID_8_)" d="M161.666,114.732c0.159-0.159-5.71-5.869-6.503-6.504c-6.504-6.027-11.738-15.387-11.738-15.387
	c-1.903-3.807-2.538-5.393-6.187-5.71c-3.807-0.317-6.346-0.476-8.565-0.476c-0.952,0-1.27,0.159-1.428,0.634
	c-0.159,0.317,0.158,0.793,0.952,1.269c5.868,4.125,14.593,11.104,26.489,20.621C155.479,109.657,161.508,114.891,161.666,114.732
	L161.666,114.732z"/>
<linearGradient id="SVGID_9_" gradientUnits="userSpaceOnUse" x1="-886.5884" y1="-289.5264" x2="-886.5884" y2="-289.6152" gradientTransform="matrix(659.2061 0 0 -1059.1357 584539.625 -306608.4375)">
	<stop  offset="0.04" style="stop-color:#8C8C8C"/>
	<stop  offset="0.194" style="stop-color:#B6B6B6"/>
	<stop  offset="0.403" style="stop-color:#EBEBEB"/>
	<stop  offset="0.506" style="stop-color:#FFFFFF"/>
	<stop  offset="0.564" style="stop-color:#FAFAFA"/>
	<stop  offset="0.633" style="stop-color:#EBEBEB"/>
	<stop  offset="0.707" style="stop-color:#D3D3D3"/>
	<stop  offset="0.786" style="stop-color:#B2B2B2"/>
	<stop  offset="0.868" style="stop-color:#878787"/>
	<stop  offset="0.952" style="stop-color:#535353"/>
	<stop  offset="0.96" style="stop-color:#4D4D4D"/>
</linearGradient>
<path fill="url(#SVGID_9_)" d="M65.698,130.119l0.952-0.635c3.172-2.221,6.663-4.6,11.104-8.248
	c4.283-3.331,8.883-7.456,13.483-12.056c7.138-7.296,12.531-15.228,12.531-23.159c0-7.932-5.393-15.863-12.531-23.159
	c-4.601-4.601-9.201-8.725-13.483-12.056c-4.441-3.648-7.932-6.028-11.104-8.249l-0.952-0.634V38.91l56.629,44.098
	c0.634,0.476,1.903,1.586,1.903,3.014s-1.11,2.379-1.903,3.014l-56.629,43.938V130.119z"/>
<linearGradient id="SVGID_10_" gradientUnits="userSpaceOnUse" x1="-875.2969" y1="-303.2354" x2="-875.2913" y2="-303.3149" gradientTransform="matrix(394.8356 0 0 -317.4716 345701.625 -96180.8047)">
	<stop  offset="0" style="stop-color:#BFBFBF"/>
	<stop  offset="0.212" style="stop-color:#666666"/>
	<stop  offset="0.274" style="stop-color:#595959"/>
	<stop  offset="0.516" style="stop-color:#292929"/>
	<stop  offset="0.701" style="stop-color:#0B0B0B"/>
	<stop  offset="0.806" style="stop-color:#000000"/>
</linearGradient>
<path fill="url(#SVGID_10_)" d="M86.954,114.732c0,0,1.428-1.428,4.759-4.441c0.793-0.634,1.586-1.428,2.221-2.063
	c6.504-6.027,11.738-15.387,11.738-15.387c1.904-3.807,2.538-5.393,6.187-5.71c3.807-0.317,6.345-0.476,8.565-0.476
	c0.952,0,1.269,0.159,1.428,0.634c0.159,0.317-0.159,0.793-0.952,1.269c-5.869,4.125-14.435,11.263-26.491,20.621
	c-0.792,0.635-1.586,1.27-2.379,1.745C88.858,113.305,87.113,114.891,86.954,114.732L86.954,114.732z"/>
</svg>
