<?xml version="1.0" encoding="utf-8"?>
<!-- Generator: Adobe Illustrator 14.0.0, SVG Export Plug-In . SVG Version: 6.00 Build 43363)  -->
<!DOCTYPE svg PUBLIC "-//W3C//DTD SVG 1.0//EN" "http://www.w3.org/TR/2001/REC-SVG-20010904/DTD/svg10.dtd">
<svg version="1.0" id="Capa_1" xmlns="http://www.w3.org/2000/svg" xmlns:xlink="http://www.w3.org/1999/xlink" x="0px" y="0px"
	 width="250px" height="250px" viewBox="0 0 250 250" enable-background="new 0 0 250 250" xml:space="preserve">
<g>
	<path fill="#000C0A" d="M125.051,241.674c64.453,0,116.677-52.229,116.677-116.677c0-64.452-52.225-116.78-116.677-116.78
		C60.6,8.217,8.272,60.545,8.272,124.996C8.272,189.445,60.6,241.674,125.051,241.674z"/>
	<path fill="#FFFFFF" d="M125.051,238.745c62.834,0,113.75-50.914,113.75-113.749c0-62.835-50.914-113.851-113.75-113.851
		S11.303,62.161,11.303,124.996S62.217,238.745,125.051,238.745L125.051,238.745z"/>
	<path fill="#000C0A" d="M125.051,235.309c60.915,0,110.416-49.396,110.416-110.312c0-61.018-49.501-110.417-110.416-110.417
		c-60.916,0-110.415,49.398-110.415,110.417C14.636,185.912,64.136,235.309,125.051,235.309L125.051,235.309z"/>
	<path fill="#FFFFFF" d="M125.051,193.892c38.083,0,68.896-30.91,68.896-68.896c0-38.085-30.813-68.998-68.896-68.998
		c-38.085,0-68.997,30.913-68.997,68.998C56.055,162.981,86.966,193.892,125.051,193.892L125.051,193.892z M137.779,25.692
		c2.929,4.143,3.334,9.901,2.527,14.849c-0.909,4.547-4.547,7.376-8.688,8.689c-6.466,0.808-14.345,2.424-20.104-3.737
		c-3.232-4.546-3.232-10.305-2.021-16.063c1.618-6.161,8.688-7.778,14.447-8.183C128.991,21.248,134.144,22.056,137.779,25.692
		L137.779,25.692z"/>
	<path fill="#000C0A" d="M130.403,30.743c0.405,3.738,1.618,9.497-1.21,12.729c-2.526,1.819-6.061,2.525-8.587,0.808
		c-3.334-3.232-2.829-8.183-2.021-12.324c0.403-2.425,2.021-4.951,4.546-5.354C125.858,26.198,129.597,27.41,130.403,30.743
		L130.403,30.743z"/>
	<path fill="#FFFFFF" d="M186.876,44.583c1.718,4.951,0,9.497-2.426,13.537c-2.02,3.738-7.677,6.768-10.708,6.265
		c-6.668-1.212-12.326-5.354-18.891-9.395l13.032-23.54C174.552,35.087,182.733,37.209,186.876,44.583L186.876,44.583z"/>
	<path fill="#000C0A" d="M179.098,45.796c0.404,3.737-1.213,7.879-4.546,10.304c-3.233,2.525-9.9-2.425-9.9-2.425l7.373-13.637
		C174.955,41.755,178.289,42.563,179.098,45.796L179.098,45.796z"/>
	<path fill="#FFFFFF" d="M45.347,68.02c-2.426,2.829-5.355,5.355-5.759,8.991c0,1.213,1.11,2.728,2.524,2.526
		c4.042-3.334,8.183-10.304,13.942-8.688c2.929,0,5.758,2.93,6.566,5.353c1.717,7.375-3.637,13.639-8.586,18.487l-4.545-2.829
		c3.333-2.93,8.182-7.373,6.16-11.92c-6.363-3.132-7.374,8.587-13.94,8.587c-2.929,0-6.869-2.021-7.879-5.354
		c0,0-0.405-2.021-0.405-3.334c-0.101-2.323,0.91-4.849,2.021-6.97c1.212-2.02,2.526-3.636,2.526-3.636l3.737-4.142L45.347,68.02
		L45.347,68.02z M33.426,74.99c-0.91,0.101-2.526,0.304-3.535,0.404c0.202-0.707,1.111-2.929,1.111-2.929l3.233-0.505l-1.516-2.628
		c0.707-1.01,1.212-2.121,1.92-3.131l1.818,3.333L33.426,74.99L33.426,74.99z M218.092,80.244l-20.205,22.527l-3.839-8.183
		l4.851-4.648l-5.457-9.393l-6.162,1.413l-4.647-6.566l29.6-4.95L218.092,80.244L218.092,80.244z"/>
	<path fill="#000C0A" d="M202.129,85.799l-3.637-6.566l12.425-2.425L202.129,85.799L202.129,85.799z"/>
	<path fill="#FFFFFF" d="M83.128,215.308l-6.163-3.941l1.314-4.341l-5.557-4.144l-4.041,2.729c-1.616-1.414-3.131-2.828-4.646-4.242
		l16.063-11.923l8.283,4.951L83.128,215.308L83.128,215.308z M180.914,198.539c1.517,3.435,0.404,7.071-2.121,9.091
		c-3.232,3.333-6.97,5.354-11.515,4.951c-4.041-0.406-7.376-4.548-8.587-7.78c-0.809-3.334-0.809-6.87,1.615-9.09
		c3.332-2.932,6.567-4.852,11.112-5.354C175.561,190.357,179.299,194.902,180.914,198.539L180.914,198.539z"/>
	<path fill="#000C0A" d="M79.995,203.085l-3.838-2.729l5.456-4.545L79.995,203.085L79.995,203.085z M174.754,201.57
		c1.312,2.929-0.103,5.657-3.233,6.159c-4.242,0.809-5.658-3.837-7.071-6.263c-1.212-2.426,0.403-5.757,3.234-6.162
		C171.824,194.495,173.137,199.145,174.754,201.57L174.754,201.57z"/>
	<path fill="#FFFFFF" d="M104.746,215.41c-0.1,2.119,3.839,3.533,5.253,1.311c0.505-1.514,1.819-8.991,2.627-13.536
		c2.121,0.505,4.545,1.012,6.162,1.418c-0.504,3.431-1.009,13.026-5.153,16.667c-2.828,2.119-7.373,0.908-10.303,0
		c-6.568-2.326-5.456-7.78-5.456-7.78l3.031-12.728l6.263,1.312L104.746,215.41z M142.427,206.721l2.93,14.649l-6.466,1.313
		l-2.93-14.751l-5.051,1.212l-1.011-4.446l16.771-3.736l1.212,4.445L142.427,206.721z"/>
	<path fill="#009036" d="M137.072,67.01c17.577,18.891,27.276,44.449,19.699,71.522c0,0-2.223,6.465-2.829,9.092
		c-0.505,2.626-0.403,4.646-0.403,4.646c0.807,1.72,3.434,2.223,5.152,1.819c1.716-1.717-1.314-3.939,0.403-6.06
		c8.486-0.81,15.557,5.152,21.921,10.708c-5.554,6.77-13.94,13.231-22.527,11.112c-1.21-1.717,2.727-3.939,0.103-5.656
		l-62.533-0.104c-1.818,0.104-5.151,5.457-7.071,5.963c-2.727,0.605-7.272,0.501-8.485-0.203c-2.628-2.629-3.233-6.867-4.949-9.9
		c-1.719-3.737-9.498-7.577-8.184-10.405c0.606-1.011,15.558-3.232,25.155,0.201c3.636,1.617,7.375,4.951,11.213,3.939
		c0.2-0.101,0.505-0.201,0.707-0.706c1.009-11.72-7.475-24.649-19.901-30.609c-3.638-1.718-6.263-2.122-9.8-1.818
		c-3.738,0.201-7.677,0.604-10.201-1.212c-2.122-1.617-1.719-7.072-0.103-12.426c0.808-2.424,1.919-5.051,3.03-7.171
		c5.053-11.114,21.013,0.706,23.134,1.817c2.728,1.414,5.556,4.444,6.365,0.505c-0.203-2.526-5.152-4.95-8.385-6.667
		c-9.497-5.05-15.557-3.838-12.527-9.597c0.909-1.716,3.939-5.656,8.081-9.192c4.243-3.738,9.596-7.274,13.538-7.778
		c7.07-0.707,14.647,9.294,14.647,9.294l8.992,10.001c1.716,1.01,2.726-0.102,2.928-0.809c0.505-1.516-0.908-3.133-0.908-3.133
		s-4.141-5.05-6.365-7.272c-2.12-2.223-8.384-8.183-8.384-8.183c-2.425-4.243,2.122-5.557,4.646-5.961
		C121.414,61.959,130.403,59.736,137.072,67.01L137.072,67.01z"/>
	<path fill="#FFFFFF" d="M137.274,148.938c5.252,0,9.496-4.242,9.496-9.497c0-5.252-4.244-9.596-9.496-9.596
		c-5.253,0-9.496,4.344-9.496,9.596C127.778,144.695,132.021,148.938,137.274,148.938z M82.825,45.189
		c4.849,3.031,10.909,5.051,15.759,8.486L90.3,57.615l-14.546-7.576l0.202-15.456l7.475-3.94
		C84.238,34.785,82.925,40.644,82.825,45.189L82.825,45.189z M76.965,66.405L61.914,43.876l6.263-4.445L83.33,61.656L76.965,66.405z
		"/>
</g>
</svg>
