<?xml version="1.0" encoding="utf-8"?>
<!-- Generator: Adobe Illustrator 14.0.0, SVG Export Plug-In . SVG Version: 6.00 Build 43363)  -->
<!DOCTYPE svg PUBLIC "-//W3C//DTD SVG 1.0//EN" "http://www.w3.org/TR/2001/REC-SVG-20010904/DTD/svg10.dtd">
<svg version="1.0" id="Capa_1" xmlns="http://www.w3.org/2000/svg" xmlns:xlink="http://www.w3.org/1999/xlink" x="0px" y="0px"
	 width="250px" height="250px" viewBox="0 0 250 250" enable-background="new 0 0 250 250" xml:space="preserve">
<path fill="#255398" d="M246.167,240.764V9.236H4.666v231.527H246.167z"/>
<path fill="#FFFFFF" d="M197.305,201.843c0,9.025-5.406,14.742-14.176,14.956c-8.655,0.215-14.088-4.875-14.291-13.446
	c-0.204-8.527,5.456-14.411,14.037-14.623C191.458,188.52,197.305,193.829,197.305,201.843L197.305,201.843z M175.874,203.433
	c0.153,6.48,2.892,10.133,7.397,10.128c5.915-0.007,7.152-6.844,7.062-10.716c-0.149-6.316-2.41-10.787-7.195-10.777
	C178.356,192.077,175.705,196.367,175.874,203.433L175.874,203.433z M138.233,193.572l1.025-3.145
	c-2.805-1.285-6.313-1.719-9.36-1.719c-12.544,0-16.667,8.436-16.667,14.13c0,7.372,4.909,13.959,15.375,13.959
	c7.222,0,11.345-2.458,11.345-2.458v-11.307h-6.919l-0.003,9.813c0,0-0.093,0.085-0.245,0.156c-0.88,0.392-2.641,0.608-4.443,0.354
	c-4.6-0.648-7.648-4.808-7.648-10.419c0-6.626,5.858-10.219,9.774-10.382C134.393,192.396,136.985,193.222,138.233,193.572
	L138.233,193.572z M222.246,193.32h-8.706v22.29h-7.051v-22.29h-8.468v-3.618h24.225V193.32L222.246,193.32z M30.513,189.702h13.772
	c5.229,0,6.417,0.185,8.299,0.994c2.385,0.996,4.137,4.029,4.137,6.528c0,7.483-5.388,8.84-11.826,8.84h-6.979v9.546h-7.404V189.702
	z M37.895,203.121l5.267-0.002c3.596,0,6.067-2.249,6.067-5.104c0-2.831-2.509-5.112-5.738-5.112l-5.597,0.026v10.192H37.895
	L37.895,203.121z M97.016,216.799h0.042c4.705,0,7.48-1.244,9.975-3.744c1.492-1.498,2.421-3.316,2.421-7.559v-15.794h-6.884
	c0,0-0.007,13.773-0.007,17.765c0,3.538-2.305,5.809-5.505,5.809h-0.025c-3.208,0-5.611-2.149-5.611-6.096l-0.004-17.478h-6.885
	v15.646c0,4.383,1.072,6.403,2.567,7.899c2.492,2.498,5.231,3.552,9.934,3.552H97.016L97.016,216.799z M66.802,211.438h12.932v4.171
	H59.788v-25.907h19.946v3.676H66.802v6.497H77.25v3.144H66.802V211.438z M152.93,211.535h12.933v4.074h-19.945v-25.907h19.945v3.771
	H152.93v6.498h10.448v3.146H152.93V211.535L152.93,211.535z"/>
<path fill="#A6A8AA" d="M142.28,139.229c4.415,3.056,6.395,4.435,10.74,6.743c3.606-1.553,7.815-0.071,7.163,3.04
	c-0.432,2.061-0.792,6.458-3.084,6.292c-2.536-0.211-5.336-1.483-8.729,0.602c-2.283,1.34-5.426,7.489-7.456,7.984
	c0.89,1.243,1.775,2.488,2.657,3.736c5.736,0,10.057,3.088,12.301,4.539c9.371-4.14,13.055-2.398,22.338-0.65
	c1.148,0.219,1.762-1.64,1.399-3.147c-0.62-2.569-2.172-6.222-2.274-7.85l-0.005-21.501c-1.371-1.685-3.264-4.767-3.271-4.765
	c-3.938,1.046-5.775,0.811-6.5-1.56c-0.78-2.558-2.684-7.834-4.173-11.158c0,0,8.43-1.04,13.468-7.4
	c1.884-2.381,3.902-6.334,3.86-11.089c-0.091-10.65-8.161-26.335-10.183-31.746c-1.217-3.255-4.734-11.823-1.327-15.332
	c1.338-1.373,4.095-2.123,6.061,2.176c0.953,2.082,1.372,1.181,1.183,1.56c-2.449,3.97-3.904,6.099-2.88,9.729
	c1.429,5.065,7.674,9.895,9.668,11.222c0,0,3.333,2.278,4.006,1.744c1.595-1.271-2.311-7.99-2.229-9.349
	c0.075-1.245,0.123-2.375,0.512-3.682c0.436-1.468,1.106-3.632,1.495-5.858c1.251-7.087-4.339-16.917-10.84-17.844
	c-1.733-0.248-7.26,1.946-12.088,9.514c-0.918,1.434-2.236,5.123-2.094,7.947c-2.367-5.936-5.273-12.681-8.444-17.665
	c-1.023-2.356-6.407-8.917-8.025-9.371c-4.458-1.249-8.374-0.481-12.585-1.164c-1.733,0.184-14.124,3.013-14.541,3.621
	c0,0-3.016,4.95-3.016,4.977c-3.075,0.792-7.036,2.174-7.499,2.806c-1.367,1.74-2.666,2.477-2.226,3.189
	c0.585,2.026,1.89,2.42,1.89,2.42l6.768,0.009c1.765-3.118,7.155-2.652,10.306,0.072c1.116,0.965,0.003,0.157,0.512,1.641
	c-1.83,0.792-4.758,1.767-6.856,1.211c-2.883-0.427-8.699-0.842-10.299-0.25l1.16,1.994c1.765,0.789,5.501,1.132,6.894,1.158
	c2.245,0.052,5.588,0.29,8.517,0.052c-1.465,2.189-2.338,5.094-4.317,5.094h-7.857c0.114,0.544-1.664,0.421-1.488,0.936
	c0,0,1.157,1.448,1.792,2.372l4.696,0.25c2.147,0.131,2.005,2.272,1.226,3.487c-1.319,2.031-5.004,5.828-8.177,6.146
	c-7.956-7.281-13.912-12.582-21.721-19.097c-1.318-1.109-2.783-1.634-4.956-2.033c-2.17-0.394-5.808-0.737-9.006-0.737
	c-1.366,0-8.475-0.804-8.963-0.329l1.333,2.09c0.181,1.113-0.079,1.676-0.282,3.752c-0.07,0.832-0.391,2.296-0.391,2.296
	s1.024,1.466,1.851,2.767c3.467-1.414,6.359,1.303,6.359,1.303l-2.547,1.918l2.445,3.583c4.147,1.632,7.035,1.789,13.054,0.514
	L99.191,86.99l-21.179,1.134c-2.929,0.105-5.175,2.504-5.881,4.536c-0.733,2.004-4.615,2.799-4.788,4.407l2.494,3.814l1.448-0.456
	c0.861,1.085,2.275,3.256,4.444,4.305c0.757-1.447,2.79-3.221,5.205-2.699c0.632,0.836,2.152,3.207,2.152,3.207
	c3.611,0.606,7.935-2.291,8.69-5.982l17.494-0.258l9.67,11.916c-6.75,9.561-13.717,20.753-20.309,31.746
	c2.88,2.744,1.883,8.343-2.845,8.868c-3.229,0.359-6.786-2.771-11.131-1.741c-4.33,0.992-9.418,3.979-12.003,7.912
	c0.458,0.706,2.471,3.63,2.471,3.63c3.707,0.96,8.163,3.13,11.285,7.414c5.386-3.717,17.574-0.327,22.112,1.256
	c1.246,0.537,2.262-0.444,2.171-2.28c-0.104-2.062-2.069-4.992-0.984-8.357c1.938-6.009,16.349-18.47,24.247-26.312
	C133.952,133.047,139.476,137.294,142.28,139.229z M169.596,86.527c2.486,6.586,3.38,9.406,4.183,13.881
	c0.639,3.576,0.295,6.819-1.034,8.688c-1.551,2.189-5.671,5.649-13.735,3.654l0.006-0.016c-2.513-3.852-7.493-11.223-9.757-14.886
	c1.613-6.171,2.343-7.674,3.612-13.557l3.181,1.7c1.489-4.381,5.115-15.276,5.823-19.232c0,0,1.129,2.162,1.947,4.709
	C165.638,77.091,167.769,81.686,169.596,86.527L169.596,86.527z M126.859,42.367c-1.542,0.714-4.356,1.745-6.655,2.565
	c-0.514-1.321-0.563-2.38-0.343-3.939c1.899-0.313,4.746-0.715,6.583-0.715C127.616,40.278,127.936,41.839,126.859,42.367z"/>
<path fill="#FFFFFF" d="M181.516,69.236c0.093-1.246,0.428-2.38,0.818-3.692c0.442-1.497,1.256-3.627,1.501-5.871
	c0.771-7.084-3.146-13.614-9.662-14.544c-1.736-0.248-8.642-1.392-13.482,6.194c-0.918,1.438-2.238,5.136-2.099,7.967
	c-2.37-5.95-5.287-12.711-8.465-17.709c-0.684-0.979-4.257-5.393-5.236-5.685c-4.452-1.243-9.762-2.539-13.994-3.228
	c-1.736,0.185-14.727,5.051-15.142,5.659c0,0-1.493,1.639-1.493,1.666c-3.081,0.794-9.442,1.826-9.907,2.461
	c-1.372,1.745-0.417,3.384,0.024,4.099c0.146,0.264,1.175,4.045,3.009,4.045l4.917,0.015c2.398-4.231,9.404-4.439,11.361,1.246
	c-1.842,0.798-3.304,1.695-6.921,1.214c-4.389-0.653-8.775,0.915-8.753,1.553c0.035,1.01,5.166,1.345,6.493,1.37
	c2.262,0.052,5.643,0.29,8.594,0.051c-1.468,2.195-4.363,3.039-6.343,3.039h-7.878c0.344,1.683,1.018,3.283,1.98,4.706h3.231
	c2.152,0.132,1.487,0.968,1.026,2.354c-0.83,2.505-2.336,6.295-4.707,8.5c-7.975-7.298-18.666-16.433-26.214-22.234
	c-2.206-1.696-11.275-2.883-15.818-1.073c-1.304,0.518-2.127,1.635-2.583,2.543l2.26,0.677c-4.146,2.608-1.577,7.499-1.577,7.499
	c2.008-0.452,5.165-1.507,8.464,3.617l-2.798,2.335c1.417,1.056,9.935,2.092,12.375,0.509c0,0,10.065,14.09,11.139,14.691
	c0.585,0.326-4.093,0.602-9.316,0.996c-4.488,0.076-8.688,0.151-11.981,0.227c-2.963,0.067-5.118,2.427-5.827,4.462
	c-0.733,2.011-1.517,6.274-1.174,8.127l1.64-0.555c2.08,3.622,2.178,4.436,4.869,5.496c1.505-3.997,7.165-3.568,7.165-3.568
	l-0.064,3.64c7.856-0.053,8.609-6.021,8.609-6.021l15.323-0.252l9.695,12.335c-7.953,8.687-13.5,19.434-19.496,30.917
	c2.889,2.753,1.888,8.365-2.855,8.892c-3.233,0.358-6.801-2.776-11.155-1.746c-5.309,1.218-4.208,5.684-8.391,11.53
	c4.183,1.085,8.549,3.942,11.423,7.425c5.742-3.821,17.372-0.868,21.922,0.718c1.011,0.344,1.431-1.578,0.771-3.202
	c-0.537-1.321-1.307-3.379,0.06-6.74c1.225-3.014,14.898-17.612,24.584-26.882c0.057-0.053,3.393,2.604,6.755,5.195
	c5.253,4.054,12.241,8.153,12.241,8.153l1.401-0.117c6.358-1.432,7.442,4.463,6.733,6.443c-0.707,1.981-2.585,3.175-4.879,3.006
	c-2.546-0.21-5.353-1.484-8.753,0.604c-3.425,2.011-1.956,8.726-4.036,11.555c5.748,0,10.373,3.093,12.625,4.547
	c9.394-4.149,12.139-2.88,21.653-1.188c0.662,0.132,1.186-1.803,0.457-2.92c-0.686-1.041-1.747-3.821-1.555-6.121V134.26
	c-6.068,0.848-8.856-1.797-9.909-5.235c-0.783-2.564-3.083-7.798-4.572-11.133c0,0,9.356-0.25,14.406-6.626
	c1.889-2.389,3.511-7.217,2.641-11.757c-1.202-6.292-1.985-8.399-4.091-13.899c-1.749-4.58-4.992-12.947-6.331-17.712
	c-1.895-6.738-2.177-9.742-0.163-13.465c1.222-2.261,3.869-4.389,6.885-2.837c1.979,1.016,1.546,1.602,1.357,1.981
	c-2.456,3.979-3.443,9.135-2.416,12.773c1.431,5.078,5.998,9.178,7.998,10.508c0,0,3.341,2.285,4.012,1.75
	C185.496,77.333,181.359,71.228,181.516,69.236L181.516,69.236z M125.925,40.747c-1.538,0.711-4.344,1.741-6.638,2.559
	c-0.512-1.319-0.563-2.375-0.343-3.93c1.929-0.316,4.734-0.713,6.565-0.713C126.682,38.662,126.996,40.219,125.925,40.747
	L125.925,40.747z M165.805,83.547c2.488,6.601,3.388,9.429,4.19,13.913c0.642,3.584,0.298,6.837-1.034,8.711
	c-1.557,2.193-5.685,5.66-13.77,3.663l0.005-0.018c-2.52-3.861-6.999-10.839-9.264-14.511c1.615-6.188,2.351-7.695,3.621-13.59
	c0,0,3.533,2.035,3.693,1.322c0.59-2.615,4.627-14.93,5.335-18.897c0,0,0.614,1.755,1.438,4.311
	C161.835,74.087,163.975,78.693,165.805,83.547L165.805,83.547z"/>
<path fill="#E6E6E7" d="M165.81,83.58c2.488,6.598,3.384,9.422,4.187,13.904c0.631,3.525,0.31,6.772-1.033,8.657
	c-1.558,2.191-5.683,5.675-13.758,3.677l0.006,0.009c-2.518-3.857-6.992-10.828-9.257-14.498c1.613-6.183,2.346-7.687,3.618-13.577
	c0,0,3.532,2.035,3.691,1.321c0.591-2.611,4.618-14.918,5.327-18.879c0,0,0.617,1.752,1.438,4.305
	C161.847,74.131,163.981,78.733,165.81,83.58L165.81,83.58z M137.602,57.929c0,17.439-7.825,30.31-8.835,45.847
	c-0.645,9.945-0.009,16.114,2.727,25.244c0,0,3.333,2.59,6.692,5.18c5.253,4.051,12.153,8.26,12.153,8.26l1.785-0.178
	c5.992-1.446,7.051,4.521,6.342,6.499c-0.706,1.979-2.489,3.015-4.782,2.849c-2.542-0.208-5.346-1.485-8.743,0.604
	c-3.422,2.007-1.988,8.795-4.066,11.623c5.743,0,10.396,3.125,12.646,4.58c9.386-4.15,12.206-2.824,21.715-1.134
	c0.659,0.134,1.144-1.866,0.395-3.197c-0.608-1.089-1.704-3.743-1.548-5.886l-0.025-24.005c-6.06,0.845-8.848-1.796-9.901-5.231
	c-0.777-2.563-3.003-7.715-4.494-11.043c0,0,9.351-0.25,14.397-6.621c1.889-2.385,3.482-6.327,2.781-11.697
	c-0.762-5.863-2.796-10.795-4.003-14.114c-1.679-4.604-5.108-12.586-6.446-17.347c-1.893-6.732-2.486-9.589-0.344-13.67
	c1.191-2.276,3.867-4.421,6.879-2.872c1.978,1.017,1.543,1.601,1.355,1.98c-2.453,3.977-3.441,9.128-2.416,12.763
	c1.433,5.074,5.995,9.171,7.995,10.5c0,0,3.403,2.325,4.074,1.79c1.599-1.273-2.558-7.415-2.403-9.407
	c0.094-1.245,0.414-2.377,0.803-3.688c0.442-1.496,1.313-3.72,1.557-5.962c0.771-7.078-3.224-13.604-9.736-14.533
	c-1.736-0.249-8.631-1.374-13.474,6.208c-0.901,1.417-2.246,4.881-2.093,7.967c-2.37-5.945-5.249-12.7-8.428-17.692
	c-0.685-0.979-4.254-5.39-5.231-5.681c-3.984-1.112-11.823-3.087-13.98-3.222C130.948,32.647,137.602,40.49,137.602,57.929
	L137.602,57.929z"/>
</svg>
