<?xml version="1.0" encoding="utf-8"?>
<!-- Generator: Adobe Illustrator 14.0.0, SVG Export Plug-In . SVG Version: 6.00 Build 43363)  -->
<!DOCTYPE svg PUBLIC "-//W3C//DTD SVG 1.1//EN" "http://www.w3.org/Graphics/SVG/1.1/DTD/svg11.dtd">
<svg version="1.1" id="Capa_1" xmlns="http://www.w3.org/2000/svg" xmlns:xlink="http://www.w3.org/1999/xlink" x="0px" y="0px"
	 width="250px" height="250px" viewBox="0 0 250 250" enable-background="new 0 0 250 250" xml:space="preserve">
<path fill="#CC2132" d="M55.942,165.953l-9.268,25.49h5.87l1.854-4.942h8.806l1.854,4.942h6.798l-8.652-25.49H55.942z
	 M56.098,182.277l2.884-7.364l2.729,7.364H56.098z"/>
<polygon fill="#CC2132" points="33.8,165.953 26.385,165.953 19.226,175.119 19.226,165.954 11.657,165.954 11.657,191.443 
	19.227,191.443 19.227,181.145 27.673,191.443 36.067,191.443 25.356,177.85 "/>
<polygon fill="#CC2132" points="105.328,165.953 100.332,179.445 94.823,165.953 87.717,165.953 83.958,191.443 89.878,191.443 
	92.092,177.848 97.86,191.443 102.392,191.443 107.798,177.848 110.013,191.443 116.553,191.443 113.051,165.953 "/>
<rect x="37.868" y="165.953" fill="#CC2132" width="7.106" height="25.49"/>
<path fill="#CC2132" d="M231.393,176.871l-2.781-1.339c-1.443-0.671-3.553-1.701-3.553-3.503c0-2.112,2.625-2.883,4.323-2.883
	c2.011,0,3.813,0.721,5.614,1.543h0.003v-3.604c-2.214-1.082-4.481-1.7-7.003-1.7c-4.738,0-10.402,2.628-10.402,8.087
	c0,4.117,3.655,6.023,6.897,7.569l2.68,1.235c1.442,0.723,3.192,1.597,3.192,3.451c0,2.059-2.319,3.141-4.12,3.141
	c-2.884,0-5.562-1.391-8.138-2.574l1.031,3.811c2.831,1.547,5.613,2.574,8.857,2.574c4.941,0,9.27-2.935,9.27-8.188
	C237.264,180.682,234.635,178.416,231.393,176.871z"/>
<path fill="#CC2132" d="M201.318,135.932c17.768-7.877,40.219-22.399,40.219-44.44c0-27.757-35.842-44.7-58.346-50.828
	c-19.002-5.15-38.726-7.88-58.397-7.88c-11.834,0.007-23.648,0.971-35.325,2.883c-14.06,2.267-28.17,5.666-41.25,11.433
	C30.453,54.978,8,69.5,8,91.49c0,27.756,35.893,44.751,58.397,50.879c19.002,5.15,38.674,7.826,58.397,7.826
	c11.792,0,23.636-0.926,35.274-2.831C174.178,145.044,188.236,141.701,201.318,135.932z"/>
<polygon fill="#CC2132" points="143.645,170.124 151.111,170.124 151.111,191.443 158.475,191.443 158.475,170.124 165.58,170.124 
	165.58,165.953 143.645,165.953 "/>
<path fill="#CC2132" d="M216.354,188.457l-6.281-9.167c2.629-1.339,4.842-3.758,4.842-6.847c0-4.944-5.51-6.49-9.477-6.49h-11.275
	v25.488h7.877v-12.152l7.005,9.99c0.668,0.93,2.06,2.164,3.243,2.164h6.283v-0.721C217.693,190.053,216.923,189.384,216.354,188.457
	z M202.038,178.52v-8.498h0.362c2.473,0,5.201,0.722,5.201,3.709C207.602,176.82,204.665,178.158,202.038,178.52z"/>
<g>
	<path fill="#CC2132" d="M131.076,164.614c-7.724,0-14.675,6.075-14.675,14.009c0,7.878,6.952,14.006,14.675,14.006
		c7.727,0,14.729-6.128,14.729-14.006C145.805,170.689,138.803,164.614,131.076,164.614z M131.076,188.199
		c-4.789,0-7.364-5.355-7.364-9.475c0-4.174,2.522-9.578,7.364-9.578c4.789,0,7.314,5.354,7.314,9.578
		C138.391,182.895,135.865,188.199,131.076,188.199z"/>
	<path fill="#CC2132" d="M178.4,164.614c-7.721,0-14.727,6.075-14.728,14.009c0,7.878,7.007,14.006,14.728,14.006
		c7.675,0,14.679-6.128,14.679-14.006C193.079,170.689,186.074,164.614,178.4,164.614z M178.352,188.199
		c-4.789,0-7.314-5.305-7.314-9.475c0-4.225,2.473-9.578,7.314-9.578c4.84,0,7.362,5.354,7.362,9.578
		C185.714,182.895,183.139,188.199,178.352,188.199z"/>
</g>
<path fill="#FFFFFF" d="M194.982,56.833c-12.152-4.481-25.078-6.901-37.901-8.651c-10.763-1.444-21.626-2.268-32.493-2.268
	c-18.126,0-36.203,2.215-53.917,6.077c-17.354,3.863-53.865,16.942-53.865,39.292c0,17.87,23.327,29.354,37.334,34.502
	c12.204,4.48,25.079,6.849,37.952,8.65c10.764,1.443,21.63,2.215,32.496,2.215c18.127,0,36.202-2.161,53.866-6.025
	c17.403-3.859,53.916-16.941,53.916-39.341C232.37,73.415,208.99,61.983,194.982,56.833z M88.437,119.349L69.539,94.63v24.719
	H53.832V67.285l-3.245-1.544v-2.37h18.952V83.97l15.19-20.599h17.407l-17.407,25.8l21.424,30.178H88.437z M134.115,119.348H118.46
	V67.285l-3.039-1.544V63.37h18.694V119.348z M189.889,119.348l-12.671-36.821l-12.669,36.821H149.41l17.355-52.063l-2.988-1.544
	V63.37h22.558l18.849,55.978H189.889z"/>
</svg>
