<?xml version="1.0" encoding="utf-8"?>
<!-- Generator: Adobe Illustrator 14.0.0, SVG Export Plug-In . SVG Version: 6.00 Build 43363)  -->
<!DOCTYPE svg PUBLIC "-//W3C//DTD SVG 1.0//EN" "http://www.w3.org/TR/2001/REC-SVG-20010904/DTD/svg10.dtd">
<svg version="1.0" id="Capa_1" xmlns="http://www.w3.org/2000/svg" xmlns:xlink="http://www.w3.org/1999/xlink" x="0px" y="0px"
	 width="250px" height="250px" viewBox="0 0 250 250" enable-background="new 0 0 250 250" xml:space="preserve">
<path d="M127.957,38.694c-6.684,8.244-25.75,34.857-27.923,38.303c-4.183,6.602-4.553,9.802-4.676,11.934
	c-0.122,2.092-0.122,5.865,3.282,8.941c5.701,5.085,13.695,4.264,20.792,4.264h58.438c2.5,0,3.241-0.74,4.594-2.542
	c4.673-7.136,6.766-14.887,6.766-21.818c0-14.846-9.636-33.544-34.036-41.993l-2.752,3.937c19.356,9.184,27.355,21.2,27.355,38.013
	c0.122,4.512-1.069,9.392-4.021,13.903h-56.839c-3.404,0-3.896-3.854-2.665-6.029c4.873-8.672,10.311-17.015,16.279-24.973
	c5.742-7.669,11.399-14.846,17.346-22.349c1.602-2.091,0.533-4.102-2.664-4.757c-6.644-1.395-13.574-2.378-21.98-2.378
	c-46.625,0-63.686,26.777-63.686,46.626c0,21.531,17.182,46.505,63.809,46.505c25.877,0,42.814-8.327,52.614-19.03h-9.885
	c-8.572,7.916-23.294,13.536-42.729,13.536c-39.492,0-54.048-22.188-54.048-41.299c0.286-17.059,15.91-40.598,55.034-41.377
	C127.837,36.069,128.984,37.423,127.957,38.694L127.957,38.694z"/>
<path d="M227.465,161.949c1.67,0.234,2.961,1.553,2.961,3.108c0,1.756-1.584,3.164-3.518,3.164h-35.814v-23.419h-10.553v23.479
	h-19.402c-5.246,0-6.33-3.195-6.33-6.127v-17.497h-17.496c-1.732,1.173-3.4,2.463-5.189,3.546l-10.376,6.39l-13.481-9.847H87.28
	v5.891h7.59v-3.226l17.849,12.811l-12.192,7.647H87.279v5.892h15.328c1.642-1.112,3.196-2.286,4.895-3.312l10.668-6.478l13.54,9.673
	h15.42l-20.373-15.329l10.465-6.827c2.229-1.468,4.574-2.697,6.859-4.044v15.416c0,6.507,1.67,11.021,14.771,11.021l74.006-0.175
	c5.713,0.085,9.377-3.869,9.377-8.646c0-4.751-4.221-8.647-9.377-8.647h-26.73c0.354-3.253,3.164-5.978,6.006-5.978h27.055
	l-0.086-5.656h-28.695c-9.086,0-16.354,7.532-16.559,16.296c-0.027,0.615,0.379,0.995,1.055,0.995L227.465,161.949L227.465,161.949z
	"/>
<rect x="87.28" y="155.854" width="5.217" height="6.009"/>
<path d="M87.28,144.746H67.467c-5.364,0-9.497,1.406-12.544,3.809c-5.48,4.338-7.239,8.909-7.181,10.963h7.151
	c-3.136,2.345-5.247,5.155-6.359,8.412H25.085c-4.22,0-6.947-2.989-6.947-5.893V144.54H7.764v18.172
	c0,6.535,6.214,11.049,16.178,11.049H87.28v-5.892H62.133c0.117-2.989,3.311-6.007,6.213-6.007H87.28v-6.009h-25.44
	c-0.351-1.758,2.932-5.217,5.451-5.217H87.28V144.746L87.28,144.746z"/>
</svg>
