<?xml version="1.0" encoding="utf-8"?>
<!-- Generator: Adobe Illustrator 14.0.0, SVG Export Plug-In . SVG Version: 6.00 Build 43363)  -->
<!DOCTYPE svg PUBLIC "-//W3C//DTD SVG 1.0//EN" "http://www.w3.org/TR/2001/REC-SVG-20010904/DTD/svg10.dtd">
<svg version="1.0" id="Capa_1" xmlns="http://www.w3.org/2000/svg" xmlns:xlink="http://www.w3.org/1999/xlink" x="0px" y="0px"
	 width="250px" height="250px" viewBox="0 0 250 250" enable-background="new 0 0 250 250" xml:space="preserve">
<path d="M12.345,238.87v0.31c0,1.593,0.543,1.981,3.185,2.215v0.739c-1.943-0.156-2.836-0.193-3.806-0.193
	c-1.009,0-1.862,0.035-3.806,0.193v-0.739c2.642-0.231,3.03-0.544,3.185-2.522l0.971-19.568v-0.313c0-1.63-0.583-2.017-3.183-2.214
	v-0.778c1.32,0.119,1.901,0.157,2.755,0.157c1.202,0,2.096-0.038,3.339-0.193l7.299,20.652l7.416-20.652
	c1.788,0.155,2.45,0.193,3.418,0.193c0.739,0,1.398-0.038,2.678-0.157v0.778c-2.56,0.197-3.183,0.582-3.183,2.177v0.349
	l0.425,19.567c0.04,1.902,0.505,2.291,3.186,2.522v0.739c-2.214-0.234-3.224-0.312-4.466-0.312c-1.242,0-2.252,0.077-4.465,0.312
	v-0.777c2.445-0.115,3.186-0.619,3.186-2.175v-0.351l-0.353-20.657l-8.229,23.104h-0.505l-8.114-23.104L12.345,238.87L12.345,238.87
	z M53.353,235.997c-0.387,4.035-2.793,6.406-6.521,6.406c-4.931,0-7.647-3.34-7.647-9.396c0-6.017,2.795-9.744,7.336-9.744
	c4.425,0,6.833,3.144,6.795,8.966H41.588c0,6.096,1.711,8.97,5.282,8.97c2.794,0,4.504-1.785,4.932-5.202H53.353L53.353,235.997z
	 M50.907,230.833c-0.233-4.387-1.708-6.601-4.427-6.601c-2.6,0-4.31,2.331-4.776,6.601H50.907z M56.304,223.922
	c1.579-0.14,3.139-0.438,4.659-0.892l0.232,2.21l0.078,1.596c0.66-2.214,2.369-3.574,4.426-3.574c1.865,0,3.223,1.203,3.223,2.911
	c0,1.125-0.582,1.824-1.512,1.824c-0.817,0-1.437-0.545-1.437-1.276c0-0.157,0-0.157,0.154-0.703c0.04-0.073,0.04-0.192,0.04-0.27
	c0-0.545-0.507-0.933-1.243-0.933c-2.096,0-3.494,2.717-3.494,6.876v7.803c0,1.55,0.467,1.862,2.795,1.98v0.66
	c-1.944-0.192-2.874-0.234-4-0.234c-1.126,0-2.058,0.042-3.998,0.234v-0.66c2.33-0.117,2.793-0.431,2.793-1.98v-12.579
	c0-2.334-0.037-2.37-2.716-2.448v-0.545H56.304L56.304,223.922z M83.372,228.971h-0.737c-0.313-1.281-0.504-1.864-0.932-2.642
	c-0.779-1.281-2.136-2.097-3.534-2.097c-2.991,0-4.777,3.263-4.777,8.775c0,5.438,1.554,8.191,4.659,8.191
	c2.41,0,3.766-1.629,4.234-5.166h1.552c-0.466,4.076-2.565,6.368-5.943,6.368c-4.345,0-7.259-3.765-7.259-9.396
	c0-5.824,2.95-9.744,7.377-9.744c1.554,0,2.563,0.428,3.727,1.593l0.972-1.943h0.66V228.971L83.372,228.971z M101.274,235.997
	c-0.388,4.035-2.794,6.406-6.523,6.406c-4.93,0-7.65-3.34-7.65-9.396c0-6.017,2.796-9.744,7.338-9.744
	c4.426,0,6.833,3.144,6.796,8.966H89.507c0,6.096,1.71,8.97,5.281,8.97c2.795,0,4.502-1.785,4.933-5.202H101.274z M98.829,230.833
	c-0.234-4.387-1.711-6.601-4.427-6.601c-2.601,0-4.31,2.331-4.776,6.601H98.829z M121.386,241.436c-2.6,0.308-3.22,0.427-4.581,0.89
	c-0.25-1.11-0.393-2.243-0.427-3.381c-1.086,2.295-2.678,3.381-4.93,3.381c-4.038,0-6.873-3.88-6.873-9.432
	c0-5.633,2.794-9.512,6.834-9.512c2.174,0,3.57,0.971,4.813,3.455v-7.496c0-1.862-0.27-2.096-2.757-2.096v-0.54
	c1.904-0.197,3.689-0.507,5.164-0.897v22.405c0,1.592,0.117,2.056,0.622,2.367c0.429,0.234,0.543,0.234,2.136,0.313V241.436
	L121.386,241.436z M107.177,232.894c0,5.319,1.669,8.347,4.581,8.347c2.872,0,4.504-2.872,4.504-7.962
	c0-5.705-1.632-8.812-4.621-8.812C108.689,224.465,107.177,227.34,107.177,232.894z M138.125,235.997
	c-0.39,4.035-2.798,6.406-6.523,6.406c-4.935,0-7.65-3.34-7.65-9.396c0-6.017,2.793-9.744,7.336-9.744
	c4.43,0,6.835,3.144,6.799,8.966h-11.729c0,6.096,1.707,8.97,5.279,8.97c2.798,0,4.504-1.785,4.93-5.202H138.125z M135.677,230.833
	c-0.23-4.387-1.709-6.601-4.425-6.601c-2.602,0-4.313,2.331-4.777,6.601H135.677L135.677,230.833z M141.773,236.111h0.736
	c0.311,1.322,0.505,1.984,0.933,2.718c0.778,1.517,2.448,2.448,4.273,2.448c2.442,0,4.269-1.592,4.269-3.688
	c0-1.321-0.581-2.063-2.177-2.873c-0.385-0.194-0.385-0.194-3.879-1.63c-2.912-1.203-3.766-2.251-3.766-4.622
	c0-2.985,2.328-5.082,5.59-5.082c1.398,0,2.447,0.309,3.806,1.126l0.542-1.44h0.662v5.862h-0.736
	c-0.353-3.104-1.671-4.578-4.116-4.578c-2.138,0-3.807,1.474-3.807,3.416c0,1.28,0.585,2.056,2.172,2.831
	c0.585,0.272,0.857,0.428,3.77,1.592c2.949,1.206,3.956,2.37,3.956,4.66c0,3.181-2.598,5.51-6.093,5.51
	c-1.669,0-3.183-0.499-4.621-1.51l-0.854,1.553h-0.659V236.111L141.773,236.111z M155.985,230.598v1.634h9.821v-1.634H155.985z
	 M176.912,216.118c2.444,0,3.996,0.429,5.241,1.477c1.395,1.125,2.17,2.868,2.17,4.813c0,2.679-1.438,4.699-4.151,5.824
	c3.495,0.818,5.357,3.032,5.357,6.372c0,2.288-1.128,4.578-2.878,5.899c-1.51,1.126-3.061,1.51-6.015,1.51h-9.51v-0.737
	c2.796-0.233,3.179-0.54,3.179-2.563v-19.334c0-1.981-0.385-2.29-3.179-2.524v-0.736H176.912L176.912,216.118z M175.782,227.924
	c2.334,0,3.381-0.313,4.35-1.322c0.932-0.97,1.4-2.331,1.4-4.114c0-1.672-0.391-3.069-1.13-3.923
	c-0.775-0.97-1.939-1.361-3.882-1.361h-3.609v10.721H175.782L175.782,227.924z M172.912,238.794c0,1.824,0.387,2.136,2.637,2.136
	h1.441c3.569,0,5.74-2.334,5.74-6.172c0-1.83-0.54-3.459-1.509-4.429c-0.891-0.933-2.176-1.32-4.229-1.32h-4.078v9.785H172.912
	L172.912,238.794z M203.319,235.997c-0.388,4.035-2.795,6.406-6.526,6.406c-4.933,0-7.646-3.34-7.646-9.396
	c0-6.017,2.792-9.744,7.337-9.744c4.427,0,6.834,3.144,6.793,8.966h-11.725c0,6.096,1.708,8.97,5.283,8.97
	c2.79,0,4.503-1.785,4.927-5.202H203.319z M200.871,230.833c-0.232-4.387-1.708-6.601-4.428-6.601c-2.597,0-4.308,2.331-4.774,6.601
	H200.871z M206.27,224.079c1.826-0.27,3.339-0.62,4.661-1.166c0.148,1.011,0.192,1.517,0.269,3.459
	c1.36-2.061,2.951-2.988,5.085-2.988c1.983,0,3.766,0.928,4.74,2.521c0.583,0.933,0.854,2.29,0.854,4.116v9.474
	c0,1.55,0.464,1.862,2.795,1.98v0.66c-1.939-0.192-2.871-0.234-4.04-0.234c-1.16,0-2.055,0.042-3.998,0.234v-0.66
	c2.369-0.079,2.838-0.431,2.838-1.98v-9.396c0-1.904-0.198-2.871-0.697-3.649c-0.626-0.934-1.674-1.442-2.996-1.442
	c-1.398-0.009-2.719,0.641-3.566,1.752c-0.584,0.814-0.818,1.744-0.818,3.494v9.241c0,1.55,0.469,1.862,2.797,1.98v0.66
	c-1.943-0.192-2.874-0.234-3.999-0.234c-1.126,0-2.061,0.042-3.999,0.234v-0.66c2.334-0.117,2.797-0.431,2.797-1.98v-12.579
	c0-1.437-0.041-1.674-0.313-1.943c-0.307-0.27-0.579-0.27-2.406-0.348v-0.545H206.27L206.27,224.079z M237.914,224.581h-5.01
	c-2.443,0-2.908,0.466-4.309,3.883h-0.659l0.852-4.774h12.464l-10.946,17.433h5.238c1.942,0,2.605-0.35,3.53-1.786
	c0.507-0.739,0.817-1.438,1.169-2.601h0.66l-0.931,5.277h-12.967L237.914,224.581z M125.048,32.266
	c-21.09,0-40.915,8.214-55.827,23.125c-14.913,14.915-23.124,34.741-23.124,55.83c0,21.09,8.212,40.915,23.128,55.825
	c14.916,14.914,34.744,23.126,55.83,23.121c21.091,0,40.915-8.213,55.826-23.126c14.91-14.914,23.123-34.74,23.121-55.83
	c0-21.091-8.215-40.913-23.125-55.825C165.966,40.477,146.139,32.265,125.048,32.266L125.048,32.266z M74.188,162.088
	c-13.588-13.585-21.074-31.648-21.074-50.863c0-19.217,7.481-37.281,21.067-50.871c13.586-13.589,31.653-21.072,50.867-21.072
	c19.218,0,37.281,7.48,50.87,21.067c13.589,13.586,21.071,31.65,21.071,50.864c0.003,19.218-7.482,37.284-21.067,50.871
	c-13.585,13.589-31.649,21.071-50.866,21.071C105.842,183.158,87.775,175.677,74.188,162.088L74.188,162.088z"/>
<path fill="#FFFFFF" d="M195.723,79.641c-13.084-30.201-44.172-48.983-77.582-46.269c-24.585,1.484-48.998,17.743-61.31,39.484
	c-2.439,4.285-4.389,8.829-5.813,13.548c-9.415,27.846-0.434,58.653,18.399,78.675l3.722,2.874
	c-13.31-13.538-21.885-31.932-23.462-49.625c-1.383-15.908,2.188-31.118,9.638-44.115c7.092-12.374,17.682-22.73,30.831-29.748
	c21.093-11.978,52.883-10.948,73.184,2.21c11.636,6.654,21.833,17.297,28.191,28.636c3.793,7.044,7.984,15.381,9.73,26.882
	C200.236,92.723,198.903,86.972,195.723,79.641L195.723,79.641z"/>
<path fill="#FFFFFF" d="M197.907,116.745c0.987-15.526-2.56-31.667-10.176-43.653c-2.956-4.483-7.974-10.864-11.522-15.102
	c17.603,16.126,25.223,37.135,24.835,59.655c-1.83,29.178-24.344,57.075-52.242,65.505c-28.585,8.966-59.499,0.885-78.822-21.286
	c-3.694-4.041-5.639-6.771-9.022-12.406c-1.013-1.465,0.114-2.482,0.953-1.397c15.031,25.137,43.818,39.227,73.981,35.286
	c20.691-3.109,39.665-15.38,51.396-33.665c1.923,0.246,2.462-1.074,1.388-2.316C194.186,138.634,197.207,127.844,197.907,116.745
	L197.907,116.745z"/>
<path fill="#FFFFFF" d="M58.461,144.855c-2.69-6.901-6.862-14.908-7.207-30.697c1.584,15.112,6.043,24.971,9.229,31.291
	C61.232,146.847,59.907,148.026,58.461,144.855z"/>
<path d="M125.739,124.961l60.064,24.17c0.958,0.452,2.926,1.574,3.622,0.509c0.54-0.813,0.562-1.073-1.046-2.513l-0.255,0.305
	l-50.368-42.704l-10.321-66.343c-0.339-1.364-0.509-1.911-1.646-1.911c-0.987-0.017-1.102,1.338-1.271,1.85l-10.656,65.582
	l-50.651,40.24c-0.773,0.607-2.204,0.889-3.395-1.266l1.499,3.703l2.637,3.384c-0.314-0.585-0.525-1.221-0.626-1.876l0.327-0.926
	L125.739,124.961z"/>
<path fill="#FFFFFF" d="M186.683,148.261l-59.64-35.598l0.005,12.812l-1.196-0.453l-1.274,0.368l-0.026-13.292l-62.24,34.013
	l54.394-39.272l-3.493-2.34l0.65-0.593l0.172-0.965l0.054-0.28l3.318,2.183l7.139-66.243c0.115-1.22,0.541-2.066,1.334-2.066
	c1.048,0,1.274,1.5,1.274,2.323l0.573,70.291l9.806-5.782l0.228,1.358l0.936,0.794l-3.318,2.044c0,0,50.395,38.094,51.981,39.338
	C188.945,148.149,187.358,148.825,186.683,148.261L186.683,148.261z M123.448,111.36l-3.12-2.069l-14.456,11.026L123.448,111.36z
	 M131.524,109.802l-2.58,1.558l57.146,35.709L131.524,109.802L131.524,109.802z M120.583,106.998l3.854,2.49l1.583-71.653
	L120.583,106.998z"/>
</svg>
