<?xml version="1.0" encoding="utf-8"?>
<!-- Generator: Adobe Illustrator 14.0.0, SVG Export Plug-In . SVG Version: 6.00 Build 43363)  -->
<!DOCTYPE svg PUBLIC "-//W3C//DTD SVG 1.0//EN" "http://www.w3.org/TR/2001/REC-SVG-20010904/DTD/svg10.dtd">
<svg version="1.0" id="Capa_1" xmlns="http://www.w3.org/2000/svg" xmlns:xlink="http://www.w3.org/1999/xlink" x="0px" y="0px"
	 width="250px" height="250px" viewBox="0 0 250 250" enable-background="new 0 0 250 250" xml:space="preserve">
<path d="M169.051,71.938c-9.068-15.487-25.855-25.102-43.921-25.102S90.277,56.45,81.208,71.938H5.763l0.662,0.93
	c0.233,0.328,23.827,33.128,60.977,57.221l0.148,0.093h19.651c9.661,10.745,23.46,16.91,37.932,16.91
	c14.473,0,28.277-6.165,37.938-16.91h19.383l0.148-0.093c37.15-24.093,60.736-56.896,60.973-57.221l0.662-0.93H169.051
	L169.051,71.938z"/>
<path fill="#FFFFFF" d="M235.877,80.713h-63.395c0.986,2.801,1.717,5.718,2.182,8.719h1.67c-0.428-2.24-1.014-4.447-1.752-6.605
	c0,0,53.553-1.258,61.178-1.969c-4.633,5.524-9.494,10.852-14.572,15.97h-45.889l0.006,0.134c0,2.938-0.311,5.795-0.807,8.588h2.393
	c0.291-2.121,0.506-4.27,0.506-6.471l-0.002-0.134c0,0,36.959-1.197,43.607-1.931c-5.619,5.668-11.5,11.075-17.619,16.2h-30.9
	c-1.068,3.031-2.43,5.953-4.068,8.719h3.217c1.115-2.127,2.145-4.308,2.951-6.605c0,0,22.848-1.113,28.496-1.86
	c-6.684,5.588-13.691,10.777-20.984,15.54h-19.539l-0.176,0.194c-18.309,20.572-49.827,22.409-70.4,4.101
	c-1.445-1.286-2.815-2.656-4.101-4.101l-0.176-0.194H67.895c-7.296-4.766-14.307-9.958-20.994-15.547
	c5.873,0.74,30.767,1.867,30.767,1.867c1.092,2.328,2.656,4.506,4.062,6.605h0.113c-1.64-2.766-3.004-5.687-4.072-8.719H46.608
	c-6.12-5.124-12-10.53-17.618-16.2c6.792,0.744,45.313,2.022,45.313,2.065c0,2.078,0.775,4.115,1.402,6.115
	c-0.486-2.717-0.738-5.472-0.753-8.233l0.007-0.134H28.81c-5.11-5.157-10.005-10.522-14.669-16.086l62.22,2.085
	c-0.338,2.093-0.524,4.333-0.785,6.605h0.021c0.465-3.001,1.19-5.918,2.178-8.719H14.119c-2.084-2.479-4.102-5.014-6.049-7.603
	h73.79l0.169-0.293c8.814-15.3,25.33-24.805,43.097-24.805c17.766,0,34.284,9.505,43.1,24.805l0.17,0.293h73.529
	C239.98,75.701,237.963,78.236,235.877,80.713z"/>
<path d="M125.129,53.766c-24.161,0-43.749,19.338-43.749,43.2c0,23.854,19.588,43.201,43.749,43.201
	c24.162,0,43.753-19.347,43.753-43.201C168.883,73.104,149.291,53.766,125.129,53.766z"/>
<path fill="#FFFFFF" d="M125.129,137.519c-22.684,0-41.075-18.157-41.075-40.557c0-22.399,18.391-40.557,41.075-40.557
	c22.685,0,41.072,18.157,41.072,40.557C166.201,119.361,147.814,137.519,125.129,137.519z"/>
<path d="M163.799,96.965c0,21.085-17.313,38.178-38.669,38.178c-21.356,0-38.668-17.093-38.668-38.178
	c0-21.086,17.312-38.179,38.668-38.179C146.486,58.787,163.799,75.879,163.799,96.965z"/>
<path fill="#FFFFFF" d="M153.096,86.537h5.172v21.508h-5.172V86.537L153.096,86.537z M119.842,86.537h5.172v21.508h-5.172V86.537
	L119.842,86.537z M143.928,86.537v13.045l-9.459-13.045h-4.875v21.508h4.875V95l9.459,13.045h4.881V86.537H143.928L143.928,86.537z
	 M108.826,86.537l-5.68,13.419l-5.679-13.419h-5.905v21.508h4.88V95.862l5.048,12.142l0.018,0.041h3.079l0.021-0.038l5.538-13.318
	v13.356h4.876V86.537H108.826L108.826,86.537z"/>
<path d="M189.117,165.716h11.741v48.833h-11.741V165.716L189.117,165.716z M113.614,165.716h11.743v48.833h-11.743V165.716
	L113.614,165.716z M168.302,165.716v29.62l-21.477-29.62h-11.07v48.833h11.07v-29.62l21.477,29.62h11.08v-48.833H168.302
	L168.302,165.716z M88.603,165.716l-12.896,30.468l-12.895-30.468H49.406v48.833h11.08v-27.66l11.462,27.567l0.04,0.093h6.99
	l0.049-0.087L91.6,184.224v30.325h11.071v-48.833H88.603L88.603,165.716z"/>
</svg>
