<?xml version="1.0" encoding="utf-8"?>
<!-- Generator: Adobe Illustrator 14.0.0, SVG Export Plug-In . SVG Version: 6.00 Build 43363)  -->
<!DOCTYPE svg PUBLIC "-//W3C//DTD SVG 1.0//EN" "http://www.w3.org/TR/2001/REC-SVG-20010904/DTD/svg10.dtd">
<svg version="1.0" id="Capa_1" xmlns="http://www.w3.org/2000/svg" xmlns:xlink="http://www.w3.org/1999/xlink" x="0px" y="0px"
	 width="250px" height="250px" viewBox="0 0 250 250" enable-background="new 0 0 250 250" xml:space="preserve">
<path fill="#E40012" d="M160.566,190.857c-5.492-0.121-11.072,0-11.121,0c-6.705,0-12.163,4.652-12.163,10.366
	c0,5.803,5.458,10.524,12.171,10.524c0.043,0.001,5.621,0.111,11.117,0c6.721,0,12.189-4.722,12.189-10.524
	C172.76,195.565,167.402,191.013,160.566,190.857L160.566,190.857z M156.8,208.877c0,0-2.003,0.052-3.52,0
	c-3.864,0-8.032-2.913-8.032-7.62c0-4.67,4.084-7.457,8.012-7.455c1.179-0.055,2.359-0.055,3.537-0.002
	c3.95,0,8.034,2.79,8.034,7.457C164.831,205.964,160.662,208.877,156.8,208.877L156.8,208.877z M231.957,211.48h6.838v-9.954
	c0-5.816-5.209-10.372-11.856-10.372h-17.303c-0.283,0-0.939,0.07-0.939,0.755v18.799c0,0.506,0.37,0.771,0.729,0.771h7.232v-15.724
	c0-0.69,0.523-1.03,1.038-1.03h7.965c2.204,0,5.465,1.979,5.465,6.292v9.67C231.123,210.695,231.144,211.48,231.957,211.48
	L231.957,211.48z M87.604,195.188h10.675v-3.238c0.018-0.421-0.311-0.777-0.732-0.795c-0.012,0-0.024,0-0.036,0H67.762
	c-0.426-0.002-0.772,0.341-0.774,0.768c0,0.006,0,0.012,0,0.019v3.247h7.11c2.668,0,4.46,2.289,4.46,4.424v11.1
	c0,0.367,0.323,0.773,0.786,0.773h7.213v-15.258C86.557,195.652,87.025,195.188,87.604,195.188L87.604,195.188z M54.718,210.708
	c0,0.453,0.412,0.773,0.784,0.773h7.208v-19.559c-0.012-0.427-0.359-0.769-0.787-0.774H55.5c-0.426,0.003-0.773,0.346-0.782,0.772
	V210.708z M126.042,211.483h7.937c-0.211-5.268-5.896-7.44-5.896-7.44l0.004-0.002c3.569-0.815,5.875-3.379,5.875-6.344
	c0-3.15-3.083-6.549-8.063-6.549h-19.193c-2.326,0-4.149,1.827-4.149,4.153v15.402c0,0.445,0.317,0.777,0.761,0.777h7.205v-7.209
	h6.797C123.371,204.272,125.856,208.64,126.042,211.483L126.042,211.483z M110.517,200.67v-4.06c0-1.108,0.789-1.886,1.918-1.886
	h10.617c1.609,0,2.97,1.353,2.97,2.953c0,1.648-1.349,2.992-3.005,2.992H110.517z M42.593,197.973h7.766
	c-1.681-4.252-6.553-7.259-11.698-7.27c-2.818-0.006-7.836-0.167-11.112,0c-3.829,0.189-6.238,1.065-8.595,3.117
	c-2.302,2.01-3.571,4.657-3.575,7.473c0,5.813,5.171,10.377,12.031,10.614c4.703,0.168,5.204,0.175,11.369-0.014
	c5.713-0.17,9.808-2.754,11.575-7.266h-7.763c-0.278-0.009-0.538,0.143-0.668,0.389c-1.405,2.42-4.048,3.871-6.94,3.917
	c-1.008,0.016-2.366,0.021-3.606,0.007c-4.033-0.037-8.029-2.869-8.029-7.657c0-4.705,4.102-7.573,8.049-7.573
	c1.167-0.049,2.334-0.049,3.5,0c2.88,0,5.642,1.527,7.037,3.889C42.071,197.832,42.322,197.975,42.593,197.973L42.593,197.973z
	 M204.416,207.83H185.61c-0.634,0-1.076-0.422-1.076-1.022v-3.874h16.301v-3.567h-16.304v-3.536c0-0.019-0.007-1.03,1.211-1.03
	h18.674v-2.851c0-0.833-0.893-0.798-0.917-0.798H177.34c-0.082,0-0.796,0.025-0.796,0.798v15.397c0,2.034,1.566,4.135,4.186,4.135
	h22.906c0.597,0,0.782-0.561,0.782-0.757v-2.895H204.416z M198.563,183.787c-0.765-0.471-1.689-0.705-2.769-0.705
	c-1.076,0-2.036,0.248-2.767,0.705c-0.733,0.454-1.316,1.067-2.181,1.067c-0.86,0-1.38-0.611-2.159-1.067
	c-0.779-0.454-1.689-0.705-2.769-0.705c-1.077,0-1.997,0.234-2.767,0.705c-0.763,0.464-1.149,1.03-1.149,1.688
	c0,0.662,0.387,1.226,1.149,1.695c0.77,0.468,1.689,0.699,2.767,0.699c1.076,0,2.018-0.225,2.709-0.647
	c0.691-0.419,1.439-1.11,2.219-1.11c0.783,0,1.489,0.619,2.182,1.059c0.693,0.439,1.689,0.699,2.766,0.699
	c1.111,0,2.045-0.231,2.791-0.699c0.752-0.468,1.125-1.031,1.125-1.695C199.708,184.817,199.328,184.253,198.563,183.787z"/>
<path d="M127.086,81.516c16.684,0,56.962,34.583,62.01,38.976c0.342,0.297,0.816,0.681,1.689,0.581
	c1.26-0.145,1.294-2.068,1.294-2.068s0.301-4.394,0.301-8.817c0-5.574-4.352-10.45-4.352-10.45s-45.139-49.717-60.942-49.717
	c-15.805,0-60.941,49.719-60.941,49.719s-4.352,4.875-4.352,10.45c0,4.423,0.299,8.816,0.299,8.816s0.037,1.925,1.296,2.069
	c0.873,0.099,1.348-0.284,1.689-0.581C70.124,116.1,110.4,81.516,127.086,81.516L127.086,81.516z"/>
<path d="M127.086,127.265c16.684,0,56.962,34.584,62.01,38.976c0.342,0.299,0.816,0.681,1.689,0.582
	c1.26-0.144,1.294-2.068,1.294-2.068s0.301-4.395,0.301-8.818c0-5.573-4.352-10.447-4.352-10.447s-45.138-49.72-60.94-49.72
	c-15.805,0-60.941,49.72-60.941,49.72s-4.353,4.874-4.353,10.447c0,4.424,0.299,8.818,0.299,8.818s0.037,1.925,1.296,2.068
	c0.872,0.102,1.347-0.283,1.689-0.582C70.124,161.846,110.4,127.265,127.086,127.265z"/>
<linearGradient id="SVGID_1_" gradientUnits="userSpaceOnUse" x1="6.8442" y1="238.2305" x2="14.6687" y2="238.2305" gradientTransform="matrix(16.4215 0 0 -16.4215 -49.7649 4011.2649)">
	<stop  offset="0" style="stop-color:#C2C2C4"/>
	<stop  offset="0.121" style="stop-color:#BABABB"/>
	<stop  offset="0.317" style="stop-color:#A2A2A4"/>
	<stop  offset="0.5" style="stop-color:#868689"/>
	<stop  offset="0.545" style="stop-color:#919193"/>
	<stop  offset="0.748" style="stop-color:#BCBCBE"/>
	<stop  offset="0.907" style="stop-color:#D7D7D8"/>
	<stop  offset="1" style="stop-color:#E1E1E1"/>
</linearGradient>
<path fill="url(#SVGID_1_)" d="M81.286,92.223c-9.144,7.528-16.204,14.602-18.624,17.09c-0.137,3.033,0.262,9.595,0.264,9.639
	c0,0,0.041,2.372,1.734,0.854l1.687-1.501c18.203-16.65,36.896-31.228,51.871-37.711c1.065-0.46,2.811-0.769,1.904-1.916
	c-0.508-0.641-2.284-0.717-3.407-0.653C101.187,78.917,81.99,91.712,81.286,92.223L81.286,92.223z"/>
<linearGradient id="SVGID_2_" gradientUnits="userSpaceOnUse" x1="6.8403" y1="238.2305" x2="14.6657" y2="238.2305" gradientTransform="matrix(16.4215 0 0 -16.4215 -49.7649 4011.2649)">
	<stop  offset="0" style="stop-color:#C2C2C4"/>
	<stop  offset="0.121" style="stop-color:#BABABB"/>
	<stop  offset="0.317" style="stop-color:#A2A2A4"/>
	<stop  offset="0.5" style="stop-color:#868689"/>
	<stop  offset="0.545" style="stop-color:#919193"/>
	<stop  offset="0.748" style="stop-color:#BCBCBE"/>
	<stop  offset="0.907" style="stop-color:#D7D7D8"/>
	<stop  offset="1" style="stop-color:#E1E1E1"/>
</linearGradient>
<path fill="url(#SVGID_2_)" d="M172.885,92.223c9.145,7.528,16.205,14.602,18.625,17.09c0.137,3.033-0.261,9.595-0.263,9.639
	c0,0-0.039,2.372-1.735,0.854l-1.687-1.501c-18.204-16.65-36.896-31.228-51.873-37.711c-1.065-0.46-2.811-0.769-1.905-1.916
	c0.509-0.641,2.287-0.717,3.41-0.653C152.982,78.917,172.18,91.712,172.885,92.223L172.885,92.223z"/>
<linearGradient id="SVGID_3_" gradientUnits="userSpaceOnUse" x1="6.8442" y1="235.4443" x2="14.6687" y2="235.4443" gradientTransform="matrix(16.4215 0 0 -16.4215 -49.7649 4011.2649)">
	<stop  offset="0" style="stop-color:#C2C2C4"/>
	<stop  offset="0.121" style="stop-color:#BABABB"/>
	<stop  offset="0.317" style="stop-color:#A2A2A4"/>
	<stop  offset="0.5" style="stop-color:#868689"/>
	<stop  offset="0.545" style="stop-color:#919193"/>
	<stop  offset="0.748" style="stop-color:#BCBCBE"/>
	<stop  offset="0.907" style="stop-color:#D7D7D8"/>
	<stop  offset="1" style="stop-color:#E1E1E1"/>
</linearGradient>
<path fill="url(#SVGID_3_)" d="M81.286,137.97c-9.144,7.528-16.204,14.601-18.624,17.091c-0.137,3.031,0.262,9.592,0.264,9.639
	c0,0,0.041,2.371,1.734,0.85l1.687-1.498c18.203-16.649,36.896-31.226,51.871-37.71c1.065-0.46,2.811-0.771,1.904-1.915
	c-0.508-0.64-2.284-0.718-3.407-0.652C101.187,124.665,81.99,137.459,81.286,137.97z"/>
<linearGradient id="SVGID_4_" gradientUnits="userSpaceOnUse" x1="6.8403" y1="235.4443" x2="14.6657" y2="235.4443" gradientTransform="matrix(16.4215 0 0 -16.4215 -49.7649 4011.2649)">
	<stop  offset="0" style="stop-color:#C2C2C4"/>
	<stop  offset="0.121" style="stop-color:#BABABB"/>
	<stop  offset="0.317" style="stop-color:#A2A2A4"/>
	<stop  offset="0.5" style="stop-color:#868689"/>
	<stop  offset="0.545" style="stop-color:#919193"/>
	<stop  offset="0.748" style="stop-color:#BCBCBE"/>
	<stop  offset="0.907" style="stop-color:#D7D7D8"/>
	<stop  offset="1" style="stop-color:#E1E1E1"/>
</linearGradient>
<path fill="url(#SVGID_4_)" d="M172.885,137.97c9.145,7.528,16.205,14.601,18.625,17.091c0.137,3.031-0.261,9.592-0.263,9.639
	c0,0-0.039,2.371-1.735,0.85l-1.687-1.498c-18.204-16.649-36.896-31.226-51.873-37.71c-1.065-0.46-2.811-0.771-1.905-1.915
	c0.509-0.64,2.287-0.718,3.41-0.652C152.982,124.665,172.18,137.459,172.885,137.97z"/>
<linearGradient id="SVGID_5_" gradientUnits="userSpaceOnUse" x1="6.8457" y1="239.3926" x2="14.6468" y2="239.3926" gradientTransform="matrix(16.4215 0 0 -16.4215 -49.7649 4011.2649)">
	<stop  offset="0" style="stop-color:#868689"/>
	<stop  offset="0.023" style="stop-color:#909093"/>
	<stop  offset="0.125" style="stop-color:#B8B8B9"/>
	<stop  offset="0.226" style="stop-color:#D7D7D8"/>
	<stop  offset="0.323" style="stop-color:#EDEDEE"/>
	<stop  offset="0.416" style="stop-color:#FAFAFB"/>
	<stop  offset="0.5" style="stop-color:#FFFFFF"/>
	<stop  offset="0.58" style="stop-color:#FAFAFA"/>
	<stop  offset="0.675" style="stop-color:#EBEBEC"/>
	<stop  offset="0.777" style="stop-color:#D3D3D5"/>
	<stop  offset="0.886" style="stop-color:#B2B2B4"/>
	<stop  offset="0.997" style="stop-color:#87878A"/>
	<stop  offset="1" style="stop-color:#868689"/>
</linearGradient>
<path fill="url(#SVGID_5_)" d="M187.41,100.29c-0.546-0.605-45.083-49.447-60.324-49.447c-15.243,0-59.778,48.842-60.326,49.447
	c-0.05,0.055-3.691,4.203-4.1,9.021c2.42-2.488,9.48-9.56,18.624-17.09c-0.003,0.002,2.754-2.313,6.898-5.434
	c9.179-6.915,25.385-17.721,38.902-17.721c13.518,0,29.723,10.808,38.901,17.721c2.343,1.755,4.642,3.566,6.896,5.434
	c9.145,7.529,16.205,14.603,18.626,17.09C191.1,104.493,187.459,100.345,187.41,100.29L187.41,100.29z"/>
<linearGradient id="SVGID_6_" gradientUnits="userSpaceOnUse" x1="6.8457" y1="236.6064" x2="14.6468" y2="236.6064" gradientTransform="matrix(16.4215 0 0 -16.4215 -49.7649 4011.2649)">
	<stop  offset="0" style="stop-color:#868689"/>
	<stop  offset="0.023" style="stop-color:#909093"/>
	<stop  offset="0.125" style="stop-color:#B8B8B9"/>
	<stop  offset="0.226" style="stop-color:#D7D7D8"/>
	<stop  offset="0.323" style="stop-color:#EDEDEE"/>
	<stop  offset="0.416" style="stop-color:#FAFAFB"/>
	<stop  offset="0.5" style="stop-color:#FFFFFF"/>
	<stop  offset="0.58" style="stop-color:#FAFAFA"/>
	<stop  offset="0.675" style="stop-color:#EBEBEC"/>
	<stop  offset="0.777" style="stop-color:#D3D3D5"/>
	<stop  offset="0.886" style="stop-color:#B2B2B4"/>
	<stop  offset="0.997" style="stop-color:#87878A"/>
	<stop  offset="1" style="stop-color:#868689"/>
</linearGradient>
<path fill="url(#SVGID_6_)" d="M187.41,146.036c-0.546-0.603-45.083-49.445-60.324-49.445c-15.243,0-59.778,48.842-60.326,49.445
	c-0.05,0.058-3.691,4.204-4.1,9.026c2.42-2.49,9.48-9.563,18.624-17.091c-0.003,0.001,2.754-2.313,6.898-5.435
	c9.179-6.914,25.385-17.722,38.902-17.722c13.518,0,29.723,10.808,38.901,17.722c4.143,3.121,6.902,5.435,6.896,5.435
	c9.145,7.528,16.205,14.601,18.626,17.091C191.1,150.24,187.459,146.094,187.41,146.036L187.41,146.036z"/>
<linearGradient id="SVGID_7_" gradientUnits="userSpaceOnUse" x1="10.7881" y1="239.4551" x2="14.4768" y2="239.5298" gradientTransform="matrix(16.4215 0 0 -16.4215 -49.7649 4011.2649)">
	<stop  offset="0" style="stop-color:#F3F3F3"/>
	<stop  offset="0.039" style="stop-color:#DBDBDC"/>
	<stop  offset="0.11" style="stop-color:#B7B7B8"/>
	<stop  offset="0.176" style="stop-color:#9C9C9E"/>
	<stop  offset="0.235" style="stop-color:#8C8C8F"/>
	<stop  offset="0.281" style="stop-color:#868689"/>
	<stop  offset="0.401" style="stop-color:#8E8E91"/>
	<stop  offset="0.585" style="stop-color:#A4A4A6"/>
	<stop  offset="0.59" style="stop-color:#A4A4A6"/>
	<stop  offset="1" style="stop-color:#868689"/>
</linearGradient>
<path fill="url(#SVGID_7_)" d="M188.095,103.39c-24.987-28.665-52.261-50.693-60.063-51.089c-1.118-0.057-1.146,1.049-1.146,1.049
	c-0.011,9.421,0.556,11.083,7.041,13.609c0.891,0.348,25.193,7.64,54.151,37.218l0.416,0.422L188.095,103.39z"/>
<linearGradient id="SVGID_8_" gradientUnits="userSpaceOnUse" x1="10.7881" y1="236.668" x2="14.4768" y2="236.7426" gradientTransform="matrix(16.4215 0 0 -16.4215 -49.7649 4011.2649)">
	<stop  offset="0" style="stop-color:#F3F3F3"/>
	<stop  offset="0.039" style="stop-color:#DBDBDC"/>
	<stop  offset="0.11" style="stop-color:#B7B7B8"/>
	<stop  offset="0.176" style="stop-color:#9C9C9E"/>
	<stop  offset="0.235" style="stop-color:#8C8C8F"/>
	<stop  offset="0.281" style="stop-color:#868689"/>
	<stop  offset="0.401" style="stop-color:#8E8E91"/>
	<stop  offset="0.585" style="stop-color:#A4A4A6"/>
	<stop  offset="0.59" style="stop-color:#A4A4A6"/>
	<stop  offset="1" style="stop-color:#868689"/>
</linearGradient>
<path fill="url(#SVGID_8_)" d="M188.095,149.139c-24.987-28.667-52.261-50.694-60.063-51.091c-1.118-0.057-1.146,1.05-1.146,1.05
	c-0.011,9.418,0.556,11.082,7.041,13.607c0.891,0.347,25.193,7.64,54.151,37.22l0.416,0.422L188.095,149.139z"/>
</svg>
