<?xml version="1.0" encoding="utf-8"?>
<!-- Generator: Adobe Illustrator 14.0.0, SVG Export Plug-In . SVG Version: 6.00 Build 43363)  -->
<!DOCTYPE svg PUBLIC "-//W3C//DTD SVG 1.0//EN" "http://www.w3.org/TR/2001/REC-SVG-20010904/DTD/svg10.dtd">
<svg version="1.0" id="Capa_1" xmlns="http://www.w3.org/2000/svg" xmlns:xlink="http://www.w3.org/1999/xlink" x="0px" y="0px"
	 width="250px" height="250px" viewBox="0 0 250 250" enable-background="new 0 0 250 250" xml:space="preserve">
<g>
	<path fill="#C9C9CA" d="M123.044,82.853c-66.291,0-119.43,19.87-119.43,44.782c0,24.766,53.578,44.787,119.432,44.787
		c65.858,0,119.44-20.09,119.44-44.787C242.482,102.944,188.904,82.853,123.044,82.853 M241.754,124.177
		c0.043,0.218,0.074,0.439,0.111,0.651C241.834,124.618,241.791,124.398,241.754,124.177"/>
	
		<radialGradient id="SVGID_1_" cx="-4418.8799" cy="-640.293" r="59.6234" gradientTransform="matrix(8.6315 0 0 -4.3839 38263.7734 -2576.3782)" gradientUnits="userSpaceOnUse">
		<stop  offset="0" style="stop-color:#00082E"/>
		<stop  offset="0.155" style="stop-color:#000A30"/>
		<stop  offset="0.242" style="stop-color:#010F39"/>
		<stop  offset="0.312" style="stop-color:#011946"/>
		<stop  offset="0.373" style="stop-color:#02275A"/>
		<stop  offset="0.414" style="stop-color:#03346C"/>
		<stop  offset="0.439" style="stop-color:#0B4F87"/>
		<stop  offset="0.48" style="stop-color:#1676AF"/>
		<stop  offset="0.513" style="stop-color:#1C8EC7"/>
		<stop  offset="0.533" style="stop-color:#1F97D0"/>
		<stop  offset="1" style="stop-color:#1F97D0"/>
	</radialGradient>
	<path fill="url(#SVGID_1_)" d="M123.049,84.641c-64.973,0-117.604,19.205-117.604,42.971c0,23.756,52.631,42.973,117.604,42.973
		c64.982,0,117.599-19.217,117.599-42.973C240.648,103.848,188.031,84.641,123.049,84.641"/>
	
		<linearGradient id="SVGID_2_" gradientUnits="userSpaceOnUse" x1="-5275.5156" y1="-140.4751" x2="-5275.2036" y2="-140.4751" gradientTransform="matrix(0 -291.4034 291.4034 0 41057.9219 -1537130)">
		<stop  offset="0" style="stop-color:#00082E"/>
		<stop  offset="0.321" style="stop-color:#010A30"/>
		<stop  offset="0.501" style="stop-color:#030F39"/>
		<stop  offset="0.647" style="stop-color:#071846"/>
		<stop  offset="0.773" style="stop-color:#0D245A"/>
		<stop  offset="0.809" style="stop-color:#0F2961"/>
		<stop  offset="0.839" style="stop-color:#0B386E"/>
		<stop  offset="0.896" style="stop-color:#054E83"/>
		<stop  offset="0.951" style="stop-color:#015B90"/>
		<stop  offset="1" style="stop-color:#006094"/>
	</linearGradient>
	<path fill="url(#SVGID_2_)" d="M123.583,93.651c55.239,0,100.852,13.496,107.819,30.963v-0.003
		c-4.654-18.375-51.387-32.812-108.362-32.812c-60.058,0-108.739,16.036-108.739,35.826c0,1.613,0.325,3.197,0.948,4.754
		c-0.27-1.015-0.407-2.061-0.408-3.111C14.842,109.6,63.526,93.651,123.583,93.651L123.583,93.651z"/>
	
		<linearGradient id="SVGID_3_" gradientUnits="userSpaceOnUse" x1="-5275.5186" y1="641.4854" x2="-5275.2065" y2="641.4854" gradientTransform="matrix(1.784331e-014 -291.4034 -291.4034 -1.784331e-014 187055.3281 -1537130.625)">
		<stop  offset="0" style="stop-color:#00082E"/>
		<stop  offset="0.321" style="stop-color:#010A30"/>
		<stop  offset="0.501" style="stop-color:#030F39"/>
		<stop  offset="0.647" style="stop-color:#071846"/>
		<stop  offset="0.773" style="stop-color:#0D245A"/>
		<stop  offset="0.809" style="stop-color:#0F2961"/>
		<stop  offset="0.839" style="stop-color:#0B386E"/>
		<stop  offset="0.896" style="stop-color:#054E83"/>
		<stop  offset="0.951" style="stop-color:#015B90"/>
		<stop  offset="1" style="stop-color:#006094"/>
	</linearGradient>
	<path fill="url(#SVGID_3_)" d="M235.012,123.143c0.477,1.446,0.719,2.96,0.721,4.483c0,21.665-50.453,39.226-112.694,39.226
		c-55.39,0-101.44-13.912-110.915-32.229c7.189,19.04,54.28,33.747,111.364,33.81h0.69c62.078-0.061,112.35-17.443,112.35-38.894
		C236.529,127.362,236.012,125.22,235.012,123.143L235.012,123.143z"/>
	
		<linearGradient id="SVGID_4_" gradientUnits="userSpaceOnUse" x1="-5284.2451" y1="-138.8833" x2="-5283.9321" y2="-138.8833" gradientTransform="matrix(0 -204.871 204.871 0 28596.6328 -1082430.625)">
		<stop  offset="0" style="stop-color:#00082E"/>
		<stop  offset="0.321" style="stop-color:#010A30"/>
		<stop  offset="0.501" style="stop-color:#030F39"/>
		<stop  offset="0.647" style="stop-color:#071846"/>
		<stop  offset="0.773" style="stop-color:#0D245A"/>
		<stop  offset="0.809" style="stop-color:#0F2961"/>
		<stop  offset="0.839" style="stop-color:#0B386E"/>
		<stop  offset="0.896" style="stop-color:#054E83"/>
		<stop  offset="0.951" style="stop-color:#015B90"/>
		<stop  offset="1" style="stop-color:#006094"/>
	</linearGradient>
	<path fill="url(#SVGID_4_)" d="M144.727,133.663c-0.25-0.63-0.297-1.339-0.152-2.042c0.049-0.25-0.273-0.475-0.537-0.203
		c-2.523,2.631-2.713,6.035-1.059,7.563c0.59,0.55,1.27,0.797,1.994,0.844C143.896,138.457,143.387,135.778,144.727,133.663z"/>
	
		<linearGradient id="SVGID_5_" gradientUnits="userSpaceOnUse" x1="-5284.3091" y1="-139.1611" x2="-5284.0029" y2="-139.1611" gradientTransform="matrix(0 -204.404 204.404 0 28615.3418 -1079976.5)">
		<stop  offset="0" style="stop-color:#00082E"/>
		<stop  offset="0.321" style="stop-color:#010A30"/>
		<stop  offset="0.501" style="stop-color:#030F39"/>
		<stop  offset="0.647" style="stop-color:#071846"/>
		<stop  offset="0.773" style="stop-color:#0D245A"/>
		<stop  offset="0.809" style="stop-color:#0F2961"/>
		<stop  offset="0.839" style="stop-color:#0B386E"/>
		<stop  offset="0.896" style="stop-color:#054E83"/>
		<stop  offset="0.951" style="stop-color:#015B90"/>
		<stop  offset="1" style="stop-color:#006094"/>
	</linearGradient>
	<path fill="url(#SVGID_5_)" d="M170.293,138.729h0.004c0.129-0.249,0.258-0.513,0.396-0.795c0.104-0.217,0.051-0.278-0.039-0.313
		c-0.258-0.094-0.527-0.293-0.564-0.498c-0.018-0.037-0.018-0.072-0.021-0.115l0.004,0.022
		C170.105,137.428,170.209,138.175,170.293,138.729L170.293,138.729z"/>
	
		<linearGradient id="SVGID_6_" gradientUnits="userSpaceOnUse" x1="-5284.3105" y1="-139.2021" x2="-5284.0015" y2="-139.2021" gradientTransform="matrix(0 -204.4023 204.4023 0 28627.5625 -1079967.5)">
		<stop  offset="0" style="stop-color:#00082E"/>
		<stop  offset="0.321" style="stop-color:#010A30"/>
		<stop  offset="0.501" style="stop-color:#030F39"/>
		<stop  offset="0.647" style="stop-color:#071846"/>
		<stop  offset="0.773" style="stop-color:#0D245A"/>
		<stop  offset="0.809" style="stop-color:#0F2961"/>
		<stop  offset="0.839" style="stop-color:#0B386E"/>
		<stop  offset="0.896" style="stop-color:#054E83"/>
		<stop  offset="0.951" style="stop-color:#015B90"/>
		<stop  offset="1" style="stop-color:#006094"/>
	</linearGradient>
	<path fill="url(#SVGID_6_)" d="M173.16,128.425c0.842,0.808,1.355,1.788,1.451,2.688c0.037,0.426,0.363,0.473,0.629,0.102
		c0.068-0.102,0.148-0.229,0.242-0.37c-0.074-0.103-0.152-0.202-0.229-0.3C174.604,129.795,173.902,129.086,173.16,128.425
		L173.16,128.425z"/>
	
		<linearGradient id="SVGID_7_" gradientUnits="userSpaceOnUse" x1="-5284.292" y1="-138.8271" x2="-5283.9805" y2="-138.8271" gradientTransform="matrix(0 -204.5335 204.5335 0 28533.9043 -1080656.875)">
		<stop  offset="0" style="stop-color:#00082E"/>
		<stop  offset="0.321" style="stop-color:#010A30"/>
		<stop  offset="0.501" style="stop-color:#030F39"/>
		<stop  offset="0.647" style="stop-color:#071846"/>
		<stop  offset="0.773" style="stop-color:#0D245A"/>
		<stop  offset="0.809" style="stop-color:#0F2961"/>
		<stop  offset="0.839" style="stop-color:#0B386E"/>
		<stop  offset="0.896" style="stop-color:#054E83"/>
		<stop  offset="0.951" style="stop-color:#015B90"/>
		<stop  offset="1" style="stop-color:#006094"/>
	</linearGradient>
	<path fill="url(#SVGID_7_)" d="M138.201,126.767c0.676,0.925,0.992,2.247,0.945,3.937c-0.012,0.438,0.309,0.41,0.516,0.111
		c0.119-0.166,0.225-0.313,0.334-0.463v-0.014C139.502,128.822,138.746,127.334,138.201,126.767L138.201,126.767z"/>
	
		<linearGradient id="SVGID_8_" gradientUnits="userSpaceOnUse" x1="-5284.2725" y1="-139.1035" x2="-5283.9609" y2="-139.1035" gradientTransform="matrix(0 -204.6733 204.6733 0 28635.1563 -1081391.75)">
		<stop  offset="0" style="stop-color:#00082E"/>
		<stop  offset="0.321" style="stop-color:#010A30"/>
		<stop  offset="0.501" style="stop-color:#030F39"/>
		<stop  offset="0.647" style="stop-color:#071846"/>
		<stop  offset="0.773" style="stop-color:#0D245A"/>
		<stop  offset="0.809" style="stop-color:#0F2961"/>
		<stop  offset="0.839" style="stop-color:#0B386E"/>
		<stop  offset="0.896" style="stop-color:#054E83"/>
		<stop  offset="0.951" style="stop-color:#015B90"/>
		<stop  offset="1" style="stop-color:#006094"/>
	</linearGradient>
	<path fill="url(#SVGID_8_)" d="M169.627,131.238c-2.08-0.998-5.256,0.834-8.127,4.369c-2.355,2.892-3.625,5.832-3.668,8.697
		c-0.018,1.021,0.367,2.285,1.268,2.744c0.279,0.156,0.584,0.262,0.898,0.311c-0.1-0.375-0.152-0.762-0.156-1.15
		c-0.035-2.958,0.883-5.912,3.244-8.808c2.852-3.518,5.854-5.271,7.938-4.302C170.916,132.324,170.514,131.657,169.627,131.238
		L169.627,131.238z"/>
	
		<linearGradient id="SVGID_9_" gradientUnits="userSpaceOnUse" x1="-5284.3389" y1="-138.4951" x2="-5284.0269" y2="-138.4951" gradientTransform="matrix(0 -204.2081 204.2081 0 28391.0293 -1078946.875)">
		<stop  offset="0" style="stop-color:#00082E"/>
		<stop  offset="0.321" style="stop-color:#010A30"/>
		<stop  offset="0.501" style="stop-color:#030F39"/>
		<stop  offset="0.647" style="stop-color:#071846"/>
		<stop  offset="0.773" style="stop-color:#0D245A"/>
		<stop  offset="0.809" style="stop-color:#0F2961"/>
		<stop  offset="0.839" style="stop-color:#0B386E"/>
		<stop  offset="0.896" style="stop-color:#054E83"/>
		<stop  offset="0.951" style="stop-color:#015B90"/>
		<stop  offset="1" style="stop-color:#006094"/>
	</linearGradient>
	<path fill="url(#SVGID_9_)" d="M107.387,137.099c2.192-2.974,4.663-4.099,7.479-5.315c0.372-0.162,0.416-0.371,0.345-0.7
		c-0.12-0.562-0.511-1.954-0.631-2.288c0.089,0.306,0.01,0.54-0.356,0.676c-3.197,1.213-6.401,3.099-8.619,6.067
		c-2.515,3.37-3.188,7.423-1.509,9.759c0.4,0.547,0.877,0.951,1.404,1.215C104.595,143.723,105.256,139.983,107.387,137.099
		L107.387,137.099z"/>
	
		<linearGradient id="SVGID_10_" gradientUnits="userSpaceOnUse" x1="-5284.3047" y1="-138.7998" x2="-5283.9922" y2="-138.7998" gradientTransform="matrix(0 -204.4506 204.4506 0 28514.4727 -1080221.5)">
		<stop  offset="0" style="stop-color:#00082E"/>
		<stop  offset="0.321" style="stop-color:#010A30"/>
		<stop  offset="0.501" style="stop-color:#030F39"/>
		<stop  offset="0.647" style="stop-color:#071846"/>
		<stop  offset="0.773" style="stop-color:#0D245A"/>
		<stop  offset="0.809" style="stop-color:#0F2961"/>
		<stop  offset="0.839" style="stop-color:#0B386E"/>
		<stop  offset="0.896" style="stop-color:#054E83"/>
		<stop  offset="0.951" style="stop-color:#015B90"/>
		<stop  offset="1" style="stop-color:#006094"/>
	</linearGradient>
	<path fill="url(#SVGID_10_)" d="M123.477,154.736c2.162,0,4.816,0,6.615-0.012c0.268-0.014,0.457-0.164,0.598-0.365
		c2.686-4.207,5.555-8.773,8.297-12.984c0.602,2.125,0.912,3.113,2.031,4.115c1.139,1.016,2.193,1.283,3.742,1.297
		c1.41,0.018,2.797-0.545,4.449-1.23c0.557-0.238,1.092-0.525,1.598-0.857c0-0.781,0.08-1.565,0.219-2.314
		c0.012-0.082-0.068-0.601-0.512-0.293c-0.918,0.668-1.924,1.209-2.986,1.607c-1.521,0.567-2.23,0.779-3.641,0.768
		c-1.77-0.015-3.367-0.768-4.488-2.521c-0.629-0.946-0.889-2.39-0.947-3.448c-0.008-0.117-0.16-0.323-0.326-0.057
		c-2.979,4.552-5.76,8.949-8.715,13.572c-0.154,0.217-0.289,0.359-0.594,0.369c-1.826,0-3.826-0.006-5.837,0.006
		c-0.211,0-0.362-0.096-0.405-0.242c0.158,0.705,0.416,1.982,0.483,2.281C123.101,154.631,123.253,154.736,123.477,154.736
		L123.477,154.736z"/>
	
		<linearGradient id="SVGID_11_" gradientUnits="userSpaceOnUse" x1="-5284.0591" y1="-139.209" x2="-5283.7466" y2="-139.209" gradientTransform="matrix(0 -206.183 206.183 0 28873.0664 -1089324.875)">
		<stop  offset="0" style="stop-color:#00082E"/>
		<stop  offset="0.321" style="stop-color:#010A30"/>
		<stop  offset="0.501" style="stop-color:#030F39"/>
		<stop  offset="0.647" style="stop-color:#071846"/>
		<stop  offset="0.773" style="stop-color:#0D245A"/>
		<stop  offset="0.809" style="stop-color:#0F2961"/>
		<stop  offset="0.839" style="stop-color:#0B386E"/>
		<stop  offset="0.896" style="stop-color:#054E83"/>
		<stop  offset="0.951" style="stop-color:#015B90"/>
		<stop  offset="1" style="stop-color:#006094"/>
	</linearGradient>
	<path fill="url(#SVGID_11_)" d="M152.391,152.219c0.498,0.957,1.615,2.031,2.293,2.369c3.875,1.908,9.404-0.254,12.955-3.67
		c0.035-0.047,0.045-0.049,0.096-0.105c0.16,0.613,0.361,1.359,0.391,1.463c0.24,0.791,0.621,1.512,0.953,1.895
		c2.43,2.746,7.59,1.496,12.959-2.66c3.002-2.32,5.227-4.65,7.953-7.821c0.109-0.132,0.1-0.326,0.037-0.624
		c-0.154-0.689-0.4-1.937-0.537-2.564c-0.004,0.105-0.041,0.206-0.105,0.289c-2.846,3.471-5.992,6.75-9,9.07
		c-4.678,3.625-9.348,4.545-11.656,2.221c-0.863-0.863-1.336-2.098-1.393-3.145c-0.027-0.568-0.316-0.594-0.588-0.328
		c-2.758,2.732-7.551,5.756-11.92,3.602c-2.252-1.111-3.428-3.199-3.85-5.494c0.004,0.023,0.012,0.053,0.018,0.078
		C151.266,148.42,151.621,150.768,152.391,152.219L152.391,152.219z"/>
	
		<linearGradient id="SVGID_12_" gradientUnits="userSpaceOnUse" x1="-5284.1304" y1="-138.9629" x2="-5283.8179" y2="-138.9629" gradientTransform="matrix(0 -205.6651 205.6651 0 28728.6973 -1086602.875)">
		<stop  offset="0" style="stop-color:#00082E"/>
		<stop  offset="0.321" style="stop-color:#010A30"/>
		<stop  offset="0.501" style="stop-color:#030F39"/>
		<stop  offset="0.647" style="stop-color:#071846"/>
		<stop  offset="0.773" style="stop-color:#0D245A"/>
		<stop  offset="0.809" style="stop-color:#0F2961"/>
		<stop  offset="0.839" style="stop-color:#0B386E"/>
		<stop  offset="0.896" style="stop-color:#054E83"/>
		<stop  offset="0.951" style="stop-color:#015B90"/>
		<stop  offset="1" style="stop-color:#006094"/>
	</linearGradient>
	<path fill="url(#SVGID_12_)" d="M150.463,137.402c1.436-0.779,2.699-2.43,2.543-5.105c-0.084-1.334-0.469-2.707-1.092-3.814
		c0.424,0.809,0.6,1.749,0.449,2.74c-0.275,1.728-1.211,3.251-2.803,4.039c-1.348,0.661-2.926,0.545-4.029-0.439
		c-0.332-0.305-0.594-0.677-0.771-1.091c0.283,1.306,0.533,2.265,0.871,2.779C146.672,138.08,148.473,138.477,150.463,137.402z"/>
	
		<linearGradient id="SVGID_13_" gradientUnits="userSpaceOnUse" x1="-5284.3311" y1="-139.2979" x2="-5284.019" y2="-139.2979" gradientTransform="matrix(0 -204.2608 204.2608 0 28636.7715 -1079223.5)">
		<stop  offset="0" style="stop-color:#00082E"/>
		<stop  offset="0.321" style="stop-color:#010A30"/>
		<stop  offset="0.501" style="stop-color:#030F39"/>
		<stop  offset="0.647" style="stop-color:#071846"/>
		<stop  offset="0.773" style="stop-color:#0D245A"/>
		<stop  offset="0.809" style="stop-color:#0F2961"/>
		<stop  offset="0.839" style="stop-color:#0B386E"/>
		<stop  offset="0.896" style="stop-color:#054E83"/>
		<stop  offset="0.951" style="stop-color:#015B90"/>
		<stop  offset="1" style="stop-color:#006094"/>
	</linearGradient>
	<path fill="url(#SVGID_13_)" d="M193.213,114.792c-0.906,1.568-18.4,28.204-19.506,30.958c-0.35,0.873-0.393,1.539-0.037,2.02
		c0.361,0.482,0.889,0.668,1.486,0.656c0.061-0.336,0.189-0.715,0.35-1.115c1.105-2.765,17.488-27.662,18.387-29.238
		c0.076-0.134,0.049-0.286,0.025-0.386c-0.053-0.25-0.604-2.897-0.656-3.146C193.277,114.628,193.26,114.717,193.213,114.792
		L193.213,114.792z"/>
	
		<linearGradient id="SVGID_14_" gradientUnits="userSpaceOnUse" x1="-5284.2988" y1="-138.6416" x2="-5283.9878" y2="-138.6416" gradientTransform="matrix(0 -204.4895 204.4895 0 28472.9492 -1080425.625)">
		<stop  offset="0" style="stop-color:#00082E"/>
		<stop  offset="0.321" style="stop-color:#010A30"/>
		<stop  offset="0.501" style="stop-color:#030F39"/>
		<stop  offset="0.647" style="stop-color:#071846"/>
		<stop  offset="0.773" style="stop-color:#0D245A"/>
		<stop  offset="0.809" style="stop-color:#0F2961"/>
		<stop  offset="0.839" style="stop-color:#0B386E"/>
		<stop  offset="0.896" style="stop-color:#054E83"/>
		<stop  offset="0.951" style="stop-color:#015B90"/>
		<stop  offset="1" style="stop-color:#006094"/>
	</linearGradient>
	<path fill="url(#SVGID_14_)" d="M120.603,127.188c0.051,0.055,0.091,0.109,0.135,0.165c1.053,1.567,1.627,3.772,1.686,6.051
		c0.063,0.48,0.267,0.491,0.5,0.245c0.214-0.217,0.421-0.446,0.625-0.668c-0.307-1.225-0.783-2.324-1.275-3.387
		C122.091,129.211,121.293,127.838,120.603,127.188L120.603,127.188z"/>
	
		<linearGradient id="SVGID_15_" gradientUnits="userSpaceOnUse" x1="-5284.3105" y1="-138.5322" x2="-5283.9985" y2="-138.5322" gradientTransform="matrix(0 -204.4135 204.4135 0 28430.0234 -1080026.5)">
		<stop  offset="0" style="stop-color:#00082E"/>
		<stop  offset="0.321" style="stop-color:#010A30"/>
		<stop  offset="0.501" style="stop-color:#030F39"/>
		<stop  offset="0.647" style="stop-color:#071846"/>
		<stop  offset="0.773" style="stop-color:#0D245A"/>
		<stop  offset="0.809" style="stop-color:#0F2961"/>
		<stop  offset="0.839" style="stop-color:#0B386E"/>
		<stop  offset="0.896" style="stop-color:#054E83"/>
		<stop  offset="0.951" style="stop-color:#015B90"/>
		<stop  offset="1" style="stop-color:#006094"/>
	</linearGradient>
	<path fill="url(#SVGID_15_)" d="M92.37,152.082c0.318,0.16,0.647,0.016,0.806-0.074c1.067-0.547,3.145-2.143,4.04-3.258
		c0.271-0.254,0.532-0.082,0.618,0.189c0.374,1.184,0.922,2.098,1.536,3.068c0.668,1.084,2.011,2.205,3.752,2.682
		c2.251,0.631,4.682,0.744,7.875-0.477c2.562-0.98,5.245-2.977,7.309-5.221c2.477-2.688,3.373-4.412,4.312-5.586
		c1.607-1.988,4.107-5.512,7.611-8.501c1.227-1.05,2.568-1.729,3.412-1.399c0.506-1.305,0.266-2.025-0.273-2.371
		c-0.82-0.534-2.459,0.267-3.844,1.322c-3.775,2.859-6.945,7.311-8.551,9.303c-0.947,1.172-1.84,2.9-4.314,5.588
		c-3.888,4.221-9.044,6.646-14.018,4.971c-2.715-0.912-4.679-3.096-5.427-5.777c-0.149-0.518-0.439-0.662-0.722-0.32
		c-0.802,1.004-2.445,2.479-3.818,3.406c-0.15,0.109-0.521,0.328-0.84,0.17c-0.287-0.131-1.306-1.57-1.505-1.984
		c-0.025-0.043-0.042-0.09-0.051-0.139v0.018c0.358,1.771,0.403,1.979,0.887,2.797C91.714,151.391,92.249,152.031,92.37,152.082z"/>
	
		<linearGradient id="SVGID_16_" gradientUnits="userSpaceOnUse" x1="-5284.3345" y1="-138.0083" x2="-5284.0215" y2="-138.0083" gradientTransform="matrix(0 -204.2444 204.2444 0 28251.334 -1079137.375)">
		<stop  offset="0" style="stop-color:#00082E"/>
		<stop  offset="0.321" style="stop-color:#010A30"/>
		<stop  offset="0.501" style="stop-color:#030F39"/>
		<stop  offset="0.647" style="stop-color:#071846"/>
		<stop  offset="0.773" style="stop-color:#0D245A"/>
		<stop  offset="0.809" style="stop-color:#0F2961"/>
		<stop  offset="0.839" style="stop-color:#0B386E"/>
		<stop  offset="0.896" style="stop-color:#054E83"/>
		<stop  offset="0.951" style="stop-color:#015B90"/>
		<stop  offset="1" style="stop-color:#006094"/>
	</linearGradient>
	<path fill="url(#SVGID_16_)" d="M62.378,136.176c1.256-2.532,3.023-3.741,4.761-4.84c0.748-0.475,1.079-0.933,0.634-2.166
		c-0.126-0.353-0.197-0.986-0.338-1.547c0.045,0.547-0.226,1.019-0.71,1.271c-2.122,1.082-4.676,2.938-5.937,5.469
		c-1.025,2.063-1.233,4.559,0.328,6.93c0.131,0.189,0.273,0.381,0.43,0.557h0.002C61.047,139.881,61.586,137.76,62.378,136.176
		L62.378,136.176z"/>
	
		<linearGradient id="SVGID_17_" gradientUnits="userSpaceOnUse" x1="-5284.0571" y1="-138.3765" x2="-5283.7437" y2="-138.3765" gradientTransform="matrix(0 -206.1787 206.1787 0 28622.8613 -1089301.375)">
		<stop  offset="0" style="stop-color:#00082E"/>
		<stop  offset="0.321" style="stop-color:#010A30"/>
		<stop  offset="0.501" style="stop-color:#030F39"/>
		<stop  offset="0.647" style="stop-color:#071846"/>
		<stop  offset="0.773" style="stop-color:#0D245A"/>
		<stop  offset="0.809" style="stop-color:#0F2961"/>
		<stop  offset="0.839" style="stop-color:#0B386E"/>
		<stop  offset="0.896" style="stop-color:#054E83"/>
		<stop  offset="0.951" style="stop-color:#015B90"/>
		<stop  offset="1" style="stop-color:#006094"/>
	</linearGradient>
	<path fill="url(#SVGID_17_)" d="M84.106,105.426c7.716-2.544,16.316-0.936,23.225,0.543c0.966-0.604,1.813-1.02,2.659-1.484
		c0.422-0.221-0.05-0.484-0.181-0.484c-8.919-1.674-18.187-3.846-27.041-0.567c-6.137,2.291-8.826,7.156-7.528,10.404
		c0.248,0.62,0.643,1.102,1.159,1.444C75.965,112.287,78.21,107.377,84.106,105.426L84.106,105.426z"/>
	
		<linearGradient id="SVGID_18_" gradientUnits="userSpaceOnUse" x1="-5284.3174" y1="-138.229" x2="-5284.0054" y2="-138.229" gradientTransform="matrix(0 -204.3566 204.3566 0 28332.1973 -1079727)">
		<stop  offset="0" style="stop-color:#00082E"/>
		<stop  offset="0.321" style="stop-color:#010A30"/>
		<stop  offset="0.501" style="stop-color:#030F39"/>
		<stop  offset="0.647" style="stop-color:#071846"/>
		<stop  offset="0.773" style="stop-color:#0D245A"/>
		<stop  offset="0.809" style="stop-color:#0F2961"/>
		<stop  offset="0.839" style="stop-color:#0B386E"/>
		<stop  offset="0.896" style="stop-color:#054E83"/>
		<stop  offset="0.951" style="stop-color:#015B90"/>
		<stop  offset="1" style="stop-color:#006094"/>
	</linearGradient>
	<path fill="url(#SVGID_18_)" d="M59.01,152.061c2.529,1.781,5.019,2.373,7.924,2.424c5.901,0.104,11.292-2.334,17.008-8.135
		c5.488-5.568,10.238-13.353,14.922-21.066c0.155-0.271,0.32-0.392,1.105-0.494c2.939-0.363,5.572-0.531,8.167-0.774
		c0.773-0.072,1.362-0.144,1.646,0.137c0.937,0.938,2.028,1.795,2.749,2.215c0.479,0.006,0.883,0.111,1.164,0.363
		c0.303-0.041,0.579-0.209,0.759-0.383c0.336-0.33,0.349-0.715,0.294-1.042c-0.117-0.641-0.289-1.904-0.495-2.271
		c0.143,0.279,0.051,0.673-0.229,0.989c-0.205,0.234-0.526,0.457-0.935,0.451c-0.337-0.008-0.537-0.123-0.961-0.356
		c-0.875-0.468-1.956-1.243-2.683-2.158c-0.245-0.306-0.371-0.314-0.99-0.28c-2.776,0.161-7.107,0.577-10.043,0.946
		c-0.708,0.088-0.813,0.221-0.961,0.464c-4.679,7.718-9.674,16.037-15.16,21.607c-5.882,5.975-10.775,7.543-15.965,7.584
		c-5.989,0.041-11.319-3.352-12.67-9.314v0.002C54.386,146.303,56.532,150.311,59.01,152.061L59.01,152.061z"/>
	
		<linearGradient id="SVGID_19_" gradientUnits="userSpaceOnUse" x1="-5284.207" y1="-138.2705" x2="-5283.8926" y2="-138.2705" gradientTransform="matrix(0 -205.1317 205.1317 0 28449.4102 -1083799.75)">
		<stop  offset="0" style="stop-color:#00082E"/>
		<stop  offset="0.321" style="stop-color:#010A30"/>
		<stop  offset="0.501" style="stop-color:#030F39"/>
		<stop  offset="0.647" style="stop-color:#071846"/>
		<stop  offset="0.773" style="stop-color:#0D245A"/>
		<stop  offset="0.809" style="stop-color:#0F2961"/>
		<stop  offset="0.839" style="stop-color:#0B386E"/>
		<stop  offset="0.896" style="stop-color:#054E83"/>
		<stop  offset="0.951" style="stop-color:#015B90"/>
		<stop  offset="1" style="stop-color:#006094"/>
	</linearGradient>
	<path fill="url(#SVGID_19_)" d="M81.137,126.133c-0.131-0.2-0.203-0.432-0.208-0.671c-0.061,1,0.343,2.47,0.666,2.961
		c0.356,0.548,1.356,0.817,2.148,0.226c1.791-1.318,3.407-2.086,5.215-2.428c0.464-0.637,0.966-1.341,1.541-2.134
		c0.05-0.062,0.063-0.144,0.042-0.186c-0.033-0.072-0.09-0.092-0.207-0.097c-2.651,0.073-4.968,0.867-7.212,2.543
		C82.477,126.82,81.544,126.752,81.137,126.133z"/>
	
		<linearGradient id="SVGID_20_" gradientUnits="userSpaceOnUse" x1="-5284.334" y1="-138.7109" x2="-5284.0205" y2="-138.7109" gradientTransform="matrix(0 -204.2487 204.2487 0 28460.543 -1079160)">
		<stop  offset="0" style="stop-color:#00082E"/>
		<stop  offset="0.321" style="stop-color:#010A30"/>
		<stop  offset="0.501" style="stop-color:#030F39"/>
		<stop  offset="0.647" style="stop-color:#071846"/>
		<stop  offset="0.773" style="stop-color:#0D245A"/>
		<stop  offset="0.809" style="stop-color:#0F2961"/>
		<stop  offset="0.839" style="stop-color:#0B386E"/>
		<stop  offset="0.896" style="stop-color:#054E83"/>
		<stop  offset="0.951" style="stop-color:#015B90"/>
		<stop  offset="1" style="stop-color:#006094"/>
	</linearGradient>
	<path fill="url(#SVGID_20_)" d="M153.299,108.059c-3.707,2.035-7.584,2.65-11.637,2.685c-9.797,0.08-18.926-3.738-28.368-5.788
		c0.013,0.411,0.121,0.906-0.226,1.166c-5.229,3.857-9.958,7.777-13.126,13.277c-0.104,0.129-0.047,0.248,0.137,0.235
		c0.835-0.038,1.643-0.076,2.439-0.12c2.886-4.52,5.972-7.11,10.685-10.589c0.354-0.267,0.706-0.453,0.59-1.458
		c9.473,2.103,16.676,5.586,28.907,5.619c3.652,0.012,8.799-1.205,11.566-2.87c3.184-1.915,4.029-3.322,4.143-4.81
		c0.039-0.465-0.086-1.155-0.16-1.51c-0.107-0.504-0.18-1.147-0.322-1.626c0.049,0.194,0.07,0.415,0.053,0.657
		C157.881,104.637,156.557,106.281,153.299,108.059L153.299,108.059z"/>
	
		<linearGradient id="SVGID_21_" gradientUnits="userSpaceOnUse" x1="-5284.2646" y1="-138.5464" x2="-5283.9551" y2="-138.5464" gradientTransform="matrix(0 -204.7104 204.7104 0 28474.4805 -1081586.5)">
		<stop  offset="0" style="stop-color:#00082E"/>
		<stop  offset="0.321" style="stop-color:#010A30"/>
		<stop  offset="0.501" style="stop-color:#030F39"/>
		<stop  offset="0.647" style="stop-color:#071846"/>
		<stop  offset="0.773" style="stop-color:#0D245A"/>
		<stop  offset="0.809" style="stop-color:#0F2961"/>
		<stop  offset="0.839" style="stop-color:#0B386E"/>
		<stop  offset="0.896" style="stop-color:#054E83"/>
		<stop  offset="0.951" style="stop-color:#015B90"/>
		<stop  offset="1" style="stop-color:#006094"/>
	</linearGradient>
	<path fill="url(#SVGID_21_)" d="M112.373,114.444c-0.116,0.11-0.248,0.224-0.376,0.342c-0.936,0.968-1.22,2.25-1.083,3.219
		c0.077,0.394,0.229,0.471,0.408,0.437c0.186-0.041,0.367-0.097,0.542-0.17c0.066-0.534,0.29-1.052,0.829-1.527
		c0.39-0.345,0.88-0.504,1.299-0.435c0.36-0.715,0.462-1.575,0.023-1.958C113.593,113.987,112.919,114.056,112.373,114.444
		L112.373,114.444z"/>
	
		<linearGradient id="SVGID_22_" gradientUnits="userSpaceOnUse" x1="-5284.3291" y1="-138.5547" x2="-5284.0171" y2="-138.5547" gradientTransform="matrix(0 -204.2728 204.2728 0 28417.5 -1079287)">
		<stop  offset="0" style="stop-color:#00082E"/>
		<stop  offset="0.321" style="stop-color:#010A30"/>
		<stop  offset="0.501" style="stop-color:#030F39"/>
		<stop  offset="0.647" style="stop-color:#071846"/>
		<stop  offset="0.773" style="stop-color:#0D245A"/>
		<stop  offset="0.809" style="stop-color:#0F2961"/>
		<stop  offset="0.839" style="stop-color:#0B386E"/>
		<stop  offset="0.896" style="stop-color:#054E83"/>
		<stop  offset="0.951" style="stop-color:#015B90"/>
		<stop  offset="1" style="stop-color:#006094"/>
	</linearGradient>
	<path fill="url(#SVGID_22_)" d="M116.142,117.797c-0.898,1.718-2.38,2.635-3.802,3.079c0,0-0.299,0.068-0.254,0.34
		c0.036,0.305,1.043,0.943,1.673,1.392c0.091-0.024,0.228-0.075,0.228-0.075c0.73-0.29,1.946-1.031,2.648-2.57
		c0.451-0.992,0.696-1.771,0.501-3.475c-0.142-1.188-0.383-2.262-0.701-2.818C117.051,114.915,116.805,116.514,116.142,117.797
		L116.142,117.797z"/>
	
		<linearGradient id="SVGID_23_" gradientUnits="userSpaceOnUse" x1="-5284.3232" y1="-138.1787" x2="-5284.0103" y2="-138.1787" gradientTransform="matrix(0 -204.3203 204.3203 0 28312.3945 -1079536.375)">
		<stop  offset="0" style="stop-color:#00082E"/>
		<stop  offset="0.321" style="stop-color:#010A30"/>
		<stop  offset="0.501" style="stop-color:#030F39"/>
		<stop  offset="0.647" style="stop-color:#071846"/>
		<stop  offset="0.773" style="stop-color:#0D245A"/>
		<stop  offset="0.809" style="stop-color:#0F2961"/>
		<stop  offset="0.839" style="stop-color:#0B386E"/>
		<stop  offset="0.896" style="stop-color:#054E83"/>
		<stop  offset="0.951" style="stop-color:#015B90"/>
		<stop  offset="1" style="stop-color:#006094"/>
	</linearGradient>
	<path fill="url(#SVGID_23_)" d="M89.817,111.661c-2.591,6.09-7.541,10.921-13.571,11.122c-3.372,0.112-5.953-1.477-7.325-3.903
		c1.003,1.811,2.699,3.398,4.211,4.35c1.306,0.813,2.917,1.267,4.76,1.205c6.283-0.215,11.044-5.393,12.624-9.768
		c0.421-1.18,0.093-2.444-0.102-3.299c-0.08-0.327-0.188-1.072-0.427-1.602h-0.002C90.163,110.204,90.163,110.849,89.817,111.661
		L89.817,111.661z"/>
	<path fill="#4B4B4B" d="M123.044,82.853c-66.291,0-119.43,19.87-119.43,44.782c0,24.766,53.578,44.787,119.432,44.787
		c65.858,0,119.44-20.09,119.44-44.787C242.482,102.944,188.904,82.853,123.044,82.853 M4.433,128.129
		c-0.024-5.241,2.286-10.448,7.144-15.35c17.098-17.247,61.897-28.903,111.27-29.105c65.406-0.272,118.705,19.229,118.818,43.473
		c0.023,5.243-2.424,10.381-7.281,15.278c-17.1,17.251-61.762,28.981-111.131,29.177C57.847,171.875,4.544,152.375,4.433,128.129
		 M241.754,124.177c0.043,0.218,0.074,0.439,0.111,0.651C241.834,124.618,241.791,124.398,241.754,124.177"/>
	
		<linearGradient id="SVGID_24_" gradientUnits="userSpaceOnUse" x1="-5272.8105" y1="-145.5122" x2="-5272.4985" y2="-145.5122" gradientTransform="matrix(-88.4134 -329.9634 329.9634 -88.4134 -418076.6875 -1752506)">
		<stop  offset="0" style="stop-color:#A5A5A6"/>
		<stop  offset="0.35" style="stop-color:#D7D7D7"/>
		<stop  offset="0.65" style="stop-color:#D7D7D7"/>
		<stop  offset="1" style="stop-color:#A5A5A6"/>
	</linearGradient>
	<path fill="url(#SVGID_24_)" d="M3.975,127.635c0,1.17,0.138,2.332,0.377,3.477c-0.185-0.982-0.282-1.979-0.29-2.979
		c-0.023-5.311,2.352-10.672,7.25-15.614c17.193-17.342,62.039-29.012,111.534-29.22c6.859-0.03,13.58,0.161,20.128,0.553
		c-6.635-0.417-13.281-0.625-19.928-0.625C57.02,83.226,3.975,103.025,3.975,127.635z"/>
	
		<linearGradient id="SVGID_25_" gradientUnits="userSpaceOnUse" x1="-4413.4297" y1="-279.5688" x2="-4416.6206" y2="-267.661" gradientTransform="matrix(8.6315 0 0 -8.6315 38263.7734 -2276.1978)">
		<stop  offset="0" style="stop-color:#A5A5A6"/>
		<stop  offset="0.35" style="stop-color:#D7D7D7"/>
		<stop  offset="0.65" style="stop-color:#D7D7D7"/>
		<stop  offset="1" style="stop-color:#A5A5A6"/>
	</linearGradient>
	<path fill="url(#SVGID_25_)" d="M234.648,142.701c-17.135,17.275-61.967,29.068-111.396,29.273
		c-6.84,0.035-13.679-0.152-20.507-0.559c6.596,0.42,13.384,0.635,20.301,0.635c65.651,0,119.065-20.045,119.065-44.4
		c0-0.932-0.086-1.853-0.236-2.771c0.109,0.753,0.156,1.513,0.164,2.276C242.068,132.468,239.547,137.76,234.648,142.701"/>
	<path fill="#FFFFFF" d="M123.041,88.4c-62.245,0-112.704,17.558-112.704,39.226c0,21.665,50.458,39.226,112.704,39.226
		c62.239,0,112.692-17.561,112.692-39.226C235.732,105.958,185.279,88.4,123.041,88.4L123.041,88.4z M123.041,163.455
		c-60.058,0-108.739-16.037-108.739-35.83c0-19.792,48.68-35.826,108.739-35.826c60.061,0,108.737,16.036,108.737,35.826
		C231.777,147.418,183.102,163.455,123.041,163.455L123.041,163.455z"/>
	<path fill="#FFFFFF" d="M193.213,114.792c0.154-0.273-0.006-0.473-0.35-0.473c-1.807,0-4.166,0.006-6.039,0.006
		c-0.447,0-0.674,0.049-0.885,0.467c-0.693,1.327-9.129,13.966-10.699,16.42c-0.266,0.374-0.592,0.325-0.629-0.102
		c-0.154-1.459-1.416-3.14-3.398-3.937c-1.514-0.615-2.992-0.726-4.525-0.521c-2.775,0.373-5.244,1.839-7.42,3.487
		c-3.275,2.492-6.102,5.717-9.748,8.102c-1.988,1.297-4.717,2.429-6.541,0.738c-1.652-1.529-1.463-4.932,1.061-7.563
		c0.264-0.271,0.586-0.047,0.535,0.203c-0.24,1.194,0.051,2.375,0.955,3.202c1.104,0.984,2.68,1.101,4.029,0.44
		c1.594-0.789,2.529-2.314,2.803-4.041c0.422-2.688-1.645-5.054-4.232-5.243c-2.098-0.148-4.111,0.583-6.072,2.202
		c-0.98,0.817-1.543,1.416-2.393,2.631c-0.209,0.298-0.527,0.328-0.516-0.11c0.098-3.435-1.324-5.37-4.166-5.431
		c-2.205-0.057-4.559,1.145-6.396,2.604c-2.012,1.613-3.77,3.76-5.661,5.771c-0.232,0.247-0.438,0.234-0.5-0.244
		c-0.058-2.279-0.632-4.485-1.685-6.052c-0.378-0.543-1.157-0.813-1.817-0.445c-0.305,0.165-1.363,0.653-2.139,1.276
		c-0.378,0.315-0.526,0.771-0.361,1.354c1.015,3.405,0.793,7.27-0.587,10.54c-1.264,2.986-3.726,5.689-6.622,6.6
		c-1.904,0.602-3.89,0.307-5.117-1.383c-1.68-2.336-1.005-6.389,1.509-9.759c2.217-2.97,5.422-4.854,8.618-6.067
		c0.378-0.148,0.457-0.389,0.348-0.707c-0.174-0.525-0.45-1.24-0.564-1.564c-0.292-0.778-1.117-0.91-2.12-0.799
		c-2.322,0.271-4.417,1.064-6.487,2.174c-5.42,2.902-8.136,8.52-9.33,11.526c-0.572,1.447-1.064,2.345-1.701,3.146
		c-0.855,1.074-1.925,2.053-3.888,3.775c-0.177,0.158-0.306,0.486-0.158,0.793c0.199,0.414,1.219,1.854,1.505,1.984
		c0.319,0.158,0.69-0.061,0.841-0.168c1.372-0.93,3.014-2.404,3.817-3.408c0.281-0.342,0.571-0.195,0.722,0.32
		c0.747,2.682,2.712,4.865,5.426,5.777c4.973,1.674,10.128-0.75,14.019-4.971c2.473-2.688,3.366-4.416,4.314-5.588
		c1.606-1.992,4.777-6.445,8.55-9.303c1.385-1.054,3.025-1.857,3.846-1.322c0.66,0.429,0.875,1.42-0.188,3.352
		c-3.846,7.029-9.51,15.287-10.552,17.283c-0.188,0.35-0.02,0.625,0.343,0.625c2.012-0.01,4.01-0.006,5.836-0.006
		c0.307-0.014,0.439-0.154,0.594-0.369c2.955-4.623,5.734-9.022,8.715-13.571c0.166-0.265,0.318-0.06,0.326,0.054
		c0.059,1.061,0.322,2.502,0.947,3.451c1.121,1.752,2.719,2.505,4.49,2.519c1.408,0.017,2.117-0.198,3.639-0.767
		c1.063-0.4,2.068-0.939,2.988-1.605c0.443-0.309,0.521,0.211,0.51,0.291c-0.682,3.67,0.158,8.021,3.807,9.82
		c4.371,2.152,9.164-0.873,11.92-3.602c0.271-0.264,0.559-0.238,0.588,0.328c0.055,1.049,0.531,2.283,1.393,3.145
		c2.311,2.32,6.979,1.402,11.656-2.221c3.01-2.32,6.156-5.6,9-9.07c0.1-0.135,0.184-0.354-0.02-0.568
		c-0.432-0.453-1.057-0.971-1.488-1.371c-0.195-0.164-0.482-0.116-0.65,0.01c-2.912,2.767-5.531,5.93-9.322,8.539
		c-1.279,0.896-3.314,1.615-4.23,0.377c-0.357-0.479-0.316-1.148,0.035-2.02C174.813,142.995,192.307,116.361,193.213,114.792
		 M170.092,137.125c0.037,0.205,0.301,0.4,0.564,0.496c0.088,0.037,0.143,0.098,0.037,0.314c-0.742,1.596-1.426,2.513-2.357,3.9
		c-0.855,1.279-1.826,2.279-2.992,3.238c-1.766,1.461-4.215,3.047-6.24,1.979c-0.9-0.465-1.289-1.723-1.268-2.745
		c0.045-2.867,1.314-5.808,3.666-8.698c2.871-3.536,6.047-5.369,8.129-4.369c2.154,1.027,1.467,3.523,0.504,5.483
		C170.061,136.873,170.051,137.004,170.092,137.125"/>
	<path fill="#FFFFFF" d="M66.33,152.287c-6.522,0.047-12.265-3.988-12.926-10.963c-0.366-3.866,0.727-7.314,2.915-10.154
		c1.94-2.529,5.229-4.63,8.005-5.145c0.91-0.165,2.125-0.057,2.63,0.54c0.787,0.919,0.558,1.929-0.226,2.329
		c-2.122,1.082-4.677,2.938-5.938,5.469c-1.024,2.063-1.232,4.559,0.328,6.93c2.624,3.953,9.922,4.064,16.71-2.244
		c1.683-1.546,3.186-3.029,4.719-4.781c2.988-3.422,3.981-4.67,7.956-10.181c0.05-0.062,0.063-0.144,0.042-0.186
		c-0.032-0.071-0.09-0.092-0.206-0.098c-2.651,0.074-4.966,0.867-7.212,2.545c-0.648,0.471-1.581,0.403-1.988-0.217
		c-0.453-0.703-0.129-1.618,0.619-2.133c3.615-2.513,7.567-2.973,11.603-3.654c-0.002,0,0.282,0.011,0.511-0.293
		c1.656-2.125,2.906-4.042,4.674-6.194c1.78-2.18,4.076-4.179,5.833-5.687c2.451-2.109,4.023-2.818,5.621-3.687
		c0.421-0.221-0.052-0.484-0.182-0.484c-8.919-1.674-18.187-3.845-27.042-0.566c-6.136,2.29-8.826,7.156-7.528,10.404
		c0.916,2.305,3.95,2.679,6.788,1.291c2.479-1.224,4.583-3.094,6.088-5.413c0.864-1.331,2.685-0.372,1.702,1.942
		c-2.591,6.091-7.542,10.922-13.572,11.122c-5.135,0.17-8.447-3.605-8.435-8.265c0.018-9.189,10.251-15.243,21-16.148
		c12.947-1.068,25.209,2.381,38.061,3.939c9.852,1.191,19.295,1.216,29.191-1.057c1.168-0.253,1.994,0.492,1.914,1.673
		c-0.098,1.709-1.422,3.354-4.68,5.133c-3.709,2.035-7.584,2.65-11.637,2.686c-9.797,0.08-18.926-3.738-28.369-5.789
		c0.014,0.412,0.122,0.906-0.226,1.167c-5.229,3.856-9.958,7.776-13.126,13.277c-0.105,0.129-0.047,0.248,0.136,0.234
		c2.75-0.145,5.225-0.214,7.789-0.419c0.448-0.037,0.464-0.148,0.427-0.476c-0.225-1.896,0.327-4.061,1.995-5.55
		c1.706-1.529,3.845-1.702,5.26-0.604c1.612,1.257,1.47,3.517,0.59,5.212c-0.898,1.719-2.38,2.634-3.802,3.079
		c0,0-0.297,0.067-0.252,0.339c0.055,0.431,1.993,1.507,2.159,1.793c0.16,0.27,0.081,0.692-0.219,1.015
		c-0.205,0.235-0.526,0.457-0.934,0.45c-0.338-0.007-0.537-0.123-0.96-0.355c-0.876-0.469-1.957-1.242-2.685-2.158
		c-0.245-0.307-0.371-0.315-0.989-0.28c-2.776,0.162-7.107,0.578-10.043,0.947c-0.708,0.088-0.813,0.221-0.961,0.463
		c-4.68,7.719-9.675,16.039-15.16,21.608C76.413,150.676,71.52,152.244,66.33,152.287 M110.914,118.005
		c0.078,0.394,0.229,0.471,0.41,0.437c0.889-0.178,1.863-0.912,2.442-1.759c0.527-0.771,0.773-1.885,0.25-2.332
		c-0.466-0.398-1.225-0.283-1.789,0.213C111.112,115.554,110.772,116.956,110.914,118.005"/>
</g>
</svg>
