<?xml version="1.0" encoding="utf-8"?>
<!-- Generator: Adobe Illustrator 14.0.0, SVG Export Plug-In . SVG Version: 6.00 Build 43363)  -->
<!DOCTYPE svg PUBLIC "-//W3C//DTD SVG 1.0//EN" "http://www.w3.org/TR/2001/REC-SVG-20010904/DTD/svg10.dtd">
<svg version="1.0" id="Capa_1" xmlns="http://www.w3.org/2000/svg" xmlns:xlink="http://www.w3.org/1999/xlink" x="0px" y="0px"
	 width="250px" height="250px" viewBox="0 0 250 250" enable-background="new 0 0 250 250" xml:space="preserve">
<g>
	<rect x="189.376" y="161.604" fill="#CC2229" width="11.768" height="31.977"/>
	<path fill="#CC2229" d="M186.827,176.721c-0.138-3.14-1.114-6.261-2.405-8.092l-13.251-17.904h-14.384l9.644,10.879
		c-17.122-2.215-26.606,5.388-26.606,15.117c0,9.711,10.582,17.643,23.502,17.643S187.302,186.396,186.827,176.721z
		 M163.326,186.048c-6.381,0-11.609-3.905-11.609-8.719c0-4.794,5.229-8.7,11.609-8.7c6.382,0,11.613,3.906,11.613,8.7
		C174.939,182.143,169.708,186.048,163.326,186.048z"/>
	<path fill="#CC2229" d="M111.127,179.511c0,4.341,4.026,6.537,7.338,6.537c3.313,0,7.727-2.441,7.727-6.537v-17.907h11.138v17.907
		c0,12.412-10.982,14.905-18.864,14.905c-7.863,0-19.073-2.493-19.073-14.905v-17.907h11.734V179.511z"/>
	<path fill="#CC2229" d="M75.802,150.725H61.089l3.816,4.112l-25.176,38.742h13.773l4.936-7.531h26.15l4.76,7.531h13.496
		L75.802,150.725z M63.406,178.34l8.299-12.744l8.072,12.744H63.406z"/>
	<path fill="#FFFFFF" d="M200.266,117.611c3.337,0.264,6.462-0.071,9.728-0.825c1.848-0.521,3.656-1.179,5.407-1.967
		c1.688-0.856,3.31-1.843,4.847-2.95c1.487-1.162,2.884-2.436,4.179-3.811c1.239-1.423,2.371-2.938,3.388-4.528
		c1.228-2.091,2.158-4.196,2.951-6.496c0.526-1.913,0.93-3.773,1.177-5.723c0.104-1.526,0.141-3.003,0.104-4.513
		c-0.175-2.51-0.615-4.81-1.281-7.231c-0.475-1.355-1.003-2.69-1.583-4.004c-1.314-2.599-2.858-4.828-4.756-7.041
		c-1.301-1.363-2.696-2.63-4.179-3.793c-1.921-1.391-3.98-2.58-6.146-3.547c-1.793-0.707-3.635-1.282-5.512-1.72
		c-2.659-0.471-5.359-0.671-8.06-0.597c-4.531,0.368-9.078,1.755-12.905,4.248c-0.262,0.193-0.56,0.438-0.824,0.631
		c3.021,4.548,5.021,9.85,6.233,15.134c0.35,1.703,0.631,3.409,0.807,5.127c0.578,5.458,0.034,10.989-1.476,16.258
		c-1.282,4.337-3.266,8.725-5.881,12.43C190.451,115.541,195.421,117.26,200.266,117.611L200.266,117.611z M178.549,78.53
		c-0.497-1.36-1.083-2.685-1.755-3.967c-1.58,2.984-2.721,6.162-3.231,9.516c-0.279,1.912-0.403,3.845-0.279,5.794
		c0.262,4.161,1.6,8.338,3.581,12.009c1.264-2.545,2.212-5.059,2.792-7.848c0.965-4.776,0.666-9.833-0.776-14.504L178.549,78.53z
		 M155.479,117.332c3.704-0.614,7.042-1.862,10.324-3.654l1.262-0.754c-0.703-0.948-1.317-2.037-1.896-3.057
		c-1.975-3.494-3.476-7.237-4.461-11.13c-0.558-2.268-0.951-4.573-1.177-6.899c-0.28-3.51-0.138-7.041,0.424-10.518
		c1.07-6.302,3.407-12.218,7.002-17.486c-1.525-1.001-3.106-1.932-4.791-2.634c-2.861-1.195-5.882-2.002-8.988-2.23
		c-6.462-0.492-12.78,1.001-18.225,4.513c3.862,5.811,6.251,12.623,7.217,19.523c0.211,2.089,0.352,4.073,0.334,6.178
		c-0.104,4.127-0.807,8.149-2.037,12.097c-1.317,4.196-3.266,8.043-5.651,11.729C140.855,116.979,148.333,118.455,155.479,117.332
		L155.479,117.332z M126.982,78.268c-0.51-1.409-1.137-2.771-1.877-4.073c-1.121,2.16-2.088,4.389-2.72,6.725
		c-0.615,2.404-1,4.881-1,7.374c0.017,1.581,0.157,3.178,0.457,4.723c0.659,3.204,1.789,6.292,3.353,9.165
		c0.982-1.915,1.827-3.916,2.404-5.988c0.526-2.091,0.914-4.109,1.038-6.251c0.122-2.916-0.089-5.829-0.757-8.656
		C127.652,80.285,127.317,79.233,126.982,78.268L126.982,78.268z M108.833,77.776c1.14-4.477,2.967-8.62,5.388-12.554l0.933-1.386
		l0.14-0.21c-3.355-2.072-6.954-3.511-10.833-4.267c-2.809-0.545-5.864-0.598-8.71-0.369c-3.966,0.563-7.743,1.793-11.147,3.899
		c-0.405,0.264-0.844,0.562-1.211,0.859c3.039,4.549,5.02,9.85,6.232,15.134c0.615,2.818,0.962,5.687,1.037,8.57
		c0.032,2.615-0.156,5.228-0.562,7.811c-0.294,1.687-0.675,3.356-1.143,5.003c-1.281,4.337-3.266,8.726-5.881,12.431
		c9.252,6.621,22.771,6.69,32.129,0.211c-3.582-5.354-6.022-11.237-7.093-17.593c-0.708-4.387-0.749-8.856-0.122-13.255
		C108.217,80.619,108.497,79.198,108.833,77.776L108.833,77.776z M74.964,78.056c-0.456-1.196-0.984-2.362-1.58-3.493
		c-1.563,2.984-2.705,6.162-3.214,9.516c-0.281,1.912-0.405,3.845-0.281,5.794c0.265,4.161,1.599,8.338,3.564,12.009
		c0.949-1.913,1.757-3.792,2.318-5.864C77.422,90.274,77.106,83.658,74.964,78.056z M56.74,96.192
		c-0.641-3.479-0.87-7.021-0.684-10.552c0.505-7.807,3.094-15.337,7.497-21.805c-1.511-1.001-3.108-1.932-4.776-2.634
		c-2.879-1.195-5.899-2.002-8.989-2.23c-2.3-0.176-4.583-0.051-6.865,0.229c-1.438,0.263-2.862,0.598-4.267,1.001
		c-2.266,0.758-4.448,1.747-6.513,2.949c-1.588,1.013-3.097,2.145-4.512,3.388c-1.378,1.292-2.652,2.689-3.81,4.181
		c-1.391,1.917-2.574,3.978-3.53,6.145c-0.715,1.792-1.296,3.634-1.737,5.512l-0.246,1.458c-0.256,1.979-0.356,3.975-0.297,5.969
		c0.088,1.492,0.297,2.95,0.544,4.424c0.686,2.879,1.6,5.443,2.968,8.077c0.711,1.228,1.479,2.422,2.301,3.579
		c1.474,1.897,3.055,3.529,4.863,5.11c1.492,1.169,3.064,2.231,4.706,3.179c2.16,1.089,4.335,1.966,6.672,2.615
		c1.404,0.333,2.879,0.614,4.318,0.788c1.614,0.106,3.177,0.177,4.775,0.088c4.276-0.308,8.445-1.478,12.256-3.44l1-0.545
		l1.247-0.754c-1.177-1.616-2.161-3.512-3.073-5.303C58.814,103.993,57.521,100.151,56.74,96.192z M228.516,122.947
		c-1.694,1.215-3.445,2.345-5.25,3.39c-1.878,0.949-3.8,1.811-5.759,2.58c-2.02,0.686-4.056,1.281-6.146,1.757l-2.124,0.387
		c-3.722,0.455-7.462,0.648-11.186,0.244c-4.469-0.498-8.838-1.67-12.956-3.476c-2.916-1.323-5.691-2.935-8.287-4.811
		c-2.896,2.018-5.883,3.758-9.146,5.127c-4.482,1.845-9.229,2.964-14.064,3.315c-3.374,0.194-6.76,0.019-10.096-0.525
		c-6.689-1.211-12.99-3.81-18.538-7.777c-2.37,1.667-4.847,3.16-7.497,4.37c-5.477,2.493-11.272,3.864-17.293,4.004
		c-3.967,0.053-7.901-0.369-11.764-1.369c-5.442-1.423-10.411-3.845-15.009-7.146c-2.424,1.685-4.864,3.16-7.515,4.407
		c-5.497,2.545-11.5,3.984-17.557,4.108c-2.529,0.034-5.004-0.176-7.498-0.474c-2.119-0.379-4.217-0.867-6.287-1.458
		c-2-0.681-3.969-1.454-5.899-2.316c-1.86-0.948-3.671-1.992-5.425-3.127c-2.259-1.605-4.401-3.372-6.409-5.284
		c-1.438-1.508-2.802-3.084-4.09-4.723c-1.205-1.695-2.33-3.447-3.371-5.249c-0.953-1.882-1.826-3.803-2.615-5.76
		c-0.684-2.019-1.269-4.068-1.755-6.144c-0.374-2.146-0.643-4.308-0.807-6.479l-0.07-2.212l0.07-2.229l0.157-2.194l0.282-2.161
		l0.368-2.124l0.509-2.107l0.562-2.035l0.685-2.001l0.79-1.983l0.877-1.914l0.947-1.862l1.053-1.826l1.106-1.74l1.211-1.701
		l1.282-1.615c1.369-1.596,2.808-3.088,4.3-4.53c1.584-1.355,3.225-2.643,4.916-3.862c1.762-1.12,3.572-2.163,5.425-3.126
		c1.93-0.868,3.898-1.647,5.899-2.336c2.074-0.58,4.161-1.089,6.287-1.438c3.108-0.387,6.232-0.598,9.358-0.421
		c3.968,0.298,7.83,1.07,11.553,2.37c3.622,1.325,7.07,3.082,10.271,5.233l0.718,0.509l0.581,0.422
		c6.198-4.618,13.625-7.512,21.316-8.375c4.599-0.438,9.251-0.247,13.78,0.737c4.047,0.894,7.953,2.341,11.605,4.301
		c1.756,0.968,3.424,2.055,5.058,3.195c2.756-2.072,5.846-3.792,9.025-5.125c6.092-2.582,12.887-3.653,19.506-3.266
		c2.125,0.158,4.285,0.457,6.355,0.895c4.957,1.083,9.687,3.026,13.975,5.742c0.931,0.595,1.896,1.247,2.773,1.896
		c4.271-3.146,9.07-5.507,14.17-6.969c3.862-1.106,7.778-1.598,11.798-1.651l2.281,0.053l2.265,0.177l2.212,0.28
		c2.152,0.373,4.286,0.853,6.392,1.438c2.025,0.667,4.012,1.448,5.951,2.336c1.872,0.939,3.688,1.983,5.442,3.126
		c1.686,1.21,3.301,2.473,4.864,3.862c1.495,1.417,2.909,2.917,4.232,4.495c1.274,1.63,2.458,3.33,3.545,5.091l1.02,1.826
		l0.948,1.862l0.824,1.913l0.755,1.965l0.65,2.019l0.561,2.036c0.474,2.127,0.844,4.215,1.105,6.392
		c0.157,2.212,0.21,4.423,0.157,6.636c-0.16,2.172-0.436,4.335-0.825,6.479l-0.491,2.106l-0.578,2.037l-0.686,1.999
		c-0.765,1.965-1.632,3.888-2.598,5.761c-1.384,2.406-2.945,4.707-4.67,6.882c-1.353,1.585-2.789,3.097-4.302,4.529l-1.58,1.354
		L228.516,122.947L228.516,122.947z"/>
	<path fill="#D0D1D3" d="M74.068,112.573c-6.39-6.392-10.024-14.572-10.024-24.265c0-9.235,3.457-17.452,9.304-23.771
		c5.742,6.267,9.288,14.625,9.288,23.771c0,6.355-1.229,11.71-4.215,16.853c4.443-14.114,3.161-24.053-2.281-31.935
		c0.983,1.387,3.652,9.165,3.161,15.081c0,6.549-2.002,12.642-5.409,17.697L74.068,112.573L74.068,112.573z M244.599,88.309
		c0,23.088-18.839,41.889-41.909,41.889c-9.655,0-18.575-3.283-25.862-8.863c-7.3,5.513-16.274,8.863-26.018,8.863
		c-9.622,0-18.506-3.283-25.826-8.706c-7.322,5.478-16.151,8.706-25.704,8.706c-9.655,0-18.573-3.283-25.861-8.863
		c-7.286,5.513-16.275,8.863-26.001,8.863c-23.089,0-41.926-18.802-41.926-41.889c0-23.087,18.837-41.926,41.926-41.926
		c9.726,0,18.715,3.355,25.912,8.972c7.217-5.617,16.223-8.972,25.95-8.972s18.594,3.335,25.809,8.814
		c7.351-5.723,16.404-8.826,25.721-8.814c9.743,0,18.718,3.355,25.915,8.972c7.23-5.617,16.238-8.972,25.965-8.972
		C226.637,46.383,244.599,65.17,244.599,88.309L244.599,88.309z M202.689,50.773c-7.094,0-13.623,2.019-19.261,5.548
		c9.217-7.358,24.017-8.954,41.015-3.02c-6.127-3.722-14.029-6.126-21.754-6.126c-9.814,0-18.909,3.563-26.002,9.357l0.105,4.722
		c-6.76-6.478-15.925-10.479-25.984-10.479c-6.806-0.012-13.473,1.912-19.226,5.548c9.185-7.358,24.003-8.955,40.979-3.02
		c-6.129-3.722-14.012-6.126-21.754-6.126c-9.781,0-18.627,3.3-25.721,9.111v4.968c-6.741-6.478-15.748-10.479-25.809-10.479
		c-6.81-0.012-13.483,1.912-19.241,5.548c9.199-7.357,24-8.954,40.994-3.02c-6.128-3.722-14.009-6.126-21.752-6.126
		c-9.797,0-18.891,3.563-26.001,9.357l0.107,4.722c-6.741-6.477-15.907-10.48-25.966-10.48c-6.815-0.01-13.493,1.914-19.258,5.548
		c9.216-7.358,24.016-8.954,41.01-3.02c-6.126-3.722-14.027-6.127-21.752-6.127c-22.649,0-41.136,18.505-41.136,41.135
		c0,7.866,2.738,16.467,7.39,23.403C4.281,93.195,9.02,79.114,15.009,70.354c-2.301,5.144-5.302,12.025-5.144,17.96
		c0.58,20.418,16.889,37.538,37.554,37.538c10.48,0,19.329-3.722,26.283-10.746c6.882,7.181,14.941,10.746,25.58,10.746
		c9.756,0.002,19.104-3.914,25.947-10.868c6.693,6.706,15.417,10.868,25.583,10.868c10.5,0,19.331-3.722,26.282-10.746
		c6.899,7.181,14.94,10.746,25.597,10.746c20.666,0,37.519-16.873,37.519-37.538C240.208,67.786,223.214,50.773,202.689,50.773
		L202.689,50.773z M120.137,112.416c-5.784,5.028-13.191,7.797-20.856,7.796c-7.531-0.125-10.903-1.441-14.115-3.021
		c9.199,7.162,29.636,4.389,34.849-0.106c-5.688,4.092-12.835,6.445-20.735,6.445c-9.691,0-17.855-3.547-24.28-9.885
		c6.602-6.725,9.937-15.169,9.937-25.334c0-9.885-3.879-18.925-10.183-25.649c4.828-4.847,14.378-9.586,24.527-9.586
		c9.235,0,17.925,4.196,24.247,10.059h-4.653c-5.951,7.127-9.167,15.222-9.167,25.176c0,7.866,2.739,16.467,7.375,23.403
		c-9.392-18.521-4.636-32.603,1.335-41.363c-2.301,5.144-5.268,12.044-5.127,17.96c0.212,9.183,4.371,17.698,10.007,24.298
		L120.137,112.416L120.137,112.416z M125.071,111.819c-5.935-6.32-9.462-14.275-9.462-23.51c0-9.234,3.598-17.679,9.479-23.982
		c5.986,6.285,9.411,14.624,9.411,23.982c0,6.356-1.229,11.711-4.215,16.854c4.442-14.115,3.158-24.053-2.282-31.936
		c0.984,1.387,3.652,9.165,3.179,15.081c0,6.743-2.124,13.044-5.725,18.208L125.071,111.819L125.071,111.819z M126.896,113.678
		c6.217-6.636,9.919-15.501,9.919-25.37c0-9.885-3.615-18.416-9.919-25.176c6.321-6.214,14.397-10.059,23.913-10.059
		c9.183,0,17.784,3.458,24.054,9.27l-4.039,0.018c-6.001,7.315-9.278,16.487-9.271,25.948c0,7.867,2.739,16.467,7.392,23.404
		c-9.393-18.522-4.651-32.604,1.335-41.364c-2.301,5.144-5.287,12.009-5.146,17.96c0.211,9.832,3.514,17.926,9.866,24.72
		l-3.633-0.386c-5.548,4.69-12.746,7.569-20.56,7.569c-7.532-0.125-10.605-1.615-14.099-3.02c9.182,7.162,29.618,4.389,34.832-0.106
		c-5.688,4.091-12.834,6.444-20.733,6.444C140.68,123.528,133.411,119.509,126.896,113.678L126.896,113.678z M132.937,113.363
		c5.02,3.616,11.271,5.724,17.872,5.724c6.619,0,13.096-2.231,18.171-5.794c-5.004-6.936-8.218-15.801-8.218-24.984
		c0-9.216,3.003-17.766,8.11-24.79c-5.209-3.911-11.552-6.019-18.064-6.003c-6.603,0-12.713,2.019-17.734,5.617
		c4.827,6.813,8.094,16.1,8.094,25.176C141.17,97.492,137.94,106.429,132.937,113.363L132.937,113.363z M125.195,104.884
		c3.185-4.94,4.874-10.696,4.865-16.575c0-6.215-1.724-12.025-4.971-16.713c-3.125,4.934-5.056,10.622-5.056,16.713
		C120.033,94.279,122.209,100.125,125.195,104.884z M117.117,113.239c-5.125-7.127-8.217-15.695-8.217-24.93
		c-0.002-9.022,2.924-17.801,8.339-25.017c-5.022-3.495-11.429-5.776-17.941-5.776c-7.814-0.439-16.346,4.038-17.593,6.144
		c4.636,6.689,7.62,15.782,7.62,24.649c0,9.165-2.984,17.665-8.112,24.703c5.005,3.863,11.291,6.075,18.067,6.075
		C105.899,119.087,112.08,116.979,117.117,113.239L117.117,113.239z M71.593,113.029l-3.634-0.386
		c-5.548,4.69-12.728,7.569-20.541,7.569c-7.532-0.125-9.764-1.915-14.134-3.02c9.202,7.162,29.636,4.389,34.868-0.106
		c-5.705,4.091-12.851,6.444-20.734,6.444c-19.383,0-35.237-15.818-35.237-35.219c0-19.4,15.836-35.235,35.237-35.235
		c9.182,0,17.784,3.458,24.053,9.27l-4.056,0.018c-5.776,7.074-9.271,16.134-9.271,25.949c0,7.866,2.756,16.467,7.392,23.403
		c-9.393-18.521-4.635-32.603,1.335-41.363c-2.3,5.144-5.268,12.008-5.125,17.96C61.954,98.141,65.238,106.234,71.593,113.029
		L71.593,113.029z M73.471,104.62c3.089-4.88,4.726-10.537,4.722-16.312c0-6.003-1.736-11.639-4.775-16.451
		c-3.001,4.706-4.932,10.448-4.932,16.451C68.486,94.19,70.574,99.983,73.471,104.62z M65.588,113.293
		c-5.004-6.936-8.235-15.801-8.235-24.984c0-9.216,3.004-17.766,8.112-24.79c-5.202-3.911-11.538-6.019-18.047-6.003
		c-16.96,0-30.794,13.834-30.794,30.793c0,16.961,13.834,30.778,30.794,30.778C54.021,119.087,60.516,116.855,65.588,113.293
		L65.588,113.293z M177.479,112.573c-6.392-6.392-10.026-14.572-10.026-24.265c0-9.235,3.459-17.452,9.287-23.771
		c5.759,6.267,9.288,14.625,9.288,23.771c0,6.355-1.228,11.71-4.214,16.853c4.46-14.114,3.16-24.053-2.265-31.935
		c0.966,1.387,3.652,9.165,3.16,15.081c0,6.549-2.001,12.642-5.408,17.697L177.479,112.573L177.479,112.573z M178.407,113.644
		c6.584-6.724,9.938-15.169,9.938-25.334c0-9.885-3.882-18.924-10.202-25.649c4.847-4.847,14.381-9.586,24.545-9.586
		c19.384,0,35.199,15.835,35.199,35.235c0,6.356-1.21,11.711-4.194,16.854c4.441-14.115,3.141-24.053-2.281-31.936
		c0.966,1.387,3.651,9.165,3.158,15.081c0,17.574-14.325,31.902-31.882,31.902c-7.532-0.125-10.903-1.44-14.134-3.021
		c9.201,7.164,29.635,4.39,34.852-0.105c-5.689,4.091-12.835,6.444-20.718,6.444C192.998,123.528,184.833,119.982,178.407,113.644z
		 M184.606,113.012c5.02,3.863,11.304,6.075,18.083,6.075c16.94,0,30.777-13.817,30.777-30.778
		c0-16.958-13.836-30.793-30.777-30.793c-7.813-0.439-16.346,4.038-17.591,6.144c4.635,6.689,7.62,15.782,7.62,24.649
		C192.717,97.473,189.733,105.972,184.606,113.012L184.606,113.012z M176.882,104.62c2.982-4.759,4.721-10.341,4.721-16.312
		c0-6.003-1.754-11.639-4.775-16.451c-3.02,4.706-4.934,10.448-4.934,16.451C171.894,94.19,173.967,99.983,176.882,104.62z"/>
</g>
</svg>
