<?xml version="1.0" encoding="utf-8"?>
<!-- Generator: Adobe Illustrator 21.0.2, SVG Export Plug-In . SVG Version: 6.00 Build 0)  -->
<svg version="1.1" id="Capa_1" xmlns="http://www.w3.org/2000/svg" xmlns:xlink="http://www.w3.org/1999/xlink" x="0px" y="0px"
	 viewBox="0 0 100 100" style="enable-background:new 0 0 100 100;" xml:space="preserve">
<style type="text/css">
	.st0{fill:#F27620;}
	.st1{fill:#221F1F;}
</style>
<path class="st0" d="M-0.1,70.1H100V25.6H-0.1V70.1L-0.1,70.1z"/>
<path class="st1" d="M3.5,64.6h13l3.3-8l6,8h27.9l8.6-8l-1.4,8h10.9l9-8l-1.2,8h11.8l4.9-22.2H84.4l-9.6,8.5l1.9-8.5H65.3L52.9,54.8
	l5.2-15.2h19l0.9-3.9H28.2l-1.5,3.9H45l-7.7,19.5l-6.1-8l10.5-8.8h-8.8L22.1,51l3.6-8.6H12.9L3.5,64.6"/>
</svg>
