<?xml version="1.0" encoding="utf-8"?>
<!-- Generator: Adobe Illustrator 14.0.0, SVG Export Plug-In . SVG Version: 6.00 Build 43363)  -->
<!DOCTYPE svg PUBLIC "-//W3C//DTD SVG 1.0//EN" "http://www.w3.org/TR/2001/REC-SVG-20010904/DTD/svg10.dtd">
<svg version="1.0" id="Capa_1" xmlns="http://www.w3.org/2000/svg" xmlns:xlink="http://www.w3.org/1999/xlink" x="0px" y="0px"
	 width="250px" height="250px" viewBox="0 0 250 250" enable-background="new 0 0 250 250" xml:space="preserve">
<path fill="#AB002F" d="M126.317,206.121c-0.036-11.505,9.236-20.786,20.817-20.805c11.297,0.018,20.576,9.299,20.805,20.805
	c-0.226,11.376-9.505,20.657-20.805,20.817C135.554,226.778,126.282,217.497,126.317,206.121z M147.136,219.27
	c6.252-0.097,11.428-5.972,11.491-13.148c-0.063-7.315-5.239-13.19-11.491-13.149c-6.522-0.043-11.711,5.833-11.505,13.149
	C135.425,213.297,140.613,219.172,147.136,219.27 M191.487,194.069v31.774h-8.756v-31.774H170.13v-7.109h33.41v7.109H191.487
	 M213.938,217.068l-3.277,8.776h-10.398l16.426-38.885h10.947l15.888,38.885h-10.399l-3.286-8.776H213.938L213.938,217.068z
	 M222.166,210.504h5.469l-5.469-14.245l-5.479,14.245H222.166 M30.476,194.069v31.774h-8.762v-31.774H9.667v-7.109h32.861v7.109
	H30.476 M44.719,206.121c0.017-11.505,9.284-20.786,20.801-20.805c11.369,0.018,20.65,9.299,20.817,20.805
	c-0.167,11.376-9.448,20.657-20.817,20.817C54.003,226.778,44.736,217.497,44.719,206.121L44.719,206.121z M65.52,219.27
	c6.326-0.097,11.498-5.972,11.504-13.148c-0.006-7.315-5.178-13.19-11.504-13.149c-6.458-0.043-11.639,5.833-11.488,13.149
	C53.881,213.297,59.063,219.172,65.52,219.27 M106.054,225.844h4.376v-14.793l15.338-24.091h-9.854l-9.861,16.422l-9.313-16.422
	H86.338l15.339,24.091v14.793H106.054"/>
<path d="M16.718,101.368c0,37.103,48.242,67.287,107.537,67.287c59.294,0,107.538-30.187,107.538-67.287
	c-0.001-37.105-48.243-67.287-107.539-67.287S16.718,64.263,16.718,101.368z M20.018,101.368c0-35.278,46.76-63.981,104.237-63.981
	c57.476,0,104.237,28.703,104.237,63.981c0,35.286-46.761,63.988-104.237,63.988C66.778,165.355,20.018,136.654,20.018,101.368
	L20.018,101.368z"/>
<path d="M114.094,46.313C88.926,47.85,70.645,54.521,67.528,63.31c-0.317,0.886-0.48,1.819-0.483,2.76
	c0,1.482,0.419,2.965,1.25,4.382c3.493,5.952,14.336,10.859,29.766,13.492l1.633,0.268l0.273-1.632
	c2.533-15.45,8.092-27.598,15.259-33.334l4.062-3.254L114.094,46.313L114.094,46.313z M71.145,68.788
	c-0.538-0.915-0.803-1.817-0.803-2.707c0-0.561,0.097-1.108,0.296-1.666c2.378-6.714,18.536-12.578,39.176-14.47
	c-5.888,6.66-10.416,17.393-12.777,30.431C83.624,77.895,73.98,73.621,71.145,68.788L71.145,68.788z M109.492,83.566l-0.322,1.795
	l1.82,0.139c4.318,0.322,8.783,0.497,13.261,0.497c4.483,0,8.95-0.174,13.268-0.497l1.817-0.139l-0.323-1.795
	c-2.481-13.94-8.005-22.268-14.76-22.268C117.494,61.299,111.974,69.626,109.492,83.566L109.492,83.566z M124.254,64.598
	c4.619,0,8.882,6.916,11.128,17.712c-3.652,0.238-7.372,0.387-11.131,0.387c-3.754,0-7.476-0.148-11.125-0.387
	C115.367,71.514,119.638,64.598,124.254,64.598L124.254,64.598z M133.278,49.246c7.164,5.736,12.73,17.887,15.263,33.335l0.27,1.631
	l1.632-0.267c15.437-2.633,26.285-7.542,29.766-13.493c1.354-2.286,1.611-4.756,0.773-7.14
	c-3.115-8.788-21.396-15.459-46.563-16.998l-5.188-0.322L133.278,49.246L133.278,49.246z M138.702,49.945
	c20.634,1.892,36.791,7.767,39.163,14.47c0.206,0.558,0.302,1.105,0.302,1.666c0,0.89-0.271,1.792-0.796,2.707
	c-2.845,4.833-12.492,9.107-25.898,11.588C149.11,67.338,144.59,56.606,138.702,49.945L138.702,49.945z M51.603,69.787
	c-11.312,9.475-17.29,20.731-17.29,32.557c0,27.82,33.923,51.336,78.904,54.688l5.024,0.377l-3.825-3.268
	c-9.855-8.432-15.975-28.434-15.975-52.206l0.104-5.616l-1.379-0.28c-23.661-4.241-40.493-14.189-42.889-25.33l-0.573-2.674
	L51.603,69.787L51.603,69.787z M37.617,102.344c0-10.141,4.947-19.873,14.234-28.326c4.327,11.257,20.496,20.635,43.35,24.998
	c-0.029,1.289-0.055,2.918-0.055,2.918c0,22.043,5.231,41.078,13.857,51.349C68.018,148.909,37.617,127.502,37.617,102.344
	L37.617,102.344z M108.148,99.371l-0.01,0.599c0,22.097,6.928,38.767,16.116,38.767c9.185,0,16.114-16.67,16.114-38.767
	l-0.022-2.384l-1.771,0.152c-4.674,0.409-9.484,0.612-14.318,0.612s-9.651-0.203-14.312-0.612l-1.778-0.161L108.148,99.371
	L108.148,99.371z M137.049,101.142c-0.248,20.56-6.726,34.298-12.794,34.298c-6.074,0-12.551-13.738-12.793-34.298
	c4.196,0.31,8.482,0.502,12.793,0.502C128.573,101.644,132.847,101.451,137.049,101.142z M194.227,70.708
	c-2.395,11.141-19.23,21.089-42.883,25.33l-1.386,0.257l0.11,5.638c0,23.771-6.124,43.775-15.975,52.206l-3.826,3.268l5.019-0.377
	c44.984-3.352,78.908-26.866,78.908-54.688c0-11.826-5.984-23.082-17.295-32.557l-2.095-1.753L194.227,70.708L194.227,70.708z
	 M196.652,74.018c9.294,8.453,14.244,18.185,14.244,28.326c0,25.158-30.399,46.565-71.389,50.939
	c8.627-10.271,13.857-29.306,13.857-51.349c0,0-0.032-1.63-0.055-2.918C176.157,94.653,192.324,85.274,196.652,74.018
	L196.652,74.018z"/>
<linearGradient id="SVGID_1_" gradientUnits="userSpaceOnUse" x1="-1012.271" y1="-1053.0601" x2="-1012.271" y2="-1061.5403" gradientTransform="matrix(8.8194 0 0 8.8194 9051.9072 9440.4824)">
	<stop  offset="0" style="stop-color:#F0F3F5"/>
	<stop  offset="0.056" style="stop-color:#E2E5E8"/>
	<stop  offset="0.138" style="stop-color:#D4D8DD"/>
	<stop  offset="0.242" style="stop-color:#CCD0D6"/>
	<stop  offset="0.44" style="stop-color:#CACED4"/>
	<stop  offset="0.568" style="stop-color:#B3B7BD"/>
	<stop  offset="0.835" style="stop-color:#797C83"/>
	<stop  offset="1" style="stop-color:#52545C"/>
</linearGradient>
<path fill="url(#SVGID_1_)" d="M195.396,62.214c0.152,0.419,0.291,0.847,0.399,1.277c0.622,2.471,0.493,4.898-0.313,7.264
	c10.731,8.85,17.058,19.764,17.058,31.59c0,29.519-39.528,53.452-88.286,53.452c-48.76,0-88.285-23.934-88.285-53.452
	c0-11.816,6.333-22.74,17.051-31.59c-0.799-2.365-0.928-4.792-0.306-7.264c0.128-0.469,0.3-0.926,0.512-1.363
	c-14.643,10.433-23.522,24.105-23.522,39.08c0,32.696,42.328,59.199,94.549,59.199c52.214,0,94.549-26.503,94.549-59.199
	C218.805,86.264,209.962,72.623,195.396,62.214L195.396,62.214z"/>
<linearGradient id="SVGID_2_" gradientUnits="userSpaceOnUse" x1="-1012.271" y1="-1059.5215" x2="-1012.271" y2="-1064.1166" gradientTransform="matrix(8.8194 0 0 8.8194 9051.9072 9440.4824)">
	<stop  offset="0" style="stop-color:#F0F3F5"/>
	<stop  offset="0.056" style="stop-color:#E2E5E8"/>
	<stop  offset="0.138" style="stop-color:#D4D8DD"/>
	<stop  offset="0.242" style="stop-color:#CCD0D6"/>
	<stop  offset="0.44" style="stop-color:#CACED4"/>
	<stop  offset="0.568" style="stop-color:#B3B7BD"/>
	<stop  offset="0.835" style="stop-color:#797C83"/>
	<stop  offset="1" style="stop-color:#52545C"/>
</linearGradient>
<path fill="url(#SVGID_2_)" d="M137.391,83.857c-4.168,0.313-8.56,0.483-13.139,0.483c-4.577,0-8.965-0.171-13.132-0.483h-0.014
	l-2.723,1.978c5.024,0.438,10.33,0.687,15.871,0.687c5.542,0,10.848-0.249,15.875-0.687L137.391,83.857L137.391,83.857z
	 M185.686,63.116c-3.319-10.97-30.679-19.026-61.431-19.026c-30.748,0-58.106,8.057-61.425,19.026
	c-2.88,9.516,12.845,18.324,37.656,21.816l-2.156-2.624c-20.07-3.416-32-10.699-29.247-18.442
	c3.335-9.401,27.562-16.209,55.17-16.209c27.607,0,51.839,6.81,55.171,16.209c2.749,7.745-9.175,15.028-29.25,18.442l-2.148,2.624
	C172.828,81.44,188.564,72.632,185.686,63.116L185.686,63.116z"/>
<linearGradient id="SVGID_3_" gradientUnits="userSpaceOnUse" x1="-1010.7451" y1="-1060.3662" x2="-1013.6147" y2="-1062.7742" gradientTransform="matrix(8.8194 0 0 8.8194 9051.9072 9440.4824)">
	<stop  offset="0" style="stop-color:#F0F3F5"/>
	<stop  offset="0.056" style="stop-color:#E2E5E8"/>
	<stop  offset="0.138" style="stop-color:#D4D8DD"/>
	<stop  offset="0.242" style="stop-color:#CCD0D6"/>
	<stop  offset="0.44" style="stop-color:#CACED4"/>
	<stop  offset="0.568" style="stop-color:#B3B7BD"/>
	<stop  offset="0.835" style="stop-color:#797C83"/>
	<stop  offset="1" style="stop-color:#52545C"/>
</linearGradient>
<path fill="url(#SVGID_3_)" d="M111.152,83.857c2.305-12.804,7.303-20.805,13.101-20.805c5.803,0,10.797,8.001,13.105,20.805h0.047
	l2.694,1.956c-2.274-16.909-8.506-27.715-15.842-27.715c-7.341,0-13.57,10.806-15.842,27.715l2.694-1.956H111.152L111.152,83.857z"
	/>
<linearGradient id="SVGID_4_" gradientUnits="userSpaceOnUse" x1="-1010.4526" y1="-1056.3608" x2="-1014.6365" y2="-1058.7764" gradientTransform="matrix(8.8194 0 0 8.8194 9051.9072 9440.4824)">
	<stop  offset="0" style="stop-color:#F0F3F5"/>
	<stop  offset="0.056" style="stop-color:#E2E5E8"/>
	<stop  offset="0.138" style="stop-color:#D4D8DD"/>
	<stop  offset="0.242" style="stop-color:#CCD0D6"/>
	<stop  offset="0.44" style="stop-color:#CACED4"/>
	<stop  offset="0.568" style="stop-color:#B3B7BD"/>
	<stop  offset="0.835" style="stop-color:#797C83"/>
	<stop  offset="1" style="stop-color:#52545C"/>
</linearGradient>
<path fill="url(#SVGID_4_)" d="M140.917,95.394l-2.206,3.985c0,0.291,0.014,0.589,0.014,0.893c0,21.224-6.49,37.316-14.472,37.316
	c-7.988,0-14.466-16.094-14.466-37.316c0-0.335,0.007-0.667,0.014-0.988l-2.208-3.89c-0.065,1.618-0.097,3.236-0.097,4.855
	c0,24.063,7.503,42.29,16.761,42.29s16.767-18.228,16.767-42.29C141.02,98.63,140.984,97.011,140.917,95.394L140.917,95.394z"/>
<linearGradient id="SVGID_5_" gradientUnits="userSpaceOnUse" x1="-1013.7397" y1="-1066.3672" x2="-1013.7397" y2="-1059.0787" gradientTransform="matrix(8.8194 0 0 8.8194 9051.9072 9440.4824)">
	<stop  offset="0" style="stop-color:#F0F3F5"/>
	<stop  offset="0.056" style="stop-color:#E2E5E8"/>
	<stop  offset="0.138" style="stop-color:#D4D8DD"/>
	<stop  offset="0.242" style="stop-color:#CCD0D6"/>
	<stop  offset="0.44" style="stop-color:#CACED4"/>
	<stop  offset="0.568" style="stop-color:#B3B7BD"/>
	<stop  offset="0.835" style="stop-color:#797C83"/>
	<stop  offset="1" style="stop-color:#52545C"/>
</linearGradient>
<path fill="url(#SVGID_5_)" d="M100.521,84.943c3.17-23.502,12.597-40.854,23.734-40.854c-11.94,0-22.117,15.373-25.894,38.266
	l2.127,2.588H100.521L100.521,84.943z"/>
<linearGradient id="SVGID_6_" gradientUnits="userSpaceOnUse" x1="-1010.8042" y1="-1066.3672" x2="-1010.8042" y2="-1059.0787" gradientTransform="matrix(8.8194 0 0 8.8194 9051.9072 9440.4824)">
	<stop  offset="0" style="stop-color:#F0F3F5"/>
	<stop  offset="0.056" style="stop-color:#E2E5E8"/>
	<stop  offset="0.138" style="stop-color:#D4D8DD"/>
	<stop  offset="0.242" style="stop-color:#CCD0D6"/>
	<stop  offset="0.44" style="stop-color:#CACED4"/>
	<stop  offset="0.568" style="stop-color:#B3B7BD"/>
	<stop  offset="0.835" style="stop-color:#797C83"/>
	<stop  offset="1" style="stop-color:#52545C"/>
</linearGradient>
<path fill="url(#SVGID_6_)" d="M147.992,84.943h0.023l2.126-2.588c-3.77-22.894-13.953-38.266-25.887-38.266
	C135.392,44.09,144.824,61.44,147.992,84.943z"/>
<linearGradient id="SVGID_7_" gradientUnits="userSpaceOnUse" x1="-1010.7148" y1="-1066.4287" x2="-1010.7148" y2="-1054.2653" gradientTransform="matrix(8.8194 0 0 8.8194 9051.9072 9440.4824)">
	<stop  offset="0" style="stop-color:#F0F3F5"/>
	<stop  offset="0.056" style="stop-color:#E2E5E8"/>
	<stop  offset="0.138" style="stop-color:#D4D8DD"/>
	<stop  offset="0.242" style="stop-color:#CCD0D6"/>
	<stop  offset="0.44" style="stop-color:#CACED4"/>
	<stop  offset="0.568" style="stop-color:#B3B7BD"/>
	<stop  offset="0.835" style="stop-color:#797C83"/>
	<stop  offset="1" style="stop-color:#52545C"/>
</linearGradient>
<path fill="url(#SVGID_7_)" d="M151.625,97.649l-2.707-3.233h-0.022c0.152,2.569,0.238,5.179,0.238,7.831
	c0,32.12-11.141,58.157-24.878,58.157c15.403,0,27.457-24.148,27.457-58.157C151.712,100.69,151.68,99.165,151.625,97.649z"/>
<linearGradient id="SVGID_8_" gradientUnits="userSpaceOnUse" x1="-1013.8276" y1="-1066.4292" x2="-1013.8276" y2="-1054.2649" gradientTransform="matrix(8.8194 0 0 8.8194 9051.9072 9440.4824)">
	<stop  offset="0" style="stop-color:#F0F3F5"/>
	<stop  offset="0.056" style="stop-color:#E2E5E8"/>
	<stop  offset="0.138" style="stop-color:#D4D8DD"/>
	<stop  offset="0.242" style="stop-color:#CCD0D6"/>
	<stop  offset="0.44" style="stop-color:#CACED4"/>
	<stop  offset="0.568" style="stop-color:#B3B7BD"/>
	<stop  offset="0.835" style="stop-color:#797C83"/>
	<stop  offset="1" style="stop-color:#52545C"/>
</linearGradient>
<path fill="url(#SVGID_8_)" d="M99.382,102.248c0-2.652,0.087-5.262,0.236-7.831H99.6l-2.714,3.223
	c-0.057,1.535-0.086,3.071-0.089,4.608c0,34.008,12.062,58.157,27.46,58.157C110.523,160.405,99.382,134.367,99.382,102.248
	L99.382,102.248z"/>
<path fill="#2D2F34" d="M195.482,70.754c4.103,3.384,7.563,7.076,10.271,10.999c-0.938-6.237-3.418-12.142-7.219-17.176
	c-1.025-0.815-2.072-1.602-3.141-2.361c0.153,0.419,0.292,0.846,0.399,1.276C196.417,65.962,196.288,68.388,195.482,70.754
	L195.482,70.754z M53.021,70.754c-0.8-2.366-0.928-4.793-0.306-7.264c0.128-0.469,0.3-0.925,0.512-1.363
	c-1.1,0.794-2.184,1.611-3.251,2.45c-3.795,5.038-6.275,10.94-7.219,17.176C45.464,77.83,48.918,74.137,53.021,70.754L53.021,70.754
	z"/>
<linearGradient id="SVGID_9_" gradientUnits="userSpaceOnUse" x1="-1012.272" y1="-1066.3667" x2="-1012.272" y2="-1051.4829" gradientTransform="matrix(8.8194 0 0 8.8194 9051.9072 9440.4824)">
	<stop  offset="0" style="stop-color:#F0F3F5"/>
	<stop  offset="0.253" style="stop-color:#EDF0F3"/>
	<stop  offset="0.406" style="stop-color:#E5E8EA"/>
	<stop  offset="0.531" style="stop-color:#D7DADC"/>
	<stop  offset="0.642" style="stop-color:#C3C5C9"/>
	<stop  offset="0.744" style="stop-color:#A9ABAF"/>
	<stop  offset="0.839" style="stop-color:#888B90"/>
	<stop  offset="0.926" style="stop-color:#63656B"/>
	<stop  offset="1" style="stop-color:#3D3F46"/>
</linearGradient>
<path fill="url(#SVGID_9_)" d="M18.368,101.368c0-36.245,47.404-65.635,105.887-65.635c58.476,0,105.879,29.39,105.879,65.635
	c0,36.253-47.403,65.631-105.879,65.631C65.772,166.999,18.368,137.621,18.368,101.368L18.368,101.368z M124.254,160.405
	c52.215,0,94.549-26.503,94.549-59.199c0-32.7-42.334-59.211-94.549-59.211c-52.222,0-94.553,26.513-94.553,59.211
	C29.702,133.902,72.033,160.405,124.254,160.405z"/>
<linearGradient id="SVGID_10_" gradientUnits="userSpaceOnUse" x1="-1012.271" y1="-1066.3672" x2="-1012.271" y2="-1051.4825" gradientTransform="matrix(8.8194 0 0 8.8194 9051.9072 9440.4824)">
	<stop  offset="0" style="stop-color:#F0F3F5"/>
	<stop  offset="0.253" style="stop-color:#EDF0F3"/>
	<stop  offset="0.406" style="stop-color:#E5E8EA"/>
	<stop  offset="0.531" style="stop-color:#D7DADC"/>
	<stop  offset="0.642" style="stop-color:#C3C5C9"/>
	<stop  offset="0.744" style="stop-color:#A9ABAF"/>
	<stop  offset="0.839" style="stop-color:#888B90"/>
	<stop  offset="0.926" style="stop-color:#63656B"/>
	<stop  offset="1" style="stop-color:#3D3F46"/>
</linearGradient>
<path fill="url(#SVGID_10_)" d="M99.382,102.248c0-31.783,11.141-58.158,24.872-58.158c13.738,0,24.879,26.375,24.879,58.158
	c0,32.119-11.142,58.157-24.879,58.157C110.517,160.405,99.382,134.367,99.382,102.248L99.382,102.248z M124.254,142.539
	c9.259,0,16.768-18.228,16.768-42.28c0-24.962-7.51-42.16-16.768-42.16c-9.257,0-16.76,17.198-16.76,42.16
	C107.495,124.312,114.997,142.539,124.254,142.539z"/>
<linearGradient id="SVGID_11_" gradientUnits="userSpaceOnUse" x1="-1012.271" y1="-1066.3657" x2="-1012.271" y2="-1051.4821" gradientTransform="matrix(8.8194 0 0 8.8194 9051.9072 9440.4824)">
	<stop  offset="0" style="stop-color:#F0F3F5"/>
	<stop  offset="0.253" style="stop-color:#EDF0F3"/>
	<stop  offset="0.406" style="stop-color:#E5E8EA"/>
	<stop  offset="0.531" style="stop-color:#D7DADC"/>
	<stop  offset="0.642" style="stop-color:#C3C5C9"/>
	<stop  offset="0.744" style="stop-color:#A9ABAF"/>
	<stop  offset="0.839" style="stop-color:#888B90"/>
	<stop  offset="0.926" style="stop-color:#63656B"/>
	<stop  offset="1" style="stop-color:#3D3F46"/>
</linearGradient>
<path fill="url(#SVGID_11_)" d="M52.715,63.49c2.729-10.805,35.734-26.531,71.54-26.531c35.802,0,67.673,11.236,71.541,26.531
	c4.328,17.143-27.479,32.658-71.541,32.658C80.187,96.147,48.38,80.634,52.715,63.49L52.715,63.49z M124.254,44.09
	c-30.748,0-58.106,8.057-61.425,19.026c-3.719,12.288,23.589,23.405,61.425,23.405c37.844,0,65.147-11.119,61.431-23.405
	C182.366,52.146,155.008,44.09,124.254,44.09z"/>
<linearGradient id="SVGID_12_" gradientUnits="userSpaceOnUse" x1="-1012.271" y1="-1063.2798" x2="-1012.271" y2="-1059.0377" gradientTransform="matrix(8.8194 0 0 8.8194 9051.9072 9440.4824)">
	<stop  offset="0" style="stop-color:#CACED4"/>
	<stop  offset="1" style="stop-color:#52545C"/>
</linearGradient>
<path fill="url(#SVGID_12_)" d="M107.558,95.361l0.02,0.014l2.272,4.004c4.624,0.396,9.433,0.622,14.405,0.622
	c4.996,0,9.816-0.225,14.47-0.63l2.211-3.998l0.014-0.014c-5.317,0.506-10.893,0.787-16.693,0.787
	C118.681,96.149,113.109,95.887,107.558,95.361L107.558,95.361z M196.169,67.196c-0.567,12.258-19.409,23.118-47.261,27.21
	l0.01,0.01l2.717,3.247C178.886,92.765,196.814,80.731,196.169,67.196L196.169,67.196z M52.341,67.196
	C51.697,80.744,69.623,92.764,96.87,97.663l2.724-3.247l0.006-0.01C71.743,90.315,52.915,79.455,52.341,67.196L52.341,67.196z"/>
</svg>
