<?xml version="1.0" encoding="utf-8"?>
<!-- Generator: Adobe Illustrator 14.0.0, SVG Export Plug-In . SVG Version: 6.00 Build 43363)  -->
<!DOCTYPE svg PUBLIC "-//W3C//DTD SVG 1.0//EN" "http://www.w3.org/TR/2001/REC-SVG-20010904/DTD/svg10.dtd">
<svg version="1.0" id="Capa_1" xmlns="http://www.w3.org/2000/svg" xmlns:xlink="http://www.w3.org/1999/xlink" x="0px" y="0px"
	 width="250px" height="250px" viewBox="0 0 250 250" enable-background="new 0 0 250 250" xml:space="preserve">
<path fill="#BEC7CB" d="M245,124.926c0,66.301-53.726,120.049-120,120.049S5,191.227,5,124.926C5,58.624,58.726,4.876,125,4.876
	S245,58.624,245,124.926L245,124.926z"/>
<linearGradient id="SVGID_1_" gradientUnits="userSpaceOnUse" x1="-3143.0664" y1="-204.917" x2="-3117.2417" y2="-240.3254" gradientTransform="matrix(5.1691 0 0 -5.1732 16338.835 -980.3352)">
	<stop  offset="0" style="stop-color:#1077B9"/>
	<stop  offset="1" style="stop-color:#042A54"/>
</linearGradient>
<ellipse fill="url(#SVGID_1_)" cx="125" cy="124.925" rx="115.056" ry="115.151"/>
<path fill="#FFFFFF" d="M214.857,124.393c0.006,50.854-40.784,92.082-91.104,92.082s-91.11-41.229-91.104-92.082
	c-0.006-50.854,40.785-92.082,91.104-92.082S214.863,73.538,214.857,124.393z"/>
<radialGradient id="SVGID_2_" cx="-3141.5947" cy="-202.2129" r="58.1135" gradientTransform="matrix(5.1691 0 0 -5.1732 16338.1396 -981.6985)" gradientUnits="userSpaceOnUse">
	<stop  offset="0" style="stop-color:#209BD3"/>
	<stop  offset="0.546" style="stop-color:#136194"/>
	<stop  offset="1" style="stop-color:#0A3B6C"/>
</radialGradient>
<ellipse fill="url(#SVGID_2_)" cx="124.956" cy="125.015" rx="81.766" ry="82.12"/>
<path opacity="0.65" enable-background="new    " d="M128.998,28.994c-54.563,0-98.854,44.311-98.854,98.895
	c0,54.586,44.292,98.881,98.854,98.881c54.563,0,98.84-44.295,98.84-98.881C227.838,73.304,183.561,28.994,128.998,28.994
	L128.998,28.994z M128.217,42.692c8.431-0.062,16.858,1.097,24.936,3.489l-12.551,27.712l-12.46,27.156l-12.25-27.292
	l-12.595-27.201C111.351,44.038,119.785,42.753,128.217,42.692L128.217,42.692z M171.278,53.955
	c8.412,4.897,17.247,11.527,25.973,23.126c-12.618,30.029-26.325,62.205-39.108,92.339l-16.895-38.689h-26.469L97.45,168.758
	c-13.308-29.879-26.159-59.665-37.802-90.249c8.199-11.591,16.517-17.859,24.86-23.397c9.973,22.853,19.953,45.699,29.926,68.552
	h26.769C151.244,100.585,161.232,76.977,171.278,53.955z M209.53,100.342c1.271,3.946,3.472,11.198,4.299,22.465
	c0.408,5.542,0.192,12.98-1.127,20.195c-2.231,12.203-7.367,24.707-15.496,35.561c-1.69,2.256-3.521,4.436-5.487,6.57
	c-7.437,8.078-17.036,15.42-28.753,20.646c3.583-6.381,6.862-12.869,9.815-19.322c4.157-9.086,8.327-18.16,12.174-27.352
	c0.922-2.201,1.947-4.363,2.931-6.541c3.494-7.736,6.814-15.719,10.025-23.563C201.373,120.547,206.437,109.007,209.53,100.342
	L209.53,100.342z M47.759,102.448c3.094,8.665,6.294,17.528,9.755,25.984c3.21,7.844,6.576,15.721,10.07,23.457
	c8.06,17.848,16.496,35.482,25.536,53.094c-15.409-7.42-25.708-17.115-33.412-27.863c-12.038-16.791-15.918-35.26-15.752-49.951
	C44.087,115.575,46.451,106.279,47.759,102.448L47.759,102.448z M127.825,154.129l25.627,55.184
	c-6.744,2.264-13.945,3.225-21.283,3.412c-1.167,0.031-2.329,0.037-3.502,0.031c-9.806-0.055-18.158-1.363-25.807-3.984
	L127.825,154.129L127.825,154.129z"/>
<path opacity="0.5" enable-background="new    " d="M131.89,28.142c-54.563,0-98.855,44.311-98.855,98.896
	c0,54.586,44.292,98.881,98.855,98.881c54.563,0,98.84-44.295,98.84-98.881C230.729,72.452,186.452,28.142,131.89,28.142
	L131.89,28.142z M131.107,41.84c8.431-0.062,16.859,1.097,24.936,3.488l-12.55,27.712l-12.461,27.156l-12.249-27.291l-12.596-27.201
	C114.242,43.186,122.677,41.901,131.107,41.84z M174.17,53.103c8.412,4.898,17.247,11.527,25.973,23.126
	c-12.618,30.029-26.325,62.205-39.109,92.339l-16.895-38.689H117.67l-17.329,38.027c-13.308-29.879-26.159-59.665-37.802-90.249
	c8.199-11.592,16.517-17.859,24.86-23.397c9.973,22.853,19.953,45.699,29.926,68.551h26.769
	C154.136,99.733,164.123,76.125,174.17,53.103z M212.422,99.49c1.271,3.946,3.471,11.198,4.299,22.466
	c0.407,5.542,0.192,12.978-1.128,20.195c-2.231,12.203-7.366,24.707-15.496,35.561c-1.689,2.256-3.52,4.436-5.485,6.57
	c-7.438,8.076-17.037,15.42-28.754,20.646c3.583-6.383,6.862-12.869,9.815-19.322c4.157-9.086,8.327-18.162,12.175-27.352
	c0.921-2.201,1.946-4.363,2.931-6.541c3.494-7.738,6.815-15.719,10.025-23.563C204.264,119.695,209.327,108.155,212.422,99.49
	L212.422,99.49z M50.65,101.595c3.095,8.665,6.294,17.528,9.755,25.983c3.21,7.844,6.576,15.721,10.069,23.457
	c8.061,17.85,16.497,35.484,25.537,53.096c-15.409-7.422-25.708-17.117-33.413-27.863c-12.037-16.791-15.918-35.26-15.751-49.951
	C46.979,114.722,49.342,105.427,50.65,101.595L50.65,101.595z M130.717,153.275l25.626,55.186
	c-6.743,2.264-13.945,3.225-21.282,3.412c-1.167,0.031-2.329,0.037-3.502,0.031c-9.806-0.055-18.159-1.363-25.808-3.984
	L130.717,153.275L130.717,153.275z"/>
<linearGradient id="SVGID_3_" gradientUnits="userSpaceOnUse" x1="-3147.2378" y1="-198.6543" x2="-3104.158" y2="-259.988" gradientTransform="matrix(5.1691 0 0 -5.1732 16338.835 -980.3352)">
	<stop  offset="0" style="stop-color:#FFFFFF"/>
	<stop  offset="0.5" style="stop-color:#FFFFFF"/>
	<stop  offset="1" style="stop-color:#989B9E"/>
</linearGradient>
<path fill="url(#SVGID_3_)" d="M125.024,26.12c-54.563,0-98.854,44.311-98.854,98.896c0,54.584,44.292,98.881,98.854,98.881
	c54.563,0,98.84-44.297,98.84-98.881C223.864,70.43,179.588,26.12,125.024,26.12L125.024,26.12z M124.243,39.818
	c8.431-0.062,16.859,1.097,24.936,3.488l-12.551,27.713l-12.46,27.155l-12.25-27.291L99.322,43.682
	C107.377,41.164,115.813,39.879,124.243,39.818L124.243,39.818z M167.306,51.08c8.411,4.897,17.247,11.527,25.973,23.126
	c-12.618,30.029-26.326,62.206-39.109,92.339l-16.895-38.688h-26.468l-17.33,38.027c-13.308-29.881-26.159-59.666-37.802-90.25
	c8.199-11.591,16.517-17.859,24.86-23.397c9.972,22.853,19.953,45.699,29.925,68.552h26.77
	C147.271,97.71,157.259,74.103,167.306,51.08z M205.558,97.468c1.271,3.946,3.471,11.198,4.298,22.465
	c0.408,5.543,0.192,12.979-1.127,20.194c-2.231,12.203-7.366,24.709-15.496,35.563c-1.689,2.254-3.521,4.436-5.486,6.57
	c-7.438,8.076-17.037,15.42-28.753,20.645c3.583-6.381,6.861-12.867,9.814-19.322c4.157-9.086,8.327-18.16,12.174-27.352
	c0.922-2.201,1.948-4.361,2.932-6.541c3.494-7.736,6.815-15.717,10.025-23.563C197.399,117.672,202.463,106.133,205.558,97.468
	L205.558,97.468z M43.785,99.574c3.095,8.665,6.294,17.528,9.755,25.983c3.21,7.844,6.576,15.721,10.07,23.457
	c8.061,17.85,16.496,35.482,25.537,53.094c-15.409-7.42-25.709-17.115-33.413-27.861c-12.037-16.793-15.918-35.26-15.752-49.953
	C40.114,112.701,42.478,103.405,43.785,99.574z M123.853,151.254l25.627,55.184c-6.744,2.266-13.945,3.225-21.283,3.414
	c-1.167,0.029-2.33,0.037-3.502,0.029c-9.806-0.055-18.159-1.361-25.807-3.984L123.853,151.254L123.853,151.254z"/>
</svg>
